<svg version="1.1" viewBox="0 0 2048 2048" width="24" height="24" xmlns="http://www.w3.org/2000/svg"><path transform="translate(936,598)" d="m0 0h35l20 2 15 4 11 7 7 8 4 8 1 4v8l-3 10-7 9-10 6-11 4-14 2h-16l-25-5-17-4-12-2-11-1h-15l-25 5-19 7-11 7-5 4-6 9-1 2v9l4 5 11 4 8 1h9l23-3 30-7 57-14 26-4 28-3h29l20 3 12 4 11 6 10 8 8 9 6 10 4 13v15l-3 10-6 9-5 5-8 5-10 4-10 2h-28l-36-7-49-10-13-2-16-1h-14l-26 4-27 8-26 11-16 9-16 11-9 7-12 11-10 10-9 11-10 14-11 18-8 17-9 25-5 23-3 27v35l4 31 6 26 7 23 9 22 12 25 10 17 14 20 11 13 7 8 9 9 22 18 3 3-5-2-14-8-17-12-14-11-14-12-13-12-12-12-9-11-9-10-14-19-13-20-11-19-9-17-11-26-7-20-7-24-6-29-4-31-1-14v-33l2-26 4-28 6-27 6-18 9-19 11-18 13-18 11-13 11-12 8-7 7-7 10-8 13-10 16-11 21-12 27-14 21-9 30-10 25-6 30-5z" fill="#57AFCC" /><path transform="translate(1211,559)" d="m0 0 5 2 15 9 17 12 14 11 15 13 15 14 15 16 11 13 14 19 10 15 11 18 14 27 10 24 11 33 7 30 4 26 2 23v46l-3 29-5 28-6 23-11 26-9 16-12 17-9 11-12 14-18 18-11 9-13 10-21 14-22 13-31 15-24 9-22 7-27 6-25 4-9 1h-44l-18-3-12-5-8-6-7-9-3-8v-12l3-8 9-10 14-7 11-3h25l25 5 23 5 23 2 18-2 17-4 13-5 14-8 9-8 4-8v-7l-4-6-10-4-7-1h-20l-20 3-35 9-32 8-30 6-21 3-11 1h-42l-16-3-13-5-10-6-10-9-8-10-5-11-3-12v-9l3-12 6-9 7-7 8-5 12-4 6-1h28l32 6 37 8 30 5 23 1 21-2 24-5 24-8 21-10 20-12 13-10 14-12 13-13 8-10 13-18 11-20 8-19 5-15 5-21 3-22 1-18v-11l-2-29-4-24-6-24-8-24-8-19-8-17-16-27-12-16-9-11-11-12-12-12-16-12z" fill="#57AFCC" /><path transform="translate(821,818)" d="m0 0 2 1-7 11-11 23-5 18-2 14v20l3 19 8 24 8 16 9 16 12 17 9 11 13 15 14 14 5 6 8 7 15 14 11 9 10 9 13 10 10 9 9 9 10 13 8 13 9 19 5 18 2 13v20l-3 15-5 11-6 9-8 7-10 5-14 3h-9l-16-3-17-5-25-10-19-10-19-13-14-11-14-12-14-15-8-10-10-14-12-19-13-26-9-24-7-26-4-22-2-17v-41l3-23 6-25 6-18 9-20 10-17 14-19 11-12 9-9 14-11z" fill="#325671" /><path transform="translate(1104,522)" d="m0 0h9l17 3 16 5 21 8 20 10 21 14 13 10 14 12 8 8 7 8 12 15 14 21 10 18 10 21 9 25 7 29 4 29v42l-3 24-6 25-7 20-12 25-10 15-10 13-9 10-12 12-14 11-6 5-2-1 10-18 7-16 5-17 2-13v-23l-3-18-5-16-7-16-7-14-14-21-9-12-11-13-9-10-30-30-11-9-14-13-10-8-13-11-10-9-13-16-8-13-9-19-5-16-3-20v-12l3-17 5-12 6-9 7-7 14-7z" fill="#325671" /><path transform="translate(1376,1024)" d="m0 0 1 2-11 25-14 28-13 21-13 18-13 16-9 10-7 8-14 14-8 7-14 12-18 13-18 12-18 11-19 9-19 7-21 5-23 3h-14l-14-4-11-7-7-8-2-5v-9l4-8 9-7 15-7 24-4 29-4 27-6 26-9 25-11 21-11 24-16 16-12 11-9 10-9 8-7 14-15 11-14 12-17 10-17z" fill="#57AFCC" /><path transform="translate(915,534)" d="m0 0h24l13 4 9 6 8 9 2 6-1 9-4 7-7 6-13 6-17 4-40 5-22 5-23 7-26 11-16 8-18 10-16 11-15 11-11 9-10 9-13 12-8 8-9 11-13 17-13 21-3 6-1-3 9-20 15-30 13-21 13-18 13-16 10-11 7-8 16-16 8-7 15-12 18-13 17-11 14-8 16-8 24-9 21-5z" fill="#57AFCC" /><path transform="translate(878,1397)" d="m0 0h19l8 4 8 9v2l9-7 9-6 5-2h18l10 5 6 8 4 11 1 7v68h-29l-1-65-3-7-3-2h-8l-8 4-4 4-1 23-1 43h-28l-1-17v-34l-1-16-3-5-3-2h-7l-10 5-3 4-1 65h-29v-97h24l1 4v8l6-4 11-8z" fill="#335873" /><path transform="translate(470,1366)" d="m0 0h21l12 3 13 7 11 11 8 16 3 11 1 7v21l-3 15-5 13-8 11-7 7-8 5-15 5-16 1-13-2-12-5-8-6-5-5-6-7-6-13-4-16v-27l4-16 6-12 8-10 11-8 13-5zm5 25-7 3-8 7-5 10-2 8-1 17 2 13 4 11 7 8 8 5 4 1h7l9-3 8-7 6-12 2-9v-23l-4-13-6-9-5-4-7-3z" fill="#335873" /><path transform="translate(1404,893)" d="m0 0h1v55l-3 31-8 53-4 28-1 13v37l3 15 6 15 12 22 2 7v13l-3 10-6 8-7 6-7 3h-14l-10-5-7-6-8-11-8-16-4-14v-22l4-14 9-21 11-24 13-33 10-31 9-37 5-30 4-41z" fill="#57AFCC" /><path transform="translate(660,569)" d="m0 0h10l10 4 10 9 6 7 8 14 5 15 1 6v17l-4 16-9 20-14 31-11 29-8 24-8 30-6 30-4 32-2 34h-1l-1-13v-33l2-29 5-37 7-45 3-31v-26l-3-19-6-15-8-15-4-7-3-12 1-10 4-10 6-8 8-6z" fill="#57AFCC" /><path transform="translate(1246,1368)" d="m0 0h29l1 51 10-13 13-18 10-14 5-6h31l-2 4-9 12-16 21-9 12-1 3 14 24 9 15 19 32 2 5h-31l-11-18-15-26-4-7v-2l-5 5-10 13-1 35h-29z" fill="#335873" /><path transform="translate(609,1397)" d="m0 0h19l8 4 5 5 4 6 3 10 1 8v66h-29l-1-63-2-7-1-3-4-1h-8l-10 5-3 3-1 66h-29v-97h23l2 6v6l16-11z" fill="#335873" /><path transform="translate(1393,1397)" d="m0 0h23l12 5 8 7 5 10 2 7 1 12v57l-1 1h-23l-1-2v-7l-9 5-12 6-5 1h-9l-11-4-6-5-5-8-2-7v-12l4-10 8-8 10-5 14-4 18-3-3-9-5-3-9-1-12 3-10 5h-2l-10-18 5-4 16-7zm18 54-15 4-7 6-1 2v8l4 4 2 1h10l8-5 3-4v-14l-1-2z" fill="#335974" /><path transform="translate(756,1397)" d="m0 0h24l12 5 6 5 6 10 3 11v68h-23l-1-1-1-7-5 2-10 6-10 3h-9l-9-3-8-6-5-8-2-6v-14l4-9 4-5 11-7 12-4 23-4-3-8-3-3-6-2-11 1-15 6h-4l-8-15v-4l17-8zm18 54-16 5-5 5-2 4 1 6 4 4 2 1h9l8-4 3-3v-18z" fill="#335873" /><path transform="translate(1571,1397)" d="m0 0h24l12 5 7 6 5 9 2 5 1 6 1 67-1 1h-23l-1-1-1-7h-3l-8 6-9 4-13 1-10-3-8-6-6-10-1-4v-14l5-10 7-7 10-5 14-4 19-3-5-10-9-3-10 1-13 5-5 2-9-16 1-4 16-8zm19 54-15 4-7 6-2 7 2 5 5 3h10l9-6 2-4-1-15z" fill="#335873" /><path transform="translate(1091,1399)" d="m0 0h29l3 7 12 36 7 24 1 1 3-15 11-41 4-12h28l-12 36-15 44-8 22-8 16-7 8-8 6-10 3h-19l-3-1 1-8 3-14 2-1 7 1 9-3 5-7 1-3v-7l-36-91z" fill="#335873" /><path transform="translate(1030,1397)" d="m0 0h21l10 4 8 6 7 9 5 15 1 14-1 10-1 1h-58l4 9 6 7 7 3 10 1 10-2 10-4 9 16v2l-16 8-15 3-16-1-13-5-8-6-7-7-6-12-2-6-1-7v-14l2-10 5-12 7-9 8-7 11-5zm4 22-8 6-4 9v3h35l-1-9-4-6-4-3z" fill="#335873" /><path transform="translate(1477,1373)" d="m0 0h24v26h23v22h-23l1 46 3 5 5 3h8l4-1 2 3 3 14-1 5-16 3h-8l-10-2-10-6-6-8-3-8-1-7v-47l-9 1-4-1-1-7 1-14 14-2 3-22z" fill="#325873" /><path transform="translate(788,511)" d="m0 0h8l9 3 7 8 1 2v14l-5 12-9 13-11 12-9 10-19 19-1 2h-2l-2 4-7 7-11 14-9 11v-3l10-18 12-23 8-21 3-14 3-27 4-11 7-8 6-4z" fill="#57AFCC" /><path transform="translate(1322,1133)" d="m0 0v3l-10 17-10 19-8 17-5 15-3 17-2 19-2 9-5 9-8 6-8 3h-9l-9-3-5-5-4-8 1-11 5-12 10-14 10-11 6-7 7-6 7-8 10-10 9-11 11-12z" fill="#57AFCC" /><path transform="translate(674,1399)" d="m0 0h28l1 2v94l-1 1h-28l-1-24v-72z" fill="#325772" /><path transform="translate(1017,691)" d="m0 0h26l14 2 16 5 11 6 7 6v5l-4 3h-9l-28-9-31-6-17-2h-26l-26 3h-7l3-2 23-5 32-5z" fill="#FDFDFD" /><path transform="translate(961,1060)" d="m0 0 8 1 39 11 15 3 16 2h41l8-1h10l-3 2-23 5-21 3-11 1h-38l-24-5-14-7-7-6v-6z" fill="#FDFDFD" /><path transform="translate(914,541)" d="m0 0h24l10 3 9 5 5 6-2 3h-10l-17-4-13-2h-23l-22 4-19 5-4-1 16-7 21-7 18-4z" fill="#FDFDFD" /><path transform="translate(686,1354)" d="m0 0 9 1 6 4 3 5 1 7-3 7-6 5-2 1h-12l-7-4-4-7v-7l3-6 5-4z" fill="#335A75" /><path transform="translate(1189,1218)" d="m0 0h5l-4 3-19 7-17 5-14 3-8 1h-19l-13-3-10-5-4-4 1-4 1-1 10 1 16 4 13 2h15l27-4z" fill="#FDFDFD" /><path transform="translate(941,607)" d="m0 0h34l16 3 12 5 9 6 2 2v5l-2 1h-7l-26-10-19-5-13-2-26-1 1-2z" fill="#FDFDFD" /><path transform="translate(1036,1149)" d="m0 0 8 1 26 10 20 5 13 2 18 2-3 2-9 1h-29l-20-3-14-5-8-5-4-4 1-5z" fill="#FDFDFD" /><path transform="translate(788,515)" d="m0 0 4 1-2 4-8 6-6 7-4 8-3 11h-2l1-15 3-9 8-9z" fill="#FDFDFD" /><path transform="translate(664,573)" d="m0 0 8 1 5 3v4l-21 1-10 6-4 3 1-4 7-8 10-5z" fill="#FDFDFD" /><path transform="translate(1279,1228)" d="m0 0h1v10l-3 11-7 9-7 4h-7l2-4 6-4h2l2-4 7-10z" fill="#FDFDFD" /><path transform="translate(1402,1190)" d="m0 0h2l-2 5-7 6-7 3-7 1-8-2-3-3v-2l18-1 8-3z" fill="#FDFDFD" /><path transform="translate(726,642)" d="m0 0v3z" fill="#57AFCC" /><path transform="translate(1323,1131)" d="m0 0" fill="#57AFCC" /><path transform="translate(671,752)" d="m0 0" fill="#FDFDFD" /><path transform="translate(724,645)" d="m0 0" fill="#57AFCC" /><path transform="translate(836,1219)" d="m0 0" fill="#57AFCC" /><path transform="translate(1324,1130)" d="m0 0" fill="#57AFCC" /><path transform="translate(721,650)" d="m0 0" fill="#57AFCC" /><path transform="translate(722,648)" d="m0 0" fill="#57AFCC" /><path transform="translate(723,647)" d="m0 0" fill="#57AFCC" /><path transform="translate(1210,558)" d="m0 0" fill="#57AFCC" /></svg>