<?xml version="1.0" encoding="UTF-8"?>
<svg xmlns="http://www.w3.org/2000/svg" xmlns:xlink="http://www.w3.org/1999/xlink" width="24px" height="24px" viewBox="0 0 24 24" version="1.1">
<g id="surface1">
<path style=" stroke:none;fill-rule:nonzero;fill:rgb(33.333333%,68.235294%,80.392157%);fill-opacity:1;" d="M 10.96875 7.007812 L 11.378906 7.007812 L 11.613281 7.03125 L 11.789062 7.078125 L 11.917969 7.160156 L 12 7.253906 L 12.046875 7.347656 L 12.058594 7.394531 L 12.058594 7.488281 L 12.023438 7.605469 L 11.941406 7.710938 L 11.824219 7.78125 L 11.695312 7.828125 L 11.53125 7.851562 L 11.34375 7.851562 L 11.050781 7.792969 L 10.851562 7.746094 L 10.710938 7.722656 L 10.582031 7.710938 L 10.40625 7.710938 L 10.113281 7.769531 L 9.890625 7.851562 L 9.761719 7.933594 L 9.703125 7.980469 L 9.632812 8.085938 L 9.621094 8.109375 L 9.621094 8.214844 L 9.667969 8.273438 L 9.796875 8.320312 L 9.890625 8.332031 L 9.996094 8.332031 L 10.265625 8.296875 L 10.617188 8.214844 L 11.285156 8.050781 L 11.589844 8.003906 L 11.917969 7.96875 L 12.257812 7.96875 L 12.492188 8.003906 L 12.632812 8.050781 L 12.761719 8.121094 L 12.878906 8.214844 L 12.972656 8.320312 L 13.042969 8.4375 L 13.089844 8.589844 L 13.089844 8.765625 L 13.054688 8.882812 L 12.984375 8.988281 L 12.925781 9.046875 L 12.832031 9.105469 L 12.714844 9.152344 L 12.597656 9.175781 L 12.269531 9.175781 L 11.847656 9.09375 L 11.273438 8.976562 L 11.121094 8.953125 L 10.933594 8.941406 L 10.769531 8.941406 L 10.464844 8.988281 L 10.148438 9.082031 L 9.84375 9.210938 L 9.65625 9.316406 L 9.46875 9.445312 L 9.363281 9.527344 L 9.222656 9.65625 L 9.105469 9.773438 L 9 9.902344 L 8.882812 10.066406 L 8.753906 10.277344 L 8.660156 10.476562 L 8.554688 10.769531 L 8.496094 11.039062 L 8.460938 11.355469 L 8.460938 11.765625 L 8.507812 12.128906 L 8.578125 12.433594 L 8.660156 12.703125 L 8.765625 12.960938 L 8.90625 13.253906 L 9.023438 13.453125 L 9.1875 13.6875 L 9.316406 13.839844 L 9.398438 13.933594 L 9.503906 14.039062 L 9.761719 14.25 L 9.796875 14.285156 L 9.738281 14.261719 L 9.574219 14.167969 L 9.375 14.027344 L 9.210938 13.898438 L 9.046875 13.757812 L 8.894531 13.617188 L 8.753906 13.476562 L 8.648438 13.347656 L 8.542969 13.230469 L 8.378906 13.007812 L 8.226562 12.773438 L 8.097656 12.550781 L 7.992188 12.351562 L 7.863281 12.046875 L 7.78125 11.8125 L 7.699219 11.53125 L 7.628906 11.191406 L 7.582031 10.828125 L 7.570312 10.664062 L 7.570312 10.277344 L 7.59375 9.972656 L 7.640625 9.644531 L 7.710938 9.328125 L 7.78125 9.117188 L 7.886719 8.894531 L 8.015625 8.683594 L 8.167969 8.472656 L 8.296875 8.320312 L 8.425781 8.179688 L 8.519531 8.097656 L 8.601562 8.015625 L 8.71875 7.921875 L 8.871094 7.804688 L 9.058594 7.675781 L 9.304688 7.535156 L 9.621094 7.371094 L 9.867188 7.265625 L 10.21875 7.148438 L 10.511719 7.078125 L 10.863281 7.019531 Z M 10.96875 7.007812 "/>
<path style=" stroke:none;fill-rule:nonzero;fill:rgb(33.333333%,68.235294%,80.392157%);fill-opacity:1;" d="M 14.191406 6.550781 L 14.25 6.574219 L 14.425781 6.679688 L 14.625 6.820312 L 14.789062 6.949219 L 14.964844 7.101562 L 15.140625 7.265625 L 15.316406 7.453125 L 15.445312 7.605469 L 15.609375 7.828125 L 15.726562 8.003906 L 15.855469 8.214844 L 16.019531 8.53125 L 16.136719 8.8125 L 16.265625 9.199219 L 16.347656 9.550781 L 16.394531 9.855469 L 16.417969 10.125 L 16.417969 10.664062 L 16.382812 11.003906 L 16.324219 11.332031 L 16.253906 11.601562 L 16.125 11.90625 L 16.019531 12.09375 L 15.890625 12.28125 L 15.761719 12.433594 L 15.65625 12.5625 L 15.421875 12.796875 L 15.292969 12.902344 L 15.140625 13.019531 L 14.894531 13.183594 L 14.636719 13.335938 L 14.273438 13.511719 L 13.992188 13.617188 L 13.734375 13.699219 L 13.417969 13.769531 L 13.125 13.816406 L 13.019531 13.828125 L 12.503906 13.828125 L 12.292969 13.792969 L 12.152344 13.734375 L 12.058594 13.664062 L 11.976562 13.558594 L 11.941406 13.464844 L 11.941406 13.324219 L 11.976562 13.230469 L 12.082031 13.113281 L 12.246094 13.03125 L 12.375 12.996094 L 12.667969 12.996094 L 12.960938 13.054688 L 13.230469 13.113281 L 13.5 13.136719 L 13.710938 13.113281 L 13.910156 13.066406 L 14.0625 13.007812 L 14.226562 12.914062 L 14.332031 12.820312 L 14.378906 12.726562 L 14.378906 12.644531 L 14.332031 12.574219 L 14.214844 12.527344 L 14.132812 12.515625 L 13.898438 12.515625 L 13.664062 12.550781 L 13.253906 12.65625 L 12.878906 12.75 L 12.527344 12.820312 L 12.28125 12.855469 L 12.152344 12.867188 L 11.660156 12.867188 L 11.472656 12.832031 L 11.320312 12.773438 L 11.203125 12.703125 L 11.085938 12.597656 L 10.992188 12.480469 L 10.933594 12.351562 L 10.898438 12.210938 L 10.898438 12.105469 L 10.933594 11.964844 L 11.003906 11.859375 L 11.085938 11.777344 L 11.179688 11.71875 L 11.320312 11.671875 L 11.390625 11.660156 L 11.71875 11.660156 L 12.09375 11.730469 L 12.527344 11.824219 L 12.878906 11.882812 L 13.148438 11.894531 L 13.394531 11.871094 L 13.675781 11.8125 L 13.957031 11.71875 L 14.203125 11.601562 L 14.4375 11.460938 L 14.589844 11.34375 L 14.753906 11.203125 L 14.90625 11.050781 L 15 10.933594 L 15.152344 10.722656 L 15.28125 10.488281 L 15.375 10.265625 L 15.433594 10.089844 L 15.492188 9.84375 L 15.527344 9.585938 L 15.539062 9.375 L 15.539062 9.246094 L 15.515625 8.90625 L 15.46875 8.625 L 15.398438 8.34375 L 15.304688 8.0625 L 15.210938 7.839844 L 15.117188 7.640625 L 14.929688 7.324219 L 14.789062 7.136719 L 14.683594 7.007812 L 14.554688 6.867188 L 14.414062 6.726562 L 14.226562 6.585938 Z M 14.191406 6.550781 "/>
<path style=" stroke:none;fill-rule:nonzero;fill:rgb(99.607843%,99.607843%,99.607843%);fill-opacity:1;" d="M 9.621094 9.585938 L 9.644531 9.597656 L 9.5625 9.726562 L 9.433594 9.996094 L 9.375 10.207031 L 9.351562 10.371094 L 9.351562 10.605469 L 9.386719 10.828125 L 9.480469 11.109375 L 9.574219 11.296875 L 9.679688 11.484375 L 9.820312 11.683594 L 9.925781 11.8125 L 10.078125 11.988281 L 10.242188 12.152344 L 10.300781 12.222656 L 10.394531 12.304688 L 10.570312 12.46875 L 10.699219 12.574219 L 10.816406 12.679688 L 10.96875 12.796875 L 11.085938 12.902344 L 11.191406 13.007812 L 11.308594 13.160156 L 11.402344 13.3125 L 11.507812 13.535156 L 11.566406 13.746094 L 11.589844 13.898438 L 11.589844 14.132812 L 11.554688 14.308594 L 11.496094 14.4375 L 11.425781 14.542969 L 11.332031 14.625 L 11.214844 14.683594 L 11.050781 14.71875 L 10.945312 14.71875 L 10.757812 14.683594 L 10.558594 14.625 L 10.265625 14.507812 L 10.042969 14.390625 L 9.820312 14.238281 L 9.65625 14.109375 L 9.492188 13.96875 L 9.328125 13.792969 L 9.234375 13.675781 L 9.117188 13.511719 L 8.976562 13.289062 L 8.824219 12.984375 L 8.71875 12.703125 L 8.636719 12.398438 L 8.589844 12.140625 L 8.566406 11.941406 L 8.566406 11.460938 L 8.601562 11.191406 L 8.671875 10.898438 L 8.742188 10.6875 L 8.847656 10.453125 L 8.964844 10.253906 L 9.128906 10.03125 L 9.257812 9.890625 L 9.363281 9.785156 L 9.527344 9.65625 Z M 9.621094 9.585938 "/>
<path style=" stroke:none;fill-rule:nonzero;fill:rgb(99.607843%,99.607843%,99.607843%);fill-opacity:1;" d="M 12.9375 6.117188 L 13.042969 6.117188 L 13.242188 6.152344 L 13.429688 6.210938 L 13.675781 6.304688 L 13.910156 6.421875 L 14.15625 6.585938 L 14.308594 6.703125 L 14.472656 6.84375 L 14.566406 6.9375 L 14.648438 7.03125 L 14.789062 7.207031 L 14.953125 7.453125 L 15.070312 7.664062 L 15.1875 7.910156 L 15.292969 8.203125 L 15.375 8.542969 L 15.421875 8.882812 L 15.421875 9.375 L 15.386719 9.65625 L 15.316406 9.949219 L 15.234375 10.183594 L 15.09375 10.476562 L 14.976562 10.652344 L 14.859375 10.804688 L 14.753906 10.921875 L 14.613281 11.0625 L 14.449219 11.191406 L 14.378906 11.25 L 14.355469 11.238281 L 14.472656 11.027344 L 14.554688 10.839844 L 14.613281 10.640625 L 14.636719 10.488281 L 14.636719 10.21875 L 14.601562 10.007812 L 14.542969 9.820312 L 14.460938 9.632812 L 14.378906 9.46875 L 14.214844 9.222656 L 14.109375 9.082031 L 13.980469 8.929688 L 13.875 8.8125 L 13.523438 8.460938 L 13.394531 8.355469 L 13.230469 8.203125 L 13.113281 8.109375 L 12.960938 7.980469 L 12.84375 7.875 L 12.691406 7.6875 L 12.597656 7.535156 L 12.492188 7.3125 L 12.433594 7.125 L 12.398438 6.890625 L 12.398438 6.75 L 12.433594 6.550781 L 12.492188 6.410156 L 12.5625 6.304688 L 12.644531 6.222656 L 12.808594 6.140625 Z M 12.9375 6.117188 "/>
<path style=" stroke:none;fill-rule:nonzero;fill:rgb(33.333333%,68.235294%,80.392157%);fill-opacity:1;" d="M 16.125 12 L 16.136719 12.023438 L 16.007812 12.316406 L 15.84375 12.644531 L 15.691406 12.890625 L 15.539062 13.101562 L 15.386719 13.289062 L 15.28125 13.40625 L 15.199219 13.5 L 15.035156 13.664062 L 14.941406 13.746094 L 14.777344 13.886719 L 14.566406 14.039062 L 14.355469 14.179688 L 14.144531 14.308594 L 13.921875 14.414062 L 13.699219 14.496094 L 13.453125 14.554688 L 13.183594 14.589844 L 13.019531 14.589844 L 12.855469 14.542969 L 12.726562 14.460938 L 12.644531 14.367188 L 12.621094 14.308594 L 12.621094 14.203125 L 12.667969 14.109375 L 12.773438 14.027344 L 12.949219 13.945312 L 13.230469 13.898438 L 13.570312 13.851562 L 13.886719 13.78125 L 14.191406 13.675781 L 14.484375 13.546875 L 14.730469 13.417969 L 15.011719 13.230469 L 15.199219 13.089844 L 15.328125 12.984375 L 15.445312 12.878906 L 15.539062 12.796875 L 15.703125 12.621094 L 15.832031 12.457031 L 15.972656 12.257812 L 16.089844 12.058594 Z M 16.125 12 "/>
<path style=" stroke:none;fill-rule:nonzero;fill:rgb(33.333333%,68.235294%,80.392157%);fill-opacity:1;" d="M 10.722656 6.257812 L 11.003906 6.257812 L 11.15625 6.304688 L 11.261719 6.375 L 11.355469 6.480469 L 11.378906 6.550781 L 11.367188 6.65625 L 11.320312 6.738281 L 11.238281 6.808594 L 11.085938 6.878906 L 10.886719 6.925781 L 10.417969 6.984375 L 10.160156 7.042969 L 9.890625 7.125 L 9.585938 7.253906 L 9.398438 7.347656 L 9.1875 7.464844 L 9 7.59375 L 8.824219 7.722656 L 8.695312 7.828125 L 8.578125 7.933594 L 8.425781 8.074219 L 8.332031 8.167969 L 8.226562 8.296875 L 8.074219 8.496094 L 7.921875 8.742188 L 7.886719 8.8125 L 7.875 8.777344 L 7.980469 8.542969 L 8.15625 8.191406 L 8.308594 7.945312 L 8.460938 7.734375 L 8.613281 7.546875 L 8.730469 7.417969 L 8.8125 7.324219 L 9 7.136719 L 9.09375 7.054688 L 9.269531 6.914062 L 9.480469 6.761719 L 9.679688 6.632812 L 9.84375 6.539062 L 10.03125 6.445312 L 10.3125 6.339844 L 10.558594 6.28125 Z M 10.722656 6.257812 "/>
<path style=" stroke:none;fill-rule:nonzero;fill:rgb(99.607843%,99.607843%,99.607843%);fill-opacity:1;" d="M 10.359375 16.359375 L 10.511719 16.371094 L 10.605469 16.417969 L 10.664062 16.476562 L 10.699219 16.523438 L 10.699219 16.546875 L 10.863281 16.417969 L 10.96875 16.371094 L 11.097656 16.359375 L 11.214844 16.382812 L 11.320312 16.453125 L 11.390625 16.570312 L 11.414062 16.640625 L 11.425781 16.722656 L 11.425781 17.53125 L 11.085938 17.53125 L 11.074219 16.769531 L 11.039062 16.6875 L 10.992188 16.664062 L 10.886719 16.675781 L 10.804688 16.722656 L 10.769531 16.757812 L 10.757812 17.519531 L 10.746094 17.53125 L 10.417969 17.53125 L 10.40625 17.519531 L 10.394531 16.746094 L 10.347656 16.675781 L 10.324219 16.664062 L 10.242188 16.664062 L 10.125 16.722656 L 10.089844 16.769531 L 10.078125 17.53125 L 9.738281 17.53125 L 9.738281 16.394531 L 10.019531 16.394531 L 10.042969 16.523438 L 10.101562 16.488281 L 10.207031 16.40625 L 10.289062 16.371094 Z M 10.359375 16.359375 "/>
<path style=" stroke:none;fill-rule:nonzero;fill:rgb(99.607843%,99.607843%,99.607843%);fill-opacity:1;" d="M 5.507812 16.007812 L 5.765625 16.007812 L 5.929688 16.054688 L 6.058594 16.136719 L 6.175781 16.253906 L 6.269531 16.441406 L 6.304688 16.570312 L 6.316406 16.640625 L 6.316406 16.910156 L 6.269531 17.121094 L 6.1875 17.285156 L 6.082031 17.402344 L 5.976562 17.484375 L 5.824219 17.542969 L 5.683594 17.566406 L 5.566406 17.566406 L 5.402344 17.53125 L 5.238281 17.449219 L 5.144531 17.367188 L 5.0625 17.25 L 4.992188 17.097656 L 4.957031 16.945312 L 4.945312 16.746094 L 4.96875 16.546875 L 5.027344 16.371094 L 5.097656 16.253906 L 5.191406 16.148438 L 5.320312 16.066406 L 5.449219 16.019531 Z M 5.566406 16.300781 L 5.484375 16.335938 L 5.390625 16.417969 L 5.332031 16.535156 L 5.308594 16.628906 L 5.296875 16.792969 L 5.320312 16.980469 L 5.367188 17.109375 L 5.472656 17.226562 L 5.542969 17.261719 L 5.648438 17.273438 L 5.753906 17.25 L 5.824219 17.203125 L 5.894531 17.121094 L 5.953125 16.96875 L 5.964844 16.898438 L 5.964844 16.652344 L 5.929688 16.511719 L 5.859375 16.394531 L 5.789062 16.335938 L 5.695312 16.300781 Z M 5.566406 16.300781 "/>
<path style=" stroke:none;fill-rule:nonzero;fill:rgb(33.333333%,68.235294%,80.392157%);fill-opacity:1;" d="M 16.453125 10.464844 L 16.464844 10.464844 L 16.464844 11.109375 L 16.429688 11.472656 L 16.335938 12.09375 L 16.289062 12.421875 L 16.277344 12.574219 L 16.277344 13.007812 L 16.3125 13.183594 L 16.382812 13.359375 L 16.523438 13.617188 L 16.546875 13.699219 L 16.546875 13.851562 L 16.511719 13.96875 L 16.441406 14.0625 L 16.359375 14.132812 L 16.277344 14.167969 L 16.113281 14.167969 L 15.996094 14.109375 L 15.914062 14.039062 L 15.820312 13.910156 L 15.726562 13.722656 L 15.679688 13.558594 L 15.679688 13.300781 L 15.726562 13.136719 L 15.832031 12.890625 L 15.960938 12.609375 L 16.113281 12.222656 L 16.230469 11.859375 L 16.335938 11.425781 L 16.394531 11.074219 L 16.441406 10.59375 Z M 16.453125 10.464844 "/>
<path style=" stroke:none;fill-rule:nonzero;fill:rgb(33.333333%,68.235294%,80.392157%);fill-opacity:1;" d="M 7.734375 6.667969 L 7.851562 6.667969 L 7.96875 6.714844 L 8.085938 6.820312 L 8.15625 6.902344 L 8.25 7.066406 L 8.308594 7.242188 L 8.320312 7.3125 L 8.320312 7.511719 L 8.273438 7.699219 L 8.167969 7.933594 L 8.003906 8.296875 L 7.875 8.636719 L 7.78125 8.917969 L 7.6875 9.269531 L 7.617188 9.621094 L 7.570312 9.996094 L 7.546875 10.394531 L 7.535156 10.394531 L 7.523438 10.242188 L 7.523438 9.855469 L 7.546875 9.515625 L 7.605469 9.082031 L 7.6875 8.554688 L 7.722656 8.191406 L 7.722656 7.886719 L 7.6875 7.664062 L 7.617188 7.488281 L 7.523438 7.3125 L 7.476562 7.230469 L 7.441406 7.089844 L 7.453125 6.972656 L 7.5 6.855469 L 7.570312 6.761719 L 7.664062 6.691406 Z M 7.734375 6.667969 "/>
<path style=" stroke:none;fill-rule:nonzero;fill:rgb(99.607843%,99.607843%,99.607843%);fill-opacity:1;" d="M 14.601562 16.03125 L 14.941406 16.03125 L 14.953125 16.628906 L 15.09375 16.441406 L 15.246094 16.230469 L 15.386719 16.042969 L 15.398438 16.03125 L 15.761719 16.03125 L 15.738281 16.078125 L 15.574219 16.300781 L 15.421875 16.5 L 15.328125 16.617188 L 15.351562 16.675781 L 15.527344 16.980469 L 15.84375 17.507812 L 15.84375 17.53125 L 15.480469 17.53125 L 15.375 17.367188 L 15.1875 17.039062 L 15.117188 16.921875 L 15.058594 16.980469 L 14.953125 17.121094 L 14.941406 17.53125 L 14.601562 17.53125 Z M 14.601562 16.03125 "/>
<path style=" stroke:none;fill-rule:nonzero;fill:rgb(99.607843%,99.607843%,99.607843%);fill-opacity:1;" d="M 7.21875 16.359375 L 7.359375 16.371094 L 7.476562 16.429688 L 7.546875 16.523438 L 7.582031 16.605469 L 7.605469 16.734375 L 7.605469 17.53125 L 7.265625 17.53125 L 7.253906 16.804688 L 7.21875 16.699219 L 7.171875 16.664062 L 7.078125 16.664062 L 6.960938 16.722656 L 6.925781 16.757812 L 6.914062 17.53125 L 6.574219 17.53125 L 6.574219 16.394531 L 6.855469 16.394531 L 6.867188 16.453125 L 6.867188 16.535156 L 7.03125 16.417969 L 7.136719 16.371094 Z M 7.21875 16.359375 "/>
<path style=" stroke:none;fill-rule:nonzero;fill:rgb(99.607843%,99.607843%,99.607843%);fill-opacity:1;" d="M 18.515625 16.359375 L 18.691406 16.371094 L 18.808594 16.417969 L 18.902344 16.488281 L 18.972656 16.59375 L 19.007812 16.722656 L 19.019531 16.980469 L 19.019531 17.519531 L 19.007812 17.53125 L 18.738281 17.53125 L 18.726562 17.519531 L 18.714844 17.4375 L 18.691406 17.4375 L 18.5625 17.519531 L 18.480469 17.554688 L 18.421875 17.566406 L 18.328125 17.566406 L 18.234375 17.542969 L 18.140625 17.484375 L 18.082031 17.414062 L 18.035156 17.308594 L 18.035156 17.132812 L 18.082031 17.027344 L 18.128906 16.96875 L 18.257812 16.886719 L 18.445312 16.828125 L 18.65625 16.792969 L 18.65625 16.746094 L 18.621094 16.675781 L 18.515625 16.640625 L 18.410156 16.652344 L 18.28125 16.699219 L 18.210938 16.734375 L 18.175781 16.722656 L 18.070312 16.523438 L 18.105469 16.488281 L 18.28125 16.40625 L 18.410156 16.371094 Z M 18.632812 17.003906 L 18.492188 17.039062 L 18.398438 17.097656 L 18.363281 17.144531 L 18.363281 17.238281 L 18.410156 17.285156 L 18.433594 17.296875 L 18.539062 17.296875 L 18.632812 17.25 L 18.667969 17.203125 L 18.667969 17.003906 Z M 18.632812 17.003906 "/>
<path style=" stroke:none;fill-rule:nonzero;fill:rgb(99.607843%,99.607843%,99.607843%);fill-opacity:1;" d="M 16.417969 16.359375 L 16.59375 16.371094 L 16.699219 16.40625 L 16.792969 16.476562 L 16.863281 16.570312 L 16.910156 16.710938 L 16.921875 16.816406 L 16.921875 17.519531 L 16.910156 17.53125 L 16.640625 17.53125 L 16.617188 17.4375 L 16.558594 17.460938 L 16.441406 17.53125 L 16.335938 17.566406 L 16.21875 17.566406 L 16.113281 17.53125 L 16.019531 17.460938 L 15.949219 17.34375 L 15.9375 17.296875 L 15.9375 17.144531 L 15.984375 17.027344 L 16.078125 16.933594 L 16.21875 16.863281 L 16.40625 16.816406 L 16.570312 16.792969 L 16.535156 16.6875 L 16.476562 16.652344 L 16.382812 16.640625 L 16.242188 16.675781 L 16.113281 16.734375 L 16.078125 16.722656 L 15.972656 16.523438 L 16.007812 16.488281 L 16.183594 16.40625 L 16.3125 16.371094 Z M 16.535156 17.003906 L 16.371094 17.050781 L 16.300781 17.097656 L 16.265625 17.144531 L 16.265625 17.226562 L 16.289062 17.273438 L 16.335938 17.296875 L 16.441406 17.296875 L 16.535156 17.25 L 16.570312 17.214844 L 16.582031 17.179688 L 16.582031 17.027344 L 16.570312 17.003906 Z M 16.535156 17.003906 "/>
<path style=" stroke:none;fill-rule:nonzero;fill:rgb(99.607843%,99.607843%,99.607843%);fill-opacity:1;" d="M 8.964844 16.359375 L 9.140625 16.371094 L 9.28125 16.429688 L 9.363281 16.5 L 9.421875 16.605469 L 9.457031 16.722656 L 9.457031 17.53125 L 9.1875 17.53125 L 9.175781 17.519531 L 9.164062 17.4375 L 9.105469 17.460938 L 8.964844 17.542969 L 8.882812 17.566406 L 8.765625 17.566406 L 8.660156 17.53125 L 8.566406 17.460938 L 8.507812 17.378906 L 8.484375 17.308594 L 8.484375 17.121094 L 8.542969 17.003906 L 8.636719 16.921875 L 8.765625 16.863281 L 8.953125 16.816406 L 9.117188 16.792969 L 9.082031 16.699219 L 9.023438 16.652344 L 8.917969 16.640625 L 8.777344 16.675781 L 8.660156 16.734375 L 8.625 16.722656 L 8.519531 16.535156 L 8.53125 16.5 L 8.730469 16.40625 L 8.859375 16.371094 Z M 9.082031 17.003906 L 8.90625 17.050781 L 8.824219 17.121094 L 8.800781 17.191406 L 8.835938 17.273438 L 8.882812 17.296875 L 8.988281 17.296875 L 9.058594 17.261719 L 9.117188 17.203125 L 9.117188 17.003906 Z M 9.082031 17.003906 "/>
<path style=" stroke:none;fill-rule:nonzero;fill:rgb(99.607843%,99.607843%,99.607843%);fill-opacity:1;" d="M 12.785156 16.394531 L 13.136719 16.394531 L 13.3125 16.933594 L 13.382812 17.179688 L 13.394531 17.191406 L 13.429688 17.003906 L 13.558594 16.535156 L 13.59375 16.40625 L 13.605469 16.394531 L 13.933594 16.394531 L 13.792969 16.816406 L 13.558594 17.507812 L 13.464844 17.71875 L 13.394531 17.824219 L 13.300781 17.917969 L 13.195312 17.964844 L 13.148438 17.976562 L 12.914062 17.976562 L 12.878906 17.964844 L 12.890625 17.859375 L 12.925781 17.707031 L 12.949219 17.695312 L 13.089844 17.695312 L 13.148438 17.660156 L 13.207031 17.554688 L 13.207031 17.472656 L 12.960938 16.851562 L 12.785156 16.40625 Z M 12.785156 16.394531 "/>
<path style=" stroke:none;fill-rule:nonzero;fill:rgb(99.607843%,99.607843%,99.607843%);fill-opacity:1;" d="M 12.152344 16.359375 L 12.328125 16.371094 L 12.433594 16.417969 L 12.503906 16.464844 L 12.597656 16.570312 L 12.65625 16.710938 L 12.679688 16.875 L 12.667969 17.050781 L 12.65625 17.0625 L 11.976562 17.0625 L 12.046875 17.203125 L 12.140625 17.273438 L 12.175781 17.285156 L 12.375 17.285156 L 12.492188 17.238281 L 12.539062 17.238281 L 12.609375 17.378906 L 12.632812 17.4375 L 12.445312 17.53125 L 12.28125 17.566406 L 12.164062 17.566406 L 12.035156 17.542969 L 11.871094 17.460938 L 11.824219 17.425781 L 11.824219 17.402344 L 11.800781 17.402344 L 11.71875 17.285156 L 11.660156 17.132812 L 11.648438 17.0625 L 11.648438 16.875 L 11.683594 16.722656 L 11.753906 16.59375 L 11.859375 16.476562 L 11.976562 16.40625 L 12.070312 16.371094 Z M 12.117188 16.628906 L 12.035156 16.6875 L 11.976562 16.804688 L 11.976562 16.839844 L 12.386719 16.839844 L 12.375 16.734375 L 12.328125 16.664062 L 12.269531 16.628906 Z M 12.117188 16.628906 "/>
<path style=" stroke:none;fill-rule:nonzero;fill:rgb(99.607843%,99.607843%,99.607843%);fill-opacity:1;" d="M 17.308594 16.089844 L 17.589844 16.089844 L 17.589844 16.394531 L 17.859375 16.394531 L 17.871094 16.453125 L 17.871094 16.652344 L 17.789062 16.664062 L 17.601562 16.664062 L 17.601562 17.179688 L 17.636719 17.25 L 17.695312 17.285156 L 17.789062 17.285156 L 17.835938 17.273438 L 17.871094 17.355469 L 17.894531 17.460938 L 17.894531 17.519531 L 17.789062 17.554688 L 17.695312 17.566406 L 17.589844 17.566406 L 17.449219 17.53125 L 17.355469 17.460938 L 17.285156 17.355469 L 17.25 17.214844 L 17.25 16.652344 L 17.203125 16.664062 L 17.097656 16.664062 L 17.085938 16.640625 L 17.097656 16.40625 L 17.109375 16.394531 L 17.261719 16.382812 L 17.296875 16.101562 Z M 17.308594 16.089844 "/>
<path style=" stroke:none;fill-rule:nonzero;fill:rgb(33.333333%,68.235294%,80.392157%);fill-opacity:1;" d="M 9.234375 5.988281 L 9.328125 5.988281 L 9.433594 6.023438 L 9.515625 6.117188 L 9.527344 6.140625 L 9.527344 6.304688 L 9.46875 6.445312 L 9.363281 6.597656 L 9.234375 6.738281 L 9.128906 6.855469 L 8.90625 7.078125 L 8.894531 7.101562 L 8.871094 7.101562 L 8.847656 7.148438 L 8.765625 7.230469 L 8.636719 7.394531 L 8.53125 7.523438 L 8.53125 7.488281 L 8.648438 7.277344 L 8.789062 7.007812 L 8.882812 6.761719 L 8.917969 6.597656 L 8.953125 6.28125 L 9 6.152344 L 9.082031 6.058594 L 9.152344 6.011719 Z M 9.234375 5.988281 "/>
<path style=" stroke:none;fill-rule:nonzero;fill:rgb(33.333333%,68.235294%,80.392157%);fill-opacity:1;" d="M 15.492188 13.277344 L 15.492188 13.3125 L 15.375 13.511719 L 15.257812 13.734375 L 15.164062 13.933594 L 15.105469 14.109375 L 15.070312 14.308594 L 15.046875 14.53125 L 15.023438 14.636719 L 14.964844 14.742188 L 14.871094 14.8125 L 14.777344 14.847656 L 14.671875 14.847656 L 14.566406 14.8125 L 14.507812 14.753906 L 14.460938 14.660156 L 14.472656 14.53125 L 14.53125 14.390625 L 14.648438 14.226562 L 14.765625 14.097656 L 14.835938 14.015625 L 14.917969 13.945312 L 15 13.851562 L 15.117188 13.734375 L 15.222656 13.605469 L 15.351562 13.464844 Z M 15.492188 13.277344 "/>
<path style=" stroke:none;fill-rule:nonzero;fill:rgb(99.607843%,99.607843%,99.607843%);fill-opacity:1;" d="M 7.886719 16.394531 L 8.238281 16.394531 L 8.238281 17.519531 L 8.226562 17.53125 L 7.898438 17.53125 L 7.886719 17.519531 Z M 7.886719 16.394531 "/>
<path style=" stroke:none;fill-rule:nonzero;fill:rgb(99.607843%,99.607843%,99.607843%);fill-opacity:1;" d="M 12.035156 8.097656 L 12.152344 8.097656 L 12.363281 8.121094 L 12.5625 8.179688 L 12.679688 8.238281 L 12.773438 8.308594 L 12.785156 8.367188 L 12.726562 8.414062 L 12.609375 8.402344 L 12.269531 8.296875 L 11.90625 8.226562 L 11.824219 8.214844 L 11.589844 8.203125 L 11.296875 8.226562 L 11.203125 8.238281 L 11.097656 8.238281 L 11.132812 8.214844 L 11.507812 8.144531 L 11.789062 8.109375 Z M 12.035156 8.097656 "/>
<path style=" stroke:none;fill-rule:nonzero;fill:rgb(99.607843%,99.607843%,99.607843%);fill-opacity:1;" d="M 11.25 12.433594 L 11.34375 12.433594 L 11.753906 12.550781 L 11.964844 12.597656 L 12.117188 12.621094 L 12.257812 12.632812 L 12.574219 12.632812 L 12.691406 12.621094 L 12.808594 12.621094 L 12.773438 12.644531 L 12.621094 12.679688 L 12.257812 12.726562 L 11.707031 12.726562 L 11.496094 12.679688 L 11.34375 12.621094 L 11.25 12.550781 L 11.214844 12.515625 L 11.226562 12.457031 Z M 11.25 12.433594 "/>
<path style=" stroke:none;fill-rule:nonzero;fill:rgb(99.607843%,99.607843%,99.607843%);fill-opacity:1;" d="M 8.039062 15.867188 L 8.144531 15.878906 L 8.214844 15.925781 L 8.25 15.972656 L 8.261719 16.078125 L 8.214844 16.171875 L 8.132812 16.21875 L 7.980469 16.21875 L 7.910156 16.171875 L 7.875 16.125 L 7.863281 16.089844 L 7.863281 15.996094 L 7.910156 15.925781 L 7.980469 15.878906 Z M 8.039062 15.867188 "/>
<path style=" stroke:none;fill-rule:nonzero;fill:rgb(99.607843%,99.607843%,99.607843%);fill-opacity:1;" d="M 10.722656 6.339844 L 10.957031 6.339844 L 11.097656 6.375 L 11.214844 6.433594 L 11.261719 6.480469 L 11.261719 6.527344 L 11.238281 6.539062 L 11.15625 6.539062 L 10.898438 6.480469 L 10.816406 6.46875 L 10.488281 6.46875 L 10.277344 6.503906 L 10.054688 6.5625 L 10.019531 6.550781 L 10.207031 6.46875 L 10.476562 6.386719 L 10.652344 6.351562 Z M 10.722656 6.339844 "/>
<path style=" stroke:none;fill-rule:nonzero;fill:rgb(99.607843%,99.607843%,99.607843%);fill-opacity:1;" d="M 13.921875 14.285156 L 13.957031 14.296875 L 13.78125 14.367188 L 13.546875 14.4375 L 13.3125 14.484375 L 13.019531 14.484375 L 12.902344 14.460938 L 12.761719 14.390625 L 12.738281 14.367188 L 12.75 14.308594 L 12.796875 14.296875 L 13.019531 14.355469 L 13.265625 14.390625 L 13.429688 14.378906 L 13.710938 14.332031 Z M 13.921875 14.285156 "/>
<path style=" stroke:none;fill-rule:nonzero;fill:rgb(99.607843%,99.607843%,99.607843%);fill-opacity:1;" d="M 11.074219 7.113281 L 11.378906 7.113281 L 11.601562 7.148438 L 11.742188 7.207031 L 11.847656 7.277344 L 11.882812 7.3125 L 11.882812 7.359375 L 11.800781 7.371094 L 11.449219 7.242188 L 11.203125 7.183594 L 10.921875 7.148438 L 10.945312 7.125 Z M 11.074219 7.113281 "/>
<path style=" stroke:none;fill-rule:nonzero;fill:rgb(99.607843%,99.607843%,99.607843%);fill-opacity:1;" d="M 12.140625 13.464844 L 12.222656 13.476562 L 12.492188 13.582031 L 12.738281 13.652344 L 13.089844 13.699219 L 13.066406 13.722656 L 12.960938 13.734375 L 12.808594 13.734375 L 12.503906 13.710938 L 12.292969 13.652344 L 12.164062 13.582031 L 12.117188 13.523438 Z M 12.140625 13.464844 "/>
<path style=" stroke:none;fill-rule:nonzero;fill:rgb(99.607843%,99.607843%,99.607843%);fill-opacity:1;" d="M 9.199219 6.046875 L 9.28125 6.046875 L 9.269531 6.082031 L 9.175781 6.152344 L 9.152344 6.152344 L 9.152344 6.175781 L 9.128906 6.175781 L 9.035156 6.363281 L 9.011719 6.445312 L 9 6.445312 L 9 6.304688 L 9.046875 6.175781 L 9.117188 6.09375 Z M 9.199219 6.046875 "/>
<path style=" stroke:none;fill-rule:nonzero;fill:rgb(99.607843%,99.607843%,99.607843%);fill-opacity:1;" d="M 7.746094 6.726562 L 7.863281 6.726562 L 7.945312 6.773438 L 7.933594 6.808594 L 7.746094 6.808594 L 7.628906 6.84375 L 7.535156 6.902344 L 7.558594 6.84375 L 7.652344 6.761719 Z M 7.746094 6.726562 "/>
<path style=" stroke:none;fill-rule:nonzero;fill:rgb(99.607843%,99.607843%,99.607843%);fill-opacity:1;" d="M 14.988281 14.402344 L 15 14.402344 L 15 14.507812 L 14.964844 14.625 L 14.894531 14.71875 L 14.800781 14.789062 L 14.730469 14.789062 L 14.730469 14.753906 L 14.847656 14.671875 L 14.929688 14.554688 Z M 14.988281 14.402344 "/>
<path style=" stroke:none;fill-rule:nonzero;fill:rgb(99.607843%,99.607843%,99.607843%);fill-opacity:1;" d="M 16.441406 13.945312 L 16.441406 13.980469 L 16.382812 14.050781 L 16.289062 14.097656 L 16.242188 14.109375 L 16.125 14.109375 L 16.066406 14.074219 L 16.066406 14.039062 L 16.289062 14.027344 L 16.429688 13.957031 Z M 16.441406 13.945312 "/>
</g>
</svg>
