<?xml version="1.0" encoding="UTF-8"?>
<svg version="1.1" viewBox="0 0 2048 2048" width="1280" height="1280" xmlns="http://www.w3.org/2000/svg">
<path transform="translate(0)" d="m0 0h2048v2048h-2048z" fill="#17140D"/>
<path transform="translate(946,598)" d="m0 0h13l28 2 14 3 14 7 8 8 4 8 1 3v12l-3 9-7 8-14 8-11 3-18 1-16-2-35-8-13-2h-27l-22 5-14 5-12 6-10 9-5 8-1 8 3 6 10 5 4 1h22l25-4 64-16 23-5 44-5h34l14 2 16 5 11 6 10 9 7 8 6 10 3 10 1 14-3 12-5 9-9 8-10 5-16 4h-24l-28-5-51-11-26-4h-31l-22 4-27 8-19 8-21 11-19 13-10 8-14 13-7 8-10 12-11 16-9 16-7 15-8 22-5 22-3 22-1 17v18l2 22 4 25 6 24 10 29 12 26 9 17 7 11 12 17 13 16 21 21 10 8 7 4 4 4-6-2-7-4v-2l-5-2-22-15-17-14-8-7-10-9-21-21-9-11-14-18-11-16-11-18-12-22-10-22-8-21-8-26-5-21-5-30-2-25v-44l2-25 5-30 6-25 8-20 8-15 10-16 12-16 8-10 11-12h2v-2l8-7 8-8 14-11 12-9 20-13 18-10 15-8 20-9 24-9 25-7 24-5 27-4z" fill="#5AAFCC"/>
<path transform="translate(1220,565)" d="m0 0 5 2 11 7 19 14 11 9 10 9 12 11 13 13 9 11 9 10 13 18 10 15 11 18 14 27 11 27 10 31 8 36 4 33 1 25v25l-3 32-5 29-5 19-8 20-10 21-14 20-11 14-14 15-18 18-11 9-15 11-15 10-24 14-24 12-25 10-25 8-27 6-23 4-9 1-30 1-24-1-15-3-12-6-10-10-4-9-1-11 3-10 9-10 10-6 13-4 8-1h12l26 4 20 5 19 3h19l20-3 17-5 14-7 11-8 6-8 2-8-3-7-5-4-10-3-16-1-20 2-30 7-33 9-38 8-27 4-12 1h-35l-19-3-13-5-11-6-11-10-7-10-5-11-2-8v-15l4-12 7-9 10-7 12-5 16-2 22 1 31 6 42 9 26 4h30l20-3 25-6 21-8 25-13 15-10 13-10 16-15 10-11 15-20 11-19 8-17 10-30 4-20 2-19v-37l-3-27-5-24-4-15-9-27-13-29-14-24-10-15-7-9-9-11-14-15-12-11-6-4z" fill="#5AAFCC"/>
<path transform="translate(819,820)" d="m0 0h2l-2 5-12 23-6 18-2 9-1 10v21l4 22 5 15 8 18 8 14 10 15 12 16 13 15 15 16 9 9 8 7 13 12 11 9 14 12 14 11 13 13v2h2l13 19 8 15 7 19 3 13 1 7v21l-3 15-4 9-7 11-8 7-12 6-7 2h-16l-25-6-22-8-23-11-19-12-17-13-10-9-8-7-9-9-9-11-11-15-10-15-8-15-12-26-7-21-6-24-4-26-1-13v-35l3-23 5-23 5-16 8-19 11-21 13-18 9-10 7-8 14-13z" fill="#335772"/>
<path transform="translate(1104,522)" d="m0 0 16 1 23 6 21 8 16 8 15 8 19 13 14 12 10 9 7 8 10 11 14 19 14 22 13 27 7 19 7 25 5 31 1 10v45l-3 20-6 24-8 23-10 21-9 14-12 16-9 10-14 14-18 14v-3l12-24 7-21 3-16v-26l-4-20-5-15-11-23-11-18-12-16-8-10-9-10-7-8-22-22-8-7-13-12-8-7-17-14-14-12-10-11-11-15-12-23-6-20-3-19v-14l4-17 5-12 6-8 8-7 10-5z" fill="#335772"/>
<path transform="translate(469,1366)" d="m0 0h23l9 2 10 5 6 4 7 6 8 12 6 18 1 6v25l-5 19-7 14-8 9-11 7-14 5-7 1h-14l-13-3-12-6-11-10-8-13-5-15-2-16v-9l2-16 4-12 6-11 10-11 14-8z" fill="#FAFCFC"/>
<path transform="translate(1369,1037)" d="m0 0 1 3-13 28-9 17-9 14-12 17-13 16-12 14-24 24-8 7-15 12-14 10-15 10-18 11-12 6-25 10-26 6-13 2h-24l-12-4-10-6-6-7-2-4-1-9 3-7 5-6 12-7 11-4 26-4 33-5 23-6 20-7 25-11 25-13 21-14 12-9 14-11 12-11 8-7 11-12 11-13 13-18z" fill="#5AAFCC"/>
<path transform="translate(921,534)" d="m0 0h11l16 3 10 5 6 5 5 8 1 3v9l-4 7-8 7-10 5-16 4-40 5-23 5-20 6-21 8-33 16-16 10-15 10-13 10-10 8-10 9-12 11-7 8-10 11-1 2h-2l-2 5-12 16-5 8-3 7-6 11-1-3 4-10h2l3-9 16-32 11-18 13-19 10-13 11-13 9-10 25-25 14-11 19-14 20-13 14-8 19-9 22-8 22-5z" fill="#5AAFCC"/>
<path transform="translate(883,1396)" d="m0 0h9l12 4 5 4 4 6v2h3l2-4 12-9 10-3h9l11 4 6 4 6 9 3 12v71h-28l-1-3-1-63-3-6-3-2h-8l-4 2h-3v2l-4 3h-2v67h-29l-1-1-1-67-4-5-2-1h-8l-6 3h-2l-2 4-2 1-1 66h-28l-1-1v-95l1-1h23l1 2v10l15-11 7-3z" fill="#FAFCFC"/>
<path transform="translate(1403,917)" d="m0 0h1v28l-1 20-5 39-7 43-3 27v33l3 17 6 15 12 22 2 7v14l-3 11-6 8-5 4-11 4h-9l-9-3-10-9-9-12-7-15-3-11-1-8v-11l3-14 8-21 12-25 13-33 6-16 9-32 8-37 5-36z" fill="#5AAFCC"/>
<path transform="translate(1247,1368)" d="m0 0h28l1 51 14-19 13-18 10-13 1-1h31l-2 4-8 11-16 21-10 14 1 5 15 26 17 28 9 15 1 4h-31l-5-7-6-11-5-8-6-11-5-8-4-7-4 4-10 13-1 35h-29v-127z" fill="#FCFDFD"/>
<path transform="translate(657,571)" d="m0 0h15l7 3 6 4 9 9 7 11 5 12 3 12 1 14-3 16-5 13-13 28-12 29-9 25-9 30-8 35-4 26-3 21h-1v-23l2-27 4-29 8-52 3-30v-19l-2-18-5-17-8-16-6-10-2-5-1-12 3-13 6-9 7-6z" fill="#5AAFCC"/>
<path transform="translate(1578,1396)" d="m0 0h10l10 2 9 4 8 7 5 10 2 7 1 11v58l-1 1h-23l-2-9-11 7-9 4-3 1h-11l-9-3-6-4-6-7-3-8v-16l5-10 8-7 11-5 16-4 14-2-3-9-6-3h-14l-15 6-3 1-5-8-4-8v-4l17-8 11-3z" fill="#F8FBFC"/>
<path transform="translate(1398,1396)" d="m0 0h11l16 4 8 6 5 6 4 9 2 12v63h-24l-1-1v-8l-5 2-3 1v2l-5 1v2l-11 4h-11l-11-4-7-6-5-9-1-4v-14l4-9 5-6 12-7 19-5 6-1h9l-3-8-4-4-2-1h-13l-9 3-7 3-4 1-6-11-2-6h-2l1-3 17-8 11-3z" fill="#F8FBFC"/>
<path transform="translate(763,1396)" d="m0 0h9l13 3 10 5 6 7 4 8 2 8 1 14v54l-1 1h-23l-1-1v-8l-5 2-7 5-5 3-7 2h-13l-9-4-8-7-4-9-1-2v-16l5-10 8-7 11-5 16-4 6-1h8l-2-10-4-2-3-1h-14l-13 5-2 2-4-1-8-15v-4l17-8 11-3z" fill="#F9FBFC"/>
<path transform="translate(1036,1396)" d="m0 0h9l9 2 7 3 6 4 8 9 5 12 1 4v26h-59l6 12 5 4v2l5 1h18l13-5 9 16-1 3-7 4-17 5-4 1h-12l-13-3-11-6-8-7-5-9-4-8-2-10v-17l3-12 7-13 10-10 12-6z" fill="#FAFCFC"/>
<path transform="translate(613,1396)" d="m0 0h10l9 3 7 4 6 9 3 9 1 7v67l-1 1h-28l-1-64-3-7-4-3h-9l-6 3-6 5-1 65-1 1h-28v-97h24l1 12 15-11 7-3z" fill="#FCFDFD"/>
<path transform="translate(1092,1399)" d="m0 0h29l14 42 7 25h1l3-15 8-30 6-21 1-1h28l-3 9-10 31-4 10-6 19-3 9-12 32-7 11-5 6-8 5-8 3h-22l-2-1 1-10 3-12 13-1 6-3 5-10v-7l-5-12-6-15-6-16-5-11-6-17-7-17z" fill="#FAFCFD"/>
<path transform="translate(1477,1373)" d="m0 0h24v26h23l1 1v21h-24l1 46 4 6 3 2h10l4-1 3 11 1 11-14 3h-13l-9-2-9-6-4-4-5-12-1-6v-48l-2 1h-11l-1-1v-20l4-2 11-1 3-23z" fill="#FAFCFC"/>
<path transform="translate(474,1391)" d="m0 0h14l12 7 6 10 3 11v24l-5 16-6 8-7 5-5 2h-10l-9-4-5-5-5-8-3-7-1-6v-26l3-10 6-9 6-5z" fill="#181610"/>
<path transform="translate(1322,1132)" d="m0 0 1 2-6 10-6 9-14 28-8 21-3 15-2 17-2-2 1 3v7l-3 10-4 6-6 5-7 3h-15l-6-3-6-7-1-3v-12l5-12 9-13 12-14 22-22 7-8 11-12 9-11 3-5h2l2-5z" fill="#5AAFCC"/>
<path transform="translate(787,512)" d="m0 0h9l9 3 5 5 3 7v8l-5 14-9 13-9 10-7 8-11 12h-2v2h-2l-2 4-15 15-9 11-6 7-3 5-9 12-1-2 7-12h2l2-5 8-14 11-23 7-20 3-18 2-18 3-10 9-10z" fill="#5AAFCC"/>
<path transform="translate(674,1399)" d="m0 0h29v97h-29l-1-1v-95z" fill="#F3F8FA"/>
<path transform="translate(1014,691)" d="m0 0h30l17 3 15 5 11 7 5 6-2 4-2 2h-10l-29-9-24-5-14-2-14-1h-18l-26 3-11 1 4-3 21-5 35-5z" fill="#FEFEFE"/>
<path transform="translate(962,1060)" d="m0 0 11 2 36 10 15 3 14 2h42l20-3h6l-3 2-30 7-23 3-11 1h-37l-21-4-13-5-9-7-3-5 4-5z" fill="#FEFEFE"/>
<path transform="translate(912,541)" d="m0 0h26l13 4 8 6 3 4v3h-11l-26-5h-32l-25 5-14 4h-5l4-3 20-8 23-7z" fill="#FEFEFE"/>
<path transform="translate(1195,1217)" d="m0 0 4 1-20 8-24 7-21 4h-25l-13-4-8-5-2-6 1-2h7l20 5 13 2h14l27-4z" fill="#FEFEFE"/>
<path transform="translate(684,1354)" d="m0 0h7l8 3 5 6 1 8-3 8-3 3-4 2h-14l-6-4-3-5-1-3v-7l4-6 6-4z" fill="#F7FAFB"/>
<path transform="translate(948,606)" d="m0 0h16l18 2 14 4 12 6 7 6-1 4-3 2-6-1-24-9-19-5-16-3-35-1 3-2 18-2z" fill="#FEFEFE"/>
<path transform="translate(1036,1149)" d="m0 0 8 1 24 9 18 5 21 3 27 1v1l-20 3h-31l-19-2-16-5-10-6-4-4 1-5z" fill="#FEFEFE"/>
<path transform="translate(1036,1419)" d="m0 0h12l6 5 3 7v6h-35l1-6 4-7 3-1v-2z" fill="#1A1C19"/>
<path transform="translate(1591,1451)" d="m0 0h2v17l-5 5-5 3h-10l-5-3-1-2v-7l2-5 9-5z" fill="#191914"/>
<path transform="translate(1412,1451)" d="m0 0h2l1 8-1 10-10 7h-11l-5-5v-8l4-5h2v-2l13-4z" fill="#191A15"/>
<path transform="translate(774,1451)" d="m0 0h4v17l-7 6-3 2h-11l-5-5v-9l5-5 9-4z" fill="#191914"/>
<path transform="translate(788,515)" d="m0 0 5 1-1 3-9 6-8 10-4 11-3 8h-1v-11l3-12 5-8 6-5z" fill="#FEFEFE"/>
<path transform="translate(1404,889)" d="m0 0 2 1v46l-2 30-2 17h-1v-9l1-9 1-20v-19l-2 16h-1v-9z" fill="#335772"/>
<path transform="translate(660,574)" d="m0 0h11l6 3v5l-14-1-9 2-8 6-2 3h-2l2-6 6-7z" fill="#FEFEFE"/>
<path transform="translate(1279,1226)" d="m0 0h2l-1 13-4 11-8 9-5 3h-6v-4l10-6 6-9 4-10z" fill="#FEFEFE"/>
<path transform="translate(1404,1187)" d="m0 0 1 3-6 8-8 5-8 2-9-1-4-3v-3l19-1 8-4z" fill="#FEFEFE"/>
<path transform="translate(651,808)" d="m0 0h1l-1 11-3 21-2 20-2 28h-1l-2-16v-14l1-22h1l1 17 5-35z" fill="#335772"/>
<path transform="translate(1402,904)" d="m0 0h1l-2 29-1 16-2-4-1 5h-1l1-12 3-32z" fill="#212C32"/>
<path transform="translate(738,669)" d="m0 0 2 1-30 30-2-1 9-9 7-8 8-7z" fill="#283C4A"/>
<path transform="translate(1376,1023)" d="m0 0 1 4-7 16-1-3 1-7z" fill="#335772"/>
<path transform="translate(678,740)" d="m0 0v3l-7 13-1-3 4-10h2v-2z" fill="#37607C"/>
<path transform="translate(734,632)" d="m0 0v3l-10 13-1-2 7-12z" fill="#365E79"/>
<path transform="translate(1322,1132)" d="m0 0 1 2-6 10-5 3 1-3h2l2-5z" fill="#38627D"/>
<path transform="translate(1399,937)" d="m0 0h1v12l-2-4-1 5h-1l1-12z" fill="#283D4A"/>
<path transform="translate(1402,904)" d="m0 0h1l-1 14-2 1v-13z" fill="#212D34"/>
<path transform="translate(1209,558)" d="m0 0 4 1 9 5-3 2-10-7z" fill="#345A75"/>
<path transform="translate(825,1213)" d="m0 0h5l8 6-2 1-11-6z" fill="#365D78"/>
</svg>
