<?xml version="1.0" encoding="UTF-8"?>
<svg version="1.1" viewBox="0 0 2048 2048" width="1280" height="1280" xmlns="http://www.w3.org/2000/svg">
<path transform="translate(0)" d="m0 0h2048v2048h-2048z" fill="#335772"/>
<path transform="translate(936,598)" d="m0 0h39l18 2 13 4 10 6 8 8 5 11v12l-4 10-7 8-10 6-13 4-9 1h-19l-20-4-28-6-7-1h-28l-22 5-12 4-14 7-10 9-5 8v8l3 5 8 4 15 2 21-2 25-5 65-16 22-4 36-4h31l19 3 12 4 13 7 10 9 7 8 8 16 2 11-1 12-5 12-7 9-9 6-13 5-12 2h-18l-23-4-49-10-26-5-8-1h-34l-26 5-33 11-25 12-12 8-14 10-11 10-6 5-7 8-12 13-12 18-9 15-9 20-7 22-5 25-2 15-1 17v13l2 27 4 25 5 19 10 30 9 20 8 16 11 19 10 15 10 13 9 10 7 8 13 12 16 12-3 1-16-9-20-14-17-14-14-12-22-22-9-11-10-12-13-18-12-19-12-21-12-25-10-26-10-34-6-31-4-35v-47l3-29 5-29 5-20 6-16 10-20 16-24 10-13 14-15 8-8 8-7 11-10 13-10 19-13 17-10 29-15 24-10 31-10 27-6 27-4z" fill="#5CB0CE"/>
<path transform="translate(1208,558)" d="m0 0 5 1 23 14 16 12 14 11 20 18 17 17 9 11 8 9 12 16 12 18 9 15 12 23 12 28 12 36 6 26 4 25 2 19 1 17v27l-2 27-5 33-7 28-9 21-8 17-12 18-8 10-13 15-22 22-11 9-10 8-16 11-19 12-23 12-23 11-28 10-30 8-27 5-19 2h-47l-16-3-16-8-8-9-4-9-1-11 3-10 6-8 11-7 13-5 12-2h12l20 3 34 8 8 1h25l25-5 15-6 16-10 6-7 3-6-1-9-6-5-10-3-8-1h-13l-21 3-35 9-36 9-32 6-36 4h-27l-17-2-16-5-11-6-11-9-8-10-6-12-3-11v-13l4-13 8-10 10-7 12-5 13-2h17l30 5 47 10 30 5 18 1 22-2 25-5 17-5 23-10 21-12 14-10 11-9 8-8 6-5 7-8 10-12 10-15 10-18 7-15 8-25 5-25 2-17v-40l-3-25-6-29-11-35-14-29-8-14-6-11-12-17-13-16-16-17-12-11-16-11z" fill="#5CB0CE"/>
<path transform="translate(821,818)" d="m0 0 1 3-7 11-8 16-6 18-3 18v22l3 18 5 16 9 21 13 22 12 16 8 10 12 14 33 33 8 7 14 12 13 11 9 7 10 9 7 7 13 17 8 14 8 18 5 21 1 8v19l-3 14-5 12-6 9-8 7-10 5-12 3h-10l-25-5-25-9-23-11-19-12-13-10-11-9-10-9-7-7-7-8-14-18-11-17-10-18-9-19-11-33-6-28-3-25v-39l4-29 5-20 7-20 8-18 10-17 14-19 14-15 12-11 12-9z" fill="#fff"/>
<path transform="translate(1104,522)" d="m0 0h9l17 3 30 10 25 12 16 10 14 10 11 9 12 11 7 7 7 8 15 20 12 19 14 27 9 23 7 25 5 25 2 19v39l-3 24-4 19-9 27-11 23-10 16-11 14-9 10-11 11-11 9-10 8-1-2 13-25 7-20 3-17v-26l-4-20-6-18-8-17-13-21-13-18-11-13-14-15-21-21-8-7-12-11-11-9-9-8-11-9-12-11-10-12-10-15-10-21-5-17-2-10-1-19 2-14 5-16 7-10 9-8 10-5 6-2z" fill="#fff"/>
<path transform="translate(471,1366)" d="m0 0h19l13 3 13 7 11 11 8 16 4 17v23l-4 18-7 14-7 9-13 9-10 4-12 2h-10l-12-2-12-5-11-8-8-10-6-13-4-16v-26l3-14 5-12 8-11 8-7 12-6z" fill="#fff"/>
<path transform="translate(1377,1020)" d="m0 0 2 1-6 16-20 40-9 16-20 28-11 13-9 11-23 23-8 7-13 11-18 13-27 18-17 9-25 10-24 6-18 3h-21l-13-4-11-6-7-8-3-8 1-8 4-7 10-8 14-6 16-3 36-5 23-5 19-6 19-7 20-9 23-13 21-14 21-16 14-12 21-21 11-14 11-15 13-22z" fill="#5CB0CE"/>
<path transform="translate(916,534)" d="m0 0h23l13 4 9 6 5 5 4 5 1 3v10l-5 8-8 7-14 6-21 4-31 4-21 4-26 8-24 10-21 10-17 10-16 11-19 14-14 12-16 15-9 10-13 17-11 15-11 19-5 9-1-2 5-13 12-25 14-27 18-27 11-14 11-13 7-8 24-24 8-7 14-11 17-12 15-10 15-9 22-10 24-8 17-4z" fill="#5CB0CE"/>
<path transform="translate(884,1396)" d="m0 0 12 1 9 4 7 7 1 4 16-12 7-3 10-1 11 2 9 6 6 10 3 12v70h-29l-1-65-3-7-4-2-9 1-8 5-2 2-1 15-1 51h-28l-1-61-2-8-3-4-9-1-10 5-3 3-1 66h-29v-97h24l2 11 4-2 12-9 5-2z" fill="#fff"/>
<path transform="translate(1403,895)" d="m0 0 2 1 1 8v24l-2 35-4 34-8 51-3 29v30l3 17 5 13 9 17 5 10 1 4v14l-3 10-6 9h-2v2l-9 5-3 1h-15l-10-5-8-8-9-14-6-13-3-11-1-7v-11l3-14 8-20 15-33 11-29 9-27 10-40 5-28 3-24z" fill="#5CB0CE"/>
<path transform="translate(660,569)" d="m0 0h11l10 4 12 11 8 13 7 15 3 15v12l-4 16-9 21-9 19-13 32-12 36-9 36-5 27-3 25-2 26-1 6-2-2v-44l4-44 9-57 3-25 1-12v-25l-2-14-5-16-16-32-1-11 3-12 5-9 8-7z" fill="#5CB0CE"/>
<path transform="translate(1246,1368)" d="m0 0h28l1 1 1 50 15-20 10-14 9-12 4-5h31l-2 4-24 32-11 15 5 10 17 28 13 22 9 15v2h-31l-6-9-24-42v-2l-5 5-10 13-1 35h-29z" fill="#fff"/>
<path transform="translate(1401,1396)" d="m0 0 14 1 11 4 8 6 6 9 3 10 1 17v53h-24l-1-9-6 3-9 6-11 3h-8l-10-3-9-7-5-10-1-4v-12l4-10 8-8 13-6 16-4 13-2-3-9-4-3h-15l-11 4-7 3-6-9-5-10 16-8 13-4z" fill="#fff"/>
<path transform="translate(1571,1397)" d="m0 0h23l11 4 8 6 6 9 3 11 1 23v45l-1 1h-23l-1-1-1-7h-2l-11 7-7 3-5 1h-7l-13-4-8-7-4-8-1-4v-14l5-10 7-7 10-5 19-5 13-2-3-9-5-3h-14l-14 5-5 2-9-16 1-4 14-7z" fill="#fff"/>
<path transform="translate(766,1396)" d="m0 0 13 1 11 4 9 7 6 12 2 8 1 66-1 2h-23l-1-1v-8l-6 3-14 8-5 1h-10l-11-4-8-7-5-12v-14l4-9 2-3h2v-2l11-7 12-4 23-4-3-8-5-4-9-1-12 3-10 5-3-1-9-16v-2l16-8 13-4z" fill="#fff"/>
<path transform="translate(1037,1396)" d="m0 0 14 1 12 5 10 9 6 12 2 9v23l-1 1-57 1 3 8 6 7 7 3 5 1h8l15-5 3 1 8 16-16 8-14 3h-10l-16-4-10-6-5-4-7-10-4-11-2-10v-14l4-15 7-12 7-7 10-6 8-3z" fill="#fff"/>
<path transform="translate(609,1397)" d="m0 0h18l9 4 7 7 4 10 2 13v65h-29l-1-63-3-8-5-3h-7l-10 5-3 3-1 66h-29v-97h23l2 6v6l16-11z" fill="#fff"/>
<path transform="translate(1092,1399)" d="m0 0h28l5 12 13 41 4 14h1l6-26 11-39 1-2h28l-12 36-17 50-8 21-7 13-9 9-10 5-15 2-12-2 1-8 3-13 1-1h8l9-3 5-8 1-2v-7l-17-43-16-41-2-5z" fill="#fff"/>
<path transform="translate(1477,1373)" d="m0 0h24v26h23v22l-11 1h-11v44l3 6 5 3h13l4 15v5l-9 3-6 1h-9l-11-2-9-5-6-7-4-12-1-7v-45l-5 1h-7l-1-1v-21l15-1 1-14z" fill="#fff"/>
<path transform="translate(475,1391)" d="m0 0h11l10 4 7 8 5 12 1 6v22l-3 11-5 10-8 7-8 3h-8l-10-4-7-7-5-10-2-8-1-17 2-13 4-11 7-8 7-4z" fill="#345974"/>
<path transform="translate(1321,1134)" d="m0 0 1 2-8 14-10 18-8 17-7 21-2 9-2 21-2 10-5 10-4 5-8 5-3 1h-14l-8-4-5-6-2-5v-8l3-10 6-11 8-10 12-14 22-22 7-8 12-14 9-11z" fill="#5CB0CE"/>
<path transform="translate(787,511)" d="m0 0h10l8 3 5 5 3 4 1 3v8l-3 10-6 11-7 9-9 10-7 8-17 17-7 8-14 15-8 10-11 15-1-2 14-24 10-19 8-20 4-14 4-33 4-11 6-7 10-5z" fill="#5CB0CE"/>
<path transform="translate(674,1399)" d="m0 0h28l1 2v95h-29z" fill="#fff"/>
<path transform="translate(1014,691)" d="m0 0h29l14 2 16 5 10 5 7 6 1 6-3 3h-10l-29-9-30-6-24-2h-16l-26 3-11 1 4-3 21-5 25-4z" fill="#fff"/>
<path transform="translate(962,1060)" d="m0 0 14 3 28 8 20 4 14 2h44l13-2h7l-3 2-27 6-33 4h-36l-19-3-13-5-11-7-3-4 1-5z" fill="#fff"/>
<path transform="translate(913,541)" d="m0 0h25l10 3 10 6 3 3v5h-9l-26-5h-34l-25 5-13 4h-5l4-3 17-7 23-7z" fill="#fff"/>
<path transform="translate(1195,1217)" d="m0 0 3 1-14 6-25 8-25 5h-25l-14-5-8-6-1-4 1-2h8l17 5 15 2h15l27-4z" fill="#fff"/>
<path transform="translate(686,1354)" d="m0 0 11 2 6 5 2 9-2 7-5 5-4 2h-12l-7-4-4-7v-7l5-8 5-3z" fill="#fff"/>
<path transform="translate(947,606)" d="m0 0h17l18 2 14 4 15 8 3 3-1 5-2 2-9-2-21-8-19-5-16-3-33-1 2-2z" fill="#fff"/>
<path transform="translate(1036,1149)" d="m0 0 8 1 24 9 23 6 16 2 26 1v1l-12 2-12 1h-27l-22-3-12-4-10-6-4-4 1-5z" fill="#fff"/>
<path transform="translate(1589,1451)" d="m0 0 5 1v15l-4 5-8 4h-9l-5-3-1-2v-8l5-6 9-4z" fill="#365F7A"/>
<path transform="translate(1411,1451)" d="m0 0 4 1v16l-7 6-4 2h-9l-5-2-2-3v-8l5-6 13-5z" fill="#365E79"/>
<path transform="translate(1035,1419)" d="m0 0h12l5 3 3 4 2 6v5h-34l-1-3 5-10 5-4z" fill="#37607B"/>
<path transform="translate(775,1451)" d="m0 0h3v18l-8 6-3 1h-10l-5-5-1-5 4-8 8-4z" fill="#355C77"/>
<path transform="translate(785,516)" d="m0 0h7l-2 4-10 8-6 9-5 15-2 1 1-13 3-11 6-8z" fill="#fff"/>
<path transform="translate(1279,1226)" d="m0 0h2l-1 13-3 9-6 8-7 6-7 1 1-5 10-7 6-10z" fill="#fff"/>
<path transform="translate(661,574)" d="m0 0h9l7 3v4h-15l-10 3-9 6 1-4 6-7 8-4z" fill="#fff"/>
<path transform="translate(1404,1187)" d="m0 0 1 3-6 8-8 5-3 1h-13l-5-3v-3l19-1 10-5 3-3h2z" fill="#fff"/>
</svg>
