<?xml version="1.0" encoding="UTF-8"?>
<svg version="1.1" viewBox="0 0 2048 2048" width="1280" height="1280" xmlns="http://www.w3.org/2000/svg">
<path transform="translate(0)" d="m0 0h2048v2048h-2048z" fill="#FCFCFC"/>
<path transform="translate(940,598)" d="m0 0h30l19 2 16 4 10 6 9 9 5 12v9l-5 12-8 8-14 7-7 2-10 1h-16l-17-3-31-7-17-2h-15l-14 2-21 6-12 5-11 7-8 9-3 7v6l4 6 10 4 6 1h18l25-4 64-16 23-5 38-5 10-1h26l20 3 13 4 13 7 10 9 7 8 5 8 5 15v13l-4 12-8 11-11 7-13 5-10 2h-13l-26-4-57-12-27-4-10-1h-21l-24 4-24 7-16 6-21 10-16 10-11 8-13 11-17 17-11 14-12 18-8 14-11 27-6 22-4 26-1 11v33l3 28 6 29 8 26 10 25 8 16 10 18 10 15 12 16 11 12 14 15 10 9 7 5-2 1-11-6-15-11-13-10-13-11-12-11-8-7-7-8-8-8-9-11-11-14-12-17-12-19-14-26-12-27-7-19-8-28-6-28-4-33-1-19v-20l2-32 5-32 5-22 5-16 8-18 11-19 12-17 13-16 23-23 28-22 18-12 13-8 22-12 24-11 26-9 20-6 34-7z" fill="#5CB0CD"/>
<path transform="translate(1214,561)" d="m0 0 5 2 16 10 14 10 22 18 12 11 22 22 9 11 12 15 14 20 11 18 12 22 12 28 12 35 8 34 4 26 2 24 1 24-1 26-5 34-5 25-8 24-8 18-12 20-12 16-12 14-12 13-16 15-14 11-17 12-21 13-23 12-21 10-25 9-23 7-38 8-16 2h-46l-17-3-16-8-8-7-5-7-2-6v-12l6-12 8-7 12-6 12-3h23l25 5 28 6 10 1h12l22-3 17-5 16-8 9-7 7-8 2-5-1-8-6-5-7-3-6-1h-24l-18 3-36 9-27 7-34 7-21 3-11 1h-42l-19-4-17-8-10-8-8-9-8-15-3-14 1-12 4-10 6-8 10-8 12-5 10-2h23l24 4 52 11 33 5h23l23-3 25-6 21-8 20-10 19-12 17-14 15-14 10-12 11-15 12-20 9-19 8-24 5-22 2-18 1-17v-13l-2-26-4-26-7-28-10-29-16-33-11-18-12-17-9-11-12-14-11-10-14-11z" fill="#5CB0CD"/>
<path transform="translate(820,819)" d="m0 0h2l-2 5-6 10-8 16-6 21-2 14v20l4 22 7 21 8 16 9 16 10 14 11 14 12 14 7 7 7 8 8 8 8 7 15 14 11 9 9 8 13 10 13 12 9 10 11 16 10 19 6 18 3 17v23l-4 16-5 10-7 9-11 8-15 5h-14l-23-5-22-8-25-12-15-9-15-11-14-11-12-11-13-14-15-20-12-19-11-21-10-25-6-19-5-21-3-19-2-30 1-24 4-27 6-23 6-17 8-18 8-14 12-17 12-14 13-13 13-10z" fill="#345774"/>
<path transform="translate(1102,522)" d="m0 0h13l19 4 23 8 20 9 18 10 17 12 16 13 13 12 10 11 13 17 10 15 11 19 11 23 8 22 7 26 4 24 1 9v45l-3 23-6 25-7 20-12 25-10 15-10 13-11 12-11 11-14 11-5 4-1-2 13-25 7-21 3-17v-23l-4-22-7-20-8-16-8-14-14-20-13-16-11-12-29-29-11-9-14-13-22-18-12-11-10-12-10-15-8-16-6-17-3-14-1-8v-14l3-17 5-12 6-9 9-8 12-6z" fill="#345774"/>
<path transform="translate(470,1366)" d="m0 0h22l13 4 11 6 11 11 8 16 4 17v23l-3 14-5 13-7 10-8 8-12 7-16 4h-14l-16-4-11-6-6-5-8-10-7-15-3-13v-28l4-16 6-12 8-10 11-8 13-5z" fill="#345875"/>
<path transform="translate(1375,1026)" d="m0 0 1 2-9 21-16 32-22 33-13 16-12 14-9 10-10 10-8 7-10 9-16 12-17 12-19 12-16 9-19 8-23 7-22 4-7 1h-15l-12-3-12-6-7-6-5-10v-8l3-6 5-5 8-5 13-6 17-3 37-5 26-6 27-9 28-13 23-13 16-11 21-16 13-11 10-9 8-8 9-11 8-9 13-18 12-21z" fill="#5CB0CD"/>
<path transform="translate(918,534)" d="m0 0h19l12 3 12 7 6 7 4 8-1 8-3 6-5 5-9 6-13 5-17 3-28 3-25 5-26 8-24 10-19 9-17 10-12 8-19 14-17 14-8 8-8 7-14 15-8 10-12 17-12 19-1-2 7-16 12-25 10-17 12-18 10-14 13-15 7-8 9-10 11-11 8-7 13-11 16-12 18-12 18-11 19-10 30-10 17-4z" fill="#5CB0CD"/>
<path transform="translate(882,1396)" d="m0 0h9l9 2 6 4 7 8v2l16-12 7-3 5-1 13 1 8 4 8 9 4 10 1 6v70h-29l-1-66-3-6-5-2-8 1-9 6-2 3-1 64h-28l-1-52-1-15-4-6-8-1-8 3-6 5-1 66h-29v-97l23-1 2 5 1 8 11-9 10-5z" fill="#345875"/>
<path transform="translate(1404,902)" d="m0 0h1v43l-3 33-10 66-3 28v38l4 18 5 12 12 23 2 8v9l-4 13-7 9-8 5-6 2h-10l-10-4-11-10-9-14-6-14-3-11v-19l3-12 6-16 16-35 12-31 8-24 7-25 6-27 5-33z" fill="#5CB0CD"/>
<path transform="translate(663,569)" d="m0 0 10 1 9 5 9 8 9 13 7 15 3 12v20l-5 16-15 33-12 29-8 21-12 41-6 26-4 24-3 27-1 14-2-4v-27l2-32 5-34 7-45 3-30v-30l-2-15-7-19-13-24-1-4v-13l4-11 6-8 7-6z" fill="#5CB0CD"/>
<path transform="translate(1246,1368)" d="m0 0h29v52h2l2-5 12-16 10-14 12-16 1-1h31l-4 7-10 13-16 21-7 10 5 10 12 20 13 22 14 23v2h-31l-8-13-14-24-9-15-5 5-9 12-1 35-14 1-15-1z" fill="#345774"/>
<path transform="translate(1399,1396)" d="m0 0h10l10 2 12 6 7 8 4 9 2 11v64h-24l-1-1v-8l-6 3-10 6-8 3h-12l-10-4-6-5-6-10-1-4v-13l4-10 7-7 14-7 15-4 15-2-4-8v-2l-5-2h-14l-11 4-6 3-3-1-8-16v-3l17-8 11-3z" fill="#345875"/>
<path transform="translate(763,1396)" d="m0 0h9l14 3 11 7 6 9 3 8 1 5 1 15v38l-1 15h-23l-2-7v-2l-19 11-4 1h-12l-10-4-7-6-4-6-2-7v-14l3-8 6-7 10-6 16-5 19-3-2-7-6-5h-14l-11 4-6 3-3-1-9-16v-2l15-8 13-4z" fill="#355976"/>
<path transform="translate(1578,1396)" d="m0 0h10l10 2 10 5 6 5 6 11 2 8 1 37-1 32h-23l-2-7v-2l-13 8-10 4h-12l-10-4-7-6-5-9-1-4v-14l4-9 4-5 11-7 16-5 19-3-3-8-3-3-3-1h-13l-13 5-6 2-9-16 1-4 14-7 13-4z" fill="#345875"/>
<path transform="translate(1036,1396)" d="m0 0h8l10 2 12 6 7 7 6 12 2 7v26h-58l3 9 1 4 12 6 10 1 10-2 7-3h4l8 15-1 3-15 7-12 3h-13l-15-4-10-6-9-9-6-12-3-12v-15l4-16 7-12 7-7 10-6 8-3z" fill="#345875"/>
<path transform="translate(614,1396)" d="m0 0h8l9 2 8 5 6 9 3 10 1 7v67h-29l-1-64-3-7-5-3-10 1-9 6-1 1-1 66h-29v-97l23-1 2 6 1 6 15-10 7-3z" fill="#345875"/>
<path transform="translate(1116,1398)" d="m0 0 5 1 15 46 6 21h1l6-26 11-39 1-2h27l-1 7-12 34-12 36-10 28-7 13-9 10-8 5-6 2-13 1-11-2 1-9 3-12 1-1 13-1 6-4 4-8v-7l-30-76-6-16z" fill="#345976"/>
<path transform="translate(1477,1373)" d="m0 0h24l1 25h22v24h-23l1 43 3 7 5 3h13l2 6 2 10-1 5-13 3h-12l-9-2-10-6-6-8-3-9-1-5v-47h-13l-1-21 6-2h10l1-15z" fill="#345875"/>
<path transform="translate(476,1391)" d="m0 0h10l10 4 7 8 4 9 2 9v21l-3 13-5 9-8 7-9 3-11-1-10-6-6-9-4-14v-25l4-13 6-8 6-5z" fill="#FDFDFD"/>
<path transform="translate(790,511)" d="m0 0 9 1 6 3 7 8 2 6-1 9-8 16-8 11-9 10-11 12-15 15-7 8-12 13-11 14-5 5 2-5 11-19 8-15 9-22 4-15 4-33 4-9 6-7 10-5z" fill="#5CB0CD"/>
<path transform="translate(1319,1137)" d="m0 0v3l-9 16-10 19-7 16-6 21-4 32-4 10-6 7-9 5-4 1h-8l-8-3-6-5-3-5-1-9 5-14 7-11 8-10 11-12 15-15 7-8 10-11 7-8 9-11z" fill="#5CB0CD"/>
<path transform="translate(693,1398)" d="m0 0h9l1 2v70l-1 26h-28l-1-16v-76l1-5z" fill="#365B78"/>
<path transform="translate(1014,691)" d="m0 0h29l18 3 12 4 11 6 5 4 2 3-1 5-3 2h-8l-29-9-30-6-16-2h-30l-25 3-4-1 10-3 31-6 15-2z" fill="#FDFDFD"/>
<path transform="translate(962,1060)" d="m0 0 14 3 28 8 18 4 15 2 17 1h19l22-3h7l-3 2-22 5-27 4-12 1h-35l-22-4-12-5-11-8-1-1v-5z" fill="#FDFDFD"/>
<path transform="translate(930,540)" d="m0 0 13 2 10 4 6 5 2 3v4h-9l-26-5-12-1h-13l-18 2-30 8-3-1 18-8 18-6 21-5z" fill="#FDFDFD"/>
<path transform="translate(685,1354)" d="m0 0 10 1 6 4 3 5 1 7-3 7-6 5-6 2-9-1-7-5-3-6v-7l3-6 5-4z" fill="#355A77"/>
<path transform="translate(1191,1218)" d="m0 0 3 1-14 6-19 6-22 5-7 1h-20l-11-3-10-5-4-3v-5l4-1 27 6 7 1h22l23-4z" fill="#FDFDFD"/>
<path transform="translate(955,606)" d="m0 0 19 1 16 3 13 5 10 7 1 6-2 1h-7l-27-10-15-4-15-3-17-1h-14l2-2 19-2z" fill="#FDFDFD"/>
<path transform="translate(1037,1149)" d="m0 0 9 2 21 8 23 6 13 2 20 2v1l-16 2h-16l-20-1-16-3-16-8-5-5 1-5z" fill="#FDFDFD"/>
<path transform="translate(1412,1451)" d="m0 0 3 1v11l-2 7-7 5-3 1h-9l-5-3-1-2v-7l4-6 8-4z" fill="#FDFDFD"/>
<path transform="translate(1035,1419)" d="m0 0h11l6 3 4 6 1 8-1 1h-33l-1-3 5-10z" fill="#FDFDFD"/>
<path transform="translate(776,1451)" d="m0 0h2v18l-6 5-5 2h-9l-5-3-2-7 3-6 5-4 7-3z" fill="#FDFDFD"/>
<path transform="translate(1586,1452)" d="m0 0h7v17l-8 6-3 1h-9l-6-4v-9l5-6 9-4z" fill="#FDFDFD"/>
<path transform="translate(1405,1186)" d="m0 0 1 2-5 8-7 6-7 3h-10l-6-3-1-4 19-1 9-4 3-3h2z" fill="#FDFDFD"/>
<path transform="translate(788,515)" d="m0 0 4 1-2 4-7 5h-2l-2 4-6 9-5 15h-1l1-14 3-10 6-8 8-5z" fill="#FDFDFD"/>
<path transform="translate(1279,1228)" d="m0 0 2 1-2 14-3 8-7 8-7 4h-6l1-4 10-7 6-8z" fill="#FDFDFD"/>
<path transform="translate(665,573)" d="m0 0 9 2 4 3-1 3-21 1-8 4-5 4 2-5 5-6 10-5z" fill="#FDFDFD"/>
</svg>
