<?xml version="1.0" encoding="UTF-8"?>
<svg version="1.1" viewBox="0 0 2048 2048" width="1280" height="1280" xmlns="http://www.w3.org/2000/svg">
<path transform="translate(0)" d="m0 0h2048v2048h-2048z" fill="#5EB1CE"/>
<path transform="translate(941,598)" d="m0 0h29l20 2 15 4 12 7 8 9 4 10v11l-4 10-7 8-10 6-14 4-11 1h-14l-18-3-30-7-18-2h-14l-17 3-18 5-17 8-11 9-5 8-1 7 3 6 9 5 8 2h17l20-3 78-19 22-4 33-4 13-1h19l22 3 15 5 13 7 11 10 9 13 4 11 1 4v16l-4 11-6 8-8 7-11 5-12 3-8 1h-12l-20-3-74-15-24-3h-19l-25 4-24 7-21 8-23 12-12 8-16 12-12 11-8 8-9 11-13 18-10 17-9 20-7 21-5 22-3 23-1 22 2 27 5 30 7 28 8 23 12 27 10 18 12 19 13 17 11 12 12 12 11 9 5 4-1 3-15-9-28-22-13-11-16-15-9-9-7-8-11-13-13-18-14-21-11-19-14-28-10-26-8-26-6-25-4-25-2-20-1-25v-16l2-29 4-28 6-27 5-16 7-15 8-15 10-15 10-13 9-11 12-13 15-14 16-13 19-13 15-10 20-11 28-13 21-8 23-7 28-6 26-4z" fill="#FDFEFE"/>
<path transform="translate(1219,564)" d="m0 0 6 2 12 8 17 13 16 13 10 9 8 7 14 14 7 8 13 16 13 18 11 17 10 17 13 26 9 23 10 30 8 36 4 29 1 13v48l-3 28-6 33-6 20-9 22-8 15-14 20-14 17-14 15-10 10-22 18-16 11-16 10-16 9-23 11-19 8-30 10-30 7-26 4-15 1h-37l-17-3-13-5-9-7-6-8-3-7v-13l4-10 5-5 8-6 9-4 13-3h22l22 4 27 6 14 2h14l23-4 18-6 16-9 8-7 5-8v-8l-5-6-10-4-7-1h-18l-20 3-68 17-38 7-29 3h-37l-16-3-15-6-12-8-10-10-8-14-3-9-1-14 2-10 5-10 5-5 7-6 10-5 13-3h27l24 4 46 10 30 5 9 1h21l25-4 20-5 17-6 21-10 23-14 11-9 14-12 11-11 11-14 10-14 9-16 7-14 8-21 6-24 3-21 1-11v-29l-4-33-5-24-8-27-8-21-13-27-10-17-13-19-11-14-15-16-11-10-9-7z" fill="#FCFDFD"/>
<path transform="translate(1098,523)" d="m0 0h20l21 5 22 8 23 11 15 9 11 8 14 12 11 9 7 7 7 8 12 15 11 16 10 16 8 15 10 24 7 22 5 22 3 19 1 11v36l-3 25-5 22-10 30-11 22-8 12-9 12-11 12-5 6-8 7-13 11-5 4-2-1 8-14 9-20 5-18 2-14v-16l-2-15-5-19-6-15-8-16-11-18-13-18-9-10-7-8-9-9-7-8-32-30-10-9-14-11-15-13-8-8-11-14-8-13-8-17-6-20-2-11v-23l3-14 5-12 7-9 9-7 11-5z" fill="#345773"/>
<path transform="translate(817,822)" d="m0 0h2l-2 6-10 19-6 17-3 15v29l5 25 8 20 12 23 13 19 11 14 13 15 32 32 11 9 12 11 10 8 16 13 16 16 12 17 11 21 5 15 3 15 1 9v13l-3 17-5 12-7 9-8 7-10 5-14 3-19-2-20-6-19-7-21-10-17-11-13-10-10-8-12-11-6-5-7-8-11-13-12-17-12-21-9-17-9-23-7-25-4-20-2-18v-50l4-27 5-19 8-22 8-17 11-18 11-14 9-10 13-13 13-10z" fill="#345773"/>
<path transform="translate(471,1366)" d="m0 0h19l12 3 14 7 11 11 8 16 3 11 1 7v20l-3 17-5 12-7 11-9 8-14 7-13 3h-15l-13-3-12-6-10-9-7-11-5-12-3-14v-25l3-14 6-14 7-9 11-9 12-5z" fill="#FDFEFE"/>
<path transform="translate(1371,1033)" d="m0 0 2 1-5 13-10 21-12 21-12 18-9 12-9 11-11 13-9 10-14 14-8 7-16 13-19 14-17 11-13 8-16 8-21 8-20 5-19 3-10 1h-9l-14-3-12-6-8-8-3-8v-7l3-8 7-6 16-8 13-3 37-5 24-5 24-7 24-10 21-10 22-13 17-12 18-14 14-12 8-7 7-8 7-7 9-11 12-16 9-15z" fill="#FDFEFE"/>
<path transform="translate(920,534)" d="m0 0h14l12 2 14 7 8 9 3 7-1 9-6 9-10 7-14 5-27 4-29 4-24 6-29 10-24 11-20 11-19 13-16 12-11 9-10 9-15 14-7 7-9 11-11 15-8 13-6 8-1-2 7-16 10-19 10-18 10-16 13-18 13-15 18-20 13-13 11-9 12-10 15-11 23-15 23-12 15-6 22-7 20-4z" fill="#FDFEFE"/>
<path transform="translate(883,1396)" d="m0 0h8l10 3 9 6 4 6 8-6 9-6 10-3h7l10 3 9 6 5 8 3 14v69h-29l-1-65-3-6-5-3-8 1-6 4-4 3-1 5v60l-1 1h-28l-1-4v-29l-1-34-3-5-4-2-9 1-9 6-1 1-1 66h-29v-96l1-1h23l2 11 4-2 7-6 10-5z" fill="#FDFEFE"/>
<path transform="translate(1404,907)" d="m0 0h1v39l-3 31-6 42-5 33-2 18-1 15v15l3 21 6 17 13 24 2 8v10l-2 9-6 10-8 7-7 3h-14l-7-3-8-7-9-10-8-16-4-12-1-5v-19l4-16 6-15 14-30 11-27 12-37 10-40 5-32 3-28z" fill="#FDFEFE"/>
<path transform="translate(658,570)" d="m0 0h14l12 6 10 10 8 13 5 12 3 12v19l-4 15-11 25-8 17-11 27-12 36-8 29-5 24-5 35-2 17-2-4v-21l3-36 4-30 7-44 3-28v-34l-3-16-8-20-9-15-3-8v-15l4-11 6-8 9-6z" fill="#FDFEFE"/>
<path transform="translate(1251,1368)" d="m0 0h23l1 1 1 50 14-19 13-18 11-14h30l1 2-13 17-20 26-4 7 19 32 9 15 16 27v2h-31l-6-9-13-23-10-17-1-4-5 5-10 13-1 35h-29v-127z" fill="#FDFEFE"/>
<path transform="translate(1399,1396)" d="m0 0h10l13 3 10 6 6 7 5 13 1 9v62h-24l-1-1-1-7-5 2-11 7-7 2h-11l-11-4-8-7-5-12v-13l4-10 4-5 10-6 10-4 19-4 7-1-2-7-6-5h-13l-15 5-5 2-9-17 1-3 14-7 14-4z" fill="#FDFEFE"/>
<path transform="translate(763,1396)" d="m0 0h10l13 3 11 7 4 5 4 8 2 9 1 67-1 1h-24l-1-8-10 5-9 5-4 1h-12l-10-4-9-8-4-10v-16l5-10 7-6 10-5 18-5 14-2-3-8-6-4h-12l-12 4-6 3-3-1-8-16 2-4 16-7 11-3z" fill="#FDFEFE"/>
<path transform="translate(1578,1396)" d="m0 0h10l13 3 10 6 6 7 4 10 1 5 1 51v18h-25l-1-8-4 2-15 8-4 1h-11l-10-3-9-8-4-8-1-4v-14l4-9 4-5 10-6 11-4 24-5h2l-5-9-5-3h-13l-13 5-6 2-8-14-1-5 8-5 16-6z" fill="#FDFEFE"/>
<path transform="translate(1036,1396)" d="m0 0h8l10 2 12 6 7 7 6 12 2 9v24l-58 1 3 8 5 6 10 5h12l16-5 5 8 4 7-2 4-11 5-15 4h-14l-12-3-11-6-7-6-7-11-4-13-1-5v-15l4-15 6-11 8-8 10-6 9-3z" fill="#FDFEFE"/>
<path transform="translate(615,1396)" d="m0 0 13 1 10 5 5 6 4 9 2 14v65h-29l-1-64-3-7-6-3-8 1-7 4-4 3-1 66h-29v-97h23l1 1 1 11 16-11 8-3z" fill="#FDFEFE"/>
<path transform="translate(1091,1399)" d="m0 0h29l4 9 12 37 6 21 1 1 4-19 12-43 2-6h27l-2 10-20 59-11 31-6 13-7 11-9 7-9 4-6 1h-9l-9-2-1-4 4-17 5-1 9-1 5-3 5-9v-7l-17-43-15-38z" fill="#FDFEFE"/>
<path transform="translate(1477,1373)" d="m0 0h24l1 25 22 1v22l-1 1h-22l1 44 3 6 5 3h13l4 15v6l-15 3h-11l-12-3-9-6-5-9-3-16-1-43h-12v-22l15-1 1-14z" fill="#FDFEFE"/>
<path transform="translate(476,1391)" d="m0 0h9l9 3 6 5 6 10 3 10 1 16-3 17-5 10-6 7-8 4-3 1h-8l-10-4-7-7-5-11-2-8v-25l4-13 6-8 5-4z" fill="#5EB2CF"/>
<path transform="translate(787,511)" d="m0 0h8l11 4 6 7 2 6-1 10-5 12-10 14-12 14-24 24-7 8-13 14-11 14-1-3 12-21 8-16 8-21 3-11 3-30 4-11 8-9 7-4z" fill="#FDFEFE"/>
<path transform="translate(1317,1140)" d="m0 0 1 2-10 18-9 17-9 24-3 12-3 27-4 13-7 8-8 5-4 1h-9l-9-3-5-5-3-4-1-3v-8l4-12 9-14 11-13 5-6 8-7 9-10 12-12 9-11 11-13z" fill="#FDFEFE"/>
<path transform="translate(674,1399)" d="m0 0h28l1 96-1 1h-28z" fill="#FDFEFE"/>
<path transform="translate(1006,691)" d="m0 0h41l19 4 10 4 11 7 5 6-2 4-2 2h-11l-27-9-32-6-9-1h-40l-23 3h-8l3-2 25-6 31-5z" fill="#5EB2CF"/>
<path transform="translate(960,1060)" d="m0 0h7l34 10 25 5 22 2h27l25-3 10-1-2 2-24 6-14 3-24 3-14 1h-23l-21-3-13-4-11-6-8-7 1-4z" fill="#5EB2CF"/>
<path transform="translate(924,540)" d="m0 0 14 1 10 3 10 6 3 3 1 4-6 2-8-1-16-4-7-1h-31l-18 3-25 7-4-1 20-9 21-7 17-4z" fill="#5EB2CF"/>
<path transform="translate(1197,1215)" d="m0 0 3 1-16 8-28 9-20 4h-26l-13-4-9-6-2-3 1-4h7l21 5 7 1h21l24-3 24-6z" fill="#5EB2CF"/>
<path transform="translate(686,1354)" d="m0 0 11 2 6 5 2 5-1 9-3 5-7 4h-13l-6-4-3-4-1-9 4-8 7-4z" fill="#FDFEFE"/>
<path transform="translate(938,606)" d="m0 0h30l20 3 13 5 10 6 4 4-1 4-3 2-6-1-24-9-18-5-19-3-35-1v-1z" fill="#5EB2CF"/>
<path transform="translate(1036,1149)" d="m0 0 8 1 24 9 20 5 13 2 13 1h13l13-1-1 2-15 3-10 1h-40l-16-3-13-5-9-7-3-3 1-4z" fill="#5EB2CF"/>
<path transform="translate(1590,1451)" d="m0 0h4v16l-5 5-4 3-3 1h-9l-4-2-2-3v-8l6-7 12-4z" fill="#5EB2CF"/>
<path transform="translate(1035,1419)" d="m0 0h12l5 3 5 10v5h-35l2-9 5-6z" fill="#5EB2CF"/>
<path transform="translate(1412,1451)" d="m0 0h2l1 14-2 5-10 6h-9l-6-5v-8l5-6 10-4z" fill="#5EB2CF"/>
<path transform="translate(775,1451)" d="m0 0h3v17l-7 6-4 2h-9l-5-3-2-5 1-6 7-6z" fill="#5EB2CF"/>
<path transform="translate(788,515)" d="m0 0 5 1-2 4-10 7-6 7-4 11-2 9h-2v-11l3-13 7-10 7-4z" fill="#5EB2CF"/>
<path transform="translate(1406,1184)" d="m0 0 1 2-4 8-9 8-9 3-11-1-4-3v-4l19-1 9-3z" fill="#5EB2CF"/>
<path transform="translate(664,573)" d="m0 0 8 1 6 4v3l-4 1h-14l-9 3-5 4-4 6-1-2 3-7 6-7 9-5z" fill="#5EB2CF"/>
<path transform="translate(1280,1223)" d="m0 0h1v9l-2 12-5 10-8 7-9 2-2-3 10-7 7-8 5-12 2-9z" fill="#5EB2CF"/>
</svg>
