<?xml version="1.0" encoding="UTF-8"?>
<svg version="1.1" viewBox="0 0 1600 1600" width="1280" height="1280" xmlns="http://www.w3.org/2000/svg">
<path transform="translate(912,305)" d="m0 0h2v2l9 1 13 5 10 4 12 7 6 3 10 8 8 7 8 10 6 12 14 45 5 21v12l-4 16-5 17-2 29-2 30v13l1 7 8 3 5 6 2 7v22l-5 25-6 18-6 10-6 4-15 5-5 5-9 20-8 14-7 10-3 7-4 22-3 32-1 26v27l16 16 7 8 8 9 10 8 8 7 20 10 19 11 13 9 19 11 17 6 20 6 10 6 10 9 6 8 17 12 12 9 9 9 9 15 4 10 15 5 22 9 23 12 10 7 3 3 11-3 23-2 3-1 6 1 9 3 6 8 2 6v13l-3 8-7 8-8 6-13 10-6 9-9 31-8 16-9 16-8 12 3 9 16 32 4 12 2 14 1 33v34l3 27 1 38v17l-2 11-5 10-1 1h-197l-4-5-1 5h-490l-1-2v-17l-1-7-7 5-18 18-4 3h-168v-32l4-35-3-4v-26l-2-11-5-9-1-4v-13l5-15 9-23 14-53 16-64 6-25 6-31 7-25 14-43 10-26 9-19 8-11 9-8 14-10 19-14 14-10 12-11 8-5 16-5 17-4 36-14 47-16 24-10 16-10 15-9 4-6 8-7 14-8 5-2 4-15 4-26 2-22v-32l-15-42-5-10-10-3-9-7-5-8-4-15-4-24v-19l2-9 4-7 4-2 7 1 6 3-6-31-3-28-2-39-1-41 2-20 6-21 10-14 8-8 14-11 13-10 16-8 20-7 7-3 13-1 8 1 5-1v2h2l1-2v3l7 1 1-3 1 2h5v2h2l1-3 1 2 5-1 2-6h1l1 5 4 1 1-2 3 1 1 2h2l-2-4 1-3h3v5l1-7 2-1 1 9 1-1 5-4-1 6 3-1 1-4 3 1 2-3 3 1 2-4 2-1 1 3 8-2z" fill="#B39886"/>
<path transform="translate(923,947)" d="m0 0h10l12 5 8 4 12 5 6 5 9 11 2 7 1 6 8-1v37l-1 8-5 4-3 5-4 3h-2l-2 7h3l2 3v4h-2l-1 8-6 7-5 5-3 4-5 2-1 5 3 3-3 14-1 2h2l-1 6 2 1-6 2-1 4h2l1-3h3v2h-2l-1 6-1 1 5 1 1-4 4 1 1-6h1v7l-1 3 4-1v-4l6 1 2 5h6l2-1 1 3 7 1-1-2-4-1 1-7v-2l-1-3h14l1-9h6l4 2h11l3-1 1 2 5-1 2 3 17 3v-11h-3l-5-10v-11l2-6 4-1 3 5 2 1v-2l3-1 1 3h2l3 12 3 4 2 13 1 1 3 23 2 25 3 18v5l-4 7-4 10-4 11-2 6-3 16-7 10-5 10-4 1-1 3-8 6-3 5-5 5-5 9-3 10-2 7-2 14v10l4 19 5 15 9 12 10 9-2-3 1-10h2l1-8 4-2 3-7 7-2 9-3v-5l4-3 2 1-1 3-2 1-1 6 7-4 3-1 2 4v4l4 1v2l6 2-3 1 1 3 3 1 2 4 2 1 2-4 4-4h2v7l1 3-1 3h-4l1 10-3-3-4-6-2-2-8 5-14 4-10-2 1 7 5 6v2l3 1-1 2-6 1-6-4-2-2 1 13v6h-490l-1-2v-17l-1-7-7 5-18 18-4 3h-34l-18-1 5-5 10-6 18-6 10-6 7-5 10-3 16-12h2l2-4 6-5 8-10 9-11h2l2-5 5-5 5-6 6-8 7-9 2-2 6-9 5-10 10-14 4-9 4-10 1-6 5-5 10-9 8-4 8-3 11-7 9-8 23-11 10-3 16-1 14-4 15-7 8-4 11-7h2l2-6 4-4 7-4 16-4 10-10 7-8 7-7 2-4v-7l-5-10-5-5v-2l16-8 5-5 2-5v-10l-6-8-5-3v-4l-3 3-7 2h-4v2l-8 1 1-4 6-7 14-10 18-11 11-9 7-7 11-9 28-21 15-11 2-8-1-6h-2l-2-3-3-1v-2l-8-1-4-5z" fill="#C5501C"/>
<path transform="translate(942,822)" d="m0 0 4 1 10 10 7 8 8 9 10 8 8 7 20 10 19 11 13 9 19 11 17 6 20 6 10 6 10 9 6 8 17 12 12 9 9 9 9 15 4 10 15 5 22 9 23 12 10 7 3 3 11-3 23-2 3-1 6 1 9 3 6 8 2 6v13l-3 8-7 8-8 6-13 10-6 9-9 31-8 16-9 16-8 12 3 9 16 32 4 12 2 14 1 33v34l3 27 1 38v17l-2 11-5 10-1 1h-197l-5-6-2-14 9 6 6-1-6-7-3-6 1-5 11 2 13-4 9-5 6 9h1v-7h4v-5l-1-4 1-4-7 6-1 2-3-1-1-4-4-1v-3-1l-4-4-3-1-2-5v-3l-7 5h-3v-6l3-1-1-3-4 2v5l-8 4-6 1-2 1-3 7-4 1 1 6h-2v2h-2l1 5-1 5 2 4-8-6-8-9-5-7-5-15-4-19v-10l3-19 3-7 3-9 7-10h2l2-5 9-7 1-2 4-2 6-12 5-7 3-16 4-10 4-13 5-10 1-1-1-12-3-19-2-26-2-14-2-7-2-9-2 1-1-12-2-1 1-2h-2l-2-2h-2v2l-4-2-1-4-4 2-1 8v8l4 8v2h3v11l-9-1-8-1-3-3-4 1-1-3-3 2h-11l-4-2-6-1v9l-1 1h-13v2l2 1-2 5v3h4v3h-7l-2-3-1 1h-6l-2-2v-4h-6l1 4h-5v-6l-1 2h-4l-1 3h-6l3-8h2v-2l-3 1-1 2h-2l1-5 4-2-1-4h2v-2h-2l3-16-3-3 1-5 2-2h4l2-4 4-5 7-7 2-8h2l-2-5-4-2 2-5 5-5h2l2-5 5-5 1-10v-18l1-16-5 2-4-1-2-12-9-10-5-5-10-5-10-4-10-5-13-2 4 7 8 2-4 1h-8l-11 6-4 3-5 1 1-4 5-12 3-4 6-1 5-4 3-4 3-7 10-22 2-6h-1l1-13 6-27v-17l-3-10v-5h-2z" fill="#D0956C"/>
<path transform="translate(474,952)" d="m0 0 5 2 4 4 2 10 5 1 6 5 9 15 3 15 14 60 3 11h2l8 14 7 10 6 8 13 19 3 8 4 11 2 14 1 17v12l-6 6h-2v2l-7 5-3 3-10 8-4 4-9 7-12 9-14 10-5 3h-40l-21 5-17 5-19 8-11 7-15 11-5 4-4 8-1 6-3-1-3-8v-13l5-15 9-23 14-53 16-64 6-25 6-31 7-25 14-43 10-26 9-19 6 1 4 4 2 1 2-4z" fill="#F59345"/>
<path transform="translate(735,796)" d="m0 0h5v6l-6 10h-2l2 16 8 22 7 10 6 8 7 9 9 11 5 5 3 5 9 8 3 5 13 12 8 4 13 10 5 4 5 2-6 7-15 13-9 8-8 11-17 17-12 8-1 2h-3v2l-6 4-6 5-4 4-9 5-4 3h-9v-2h-8l-8-3-11-1v2l-10 5-6 6-2 5-4 2-1 11-4 10-5 12-2 1v-2h-4l2 4-1 9h-2l-3 10-6 10-9 10-12 9-12 12-8 7-22 22-7 8-4 4h-2v2h-2l2-6 15-33 7-21 4-18 2-15 8-39 6-36 2-15h2l1-10 2-12 1-36-4-35v-6l5-8 3-9 6-8 4-7 7-7 9-7 3-4 3-5 18-6 5-1 6 24 3 16 4 13 8 20 8 17 4 8 4 10 4 7h2l2 4 5-5-2-6-5-8-10-22v-3h-2l-1-5-2-1-4-9-2-6-6-21-6-22v-4h-2v-20l10-7 9-5 4-6 8-7z" fill="#F49345"/>
<path transform="translate(923,947)" d="m0 0h10l12 5 8 4 12 5 6 5 9 11 2 7 1 6 8-1v37l-1 8-5 4-3 5-4 3h-2l-2 7h3l2 3v4h-2l-1 8-6 7-5 5-3 4-5 2-1 5 3 3-3 14-1 2h2l-1 6 2 1-6 2-1 4h2l1-3h3v2h-2l-1 6-1 1 5 1 1-4 4 1 1-6h1v7l-1 3 4-1v-4l6 1 2 5h6l2-1 1 3 7 1-1-2-4-1 1-7v-2l-1-3h14l1-9h6l4 2h11l3-1 1 2 5-1 2 3 17 3v-11h-3l-5-10v-11l2-6 4-1 3 5 2 1v-2l3-1 1 3h2l3 12 3 4 2 13 1 1 3 23 2 25 1 8-2 10-3-3 1-2h-2l-2-6-1-5-4-7-4-2h-3v7l-4 6 1 8 2 8-1 7-6-1v-4l-2 1-1 4-1 2-7-1-3-5-1-7-4-2-1-7 4-11 3-1-1-4-2 1 1-5 4 1-1-2h-9l-1 3-3 3-2 4-4 4-2 8-9 9-1 5-10 7-2 3h-12v-2l-3-1-4-6-4-3-6-1-4 3h-8l-17 4-7 2-10-3-8-6-1-4h-2l-2-4v-3h-2l-4-10-1-7h-2l-8-16-3-3-6-1 1 17 2 26 3 19 3 14 5 23 3 21 3 11v16l1 3v10l-1 6 1 10 3 14v17l-4 12v22l-1 2h2v4h-2l-5-12-2-4h-2v-2l-4-2-3-1-6-8-7-24-2-9-4-9-1-9-4-5-3-12-5-10 2-8-1-17-1-9 1-2v-6l1-2v-4h-9l-18-3-1 4-5 1-5-5-2-4 1-3 1 2 14 3 33 2 1-3 3-1-2-9-3-4 7-1 5 10h5l-3-12v-6l-4-10v-3l-5-4 1-2-1-3-9-4h-3v-2l-8-2v-2l4-3 9 2 8 1-2-5 1-3-9-6-8-4-12-5-1-2 7-8 7-7 2-4v-7l-5-10-5-5v-2l16-8 5-5 2-5v-10l-6-8-5-3v-4l-3 3-7 2h-4v2l-8 1 1-4 6-7 14-10 18-11 11-9 7-7 11-9 28-21 15-11 2-8-1-6h-2l-2-3-3-1v-2l-8-1-4-5z" fill="#DD6A28"/>
<path transform="translate(1118,1189)" d="m0 0h11l2 4-5 9-3 5v3l5 2v-2h2l1 5 1-2 2-1 2 5 1 11-2 11-5 5-5 1-1 3-9 3-4 1h-8l-10-2-7 2 1 6 9 10 5 4 3 2 4 9 2 10 2 13 4 8 3 7 10 3 11 3 6 3 6 9h7l2-6 5-9 3-8 8-13 8-8 13-10 6-5 3-3v-3l-9-3-10-4-11-8-10-9-7-7-3-7-1-17 1-16h1l1 16 1-14 4-5 3 1 2 4h2v-4l9-2 4 6 4 1 4-2 5 3 4 1 1 5-1 4 4 2 6 2 2 8v2l2 1v-2h4l3 6 5 1 9 3 2 5v3h-3l2 5 8 4 2-6 4-1 4 4 2 3 2 8 2 5 1 37 3 27 1 38v17l-2 11-5 10-1 1h-197l-5-6-2-14 9 6 6-1-6-7-3-6 1-5 11 2 13-4 9-5 6 9h1v-7h4v-5l-1-4 1-4-7 6-1 2-3-1-1-4-4-1v-3-1l-4-4-3-1-2-5v-3l-7 5h-3v-6l3-1-1-3-4 2v5l-8 4-6 1-2 1-3 7-4 1 1 6h-2v2h-2l1 5-1 5 2 4-8-6-8-9-5-7-5-15-1-8 3-3 3 3 2 1-1 3 4-1 1 3h3l1-2 1 3 2-2-3-3h-4v-2l9-4 4 1v-2l2 1 1 1 2-3 8-2 1-5 3-1 1 6 3-2v-6l7-1 2 2-2 3h-2l-1 5 4-4h2v-5l5-4 8 2v5l4 6 2 1h8v2h2v-2h5 3l-2-18-7-12-8-7-1-4-2 1-2-1-2-8h2v-2l-5-2v-2l-2-1h2v-2h-2l-1-3h-3l-1-3-4 6-2 1v-5h2l1-4 2-2-2-8-1-8 1-4-1-7 2-6 1-1-1-17 4-4 5 1-1-5 6 2 4-7 8-5h5l4-1v-2z" fill="#B29886"/>
<path transform="translate(912,305)" d="m0 0h2v2l9 1 13 5 10 4 12 7 6 3 10 8 8 7 8 10 6 12 14 45 5 21v12l-4 16-5 17-2 29-2 30v22l-9 7h-2l-1-35 2-4 2-15v-17l-2-14-2-10-1-4h-3l-2-6-4-4-4-8-5-5-4-8-6-7-10-7-6-7-8-5-11-5-5-2-6-1-3-4h-7l-4-2-5-1v-2h-5l-3-3v-3l-6 3-9 1-10 2-3-1v2l-22 4-14 5-14 7-19 9-13 5-15 4-8 2-8 4-9 7 2 1-3 1-1 4h-3l-1 2-1-2-3 7-2 7-3 7-3 16 1 15-1 14 3 13v8l-4 3-3-16-2-21-2-39-1-41 2-20 6-21 10-14 8-8 14-11 13-10 16-8 20-7 7-3 13-1 8 1 5-1v2h2l1-2v3l7 1 1-3 1 2h5v2h2l1-3 1 2 5-1 2-6h1l1 5 4 1 1-2 3 1 1 2h2l-2-4 1-3h3v5l1-7 2-1 1 9 1-1 5-4-1 6 3-1 1-4 3 1 2-3 3 1 2-4 2-1 1 3 8-2z" fill="#1D1D1F"/>
<path transform="translate(942,822)" d="m0 0 4 1 10 10 7 8 8 9 10 8 8 7 20 10 19 11 9 7 7 18 7 28 3 14 2 27 2 28 1 27 3 28 5 37 1 15h-1l-2-13-1-2-2 1-1-12-2-1 1-2h-2l-2-2h-2v2l-4-2-1-4-4 2-1 8v8l4 8v2h3v11l-9-1-8-1-3-3-4 1-1-3-3 2h-11l-4-2-6-1v9l-1 1h-13v2l2 1-2 5v3h4v3h-7l-2-3-1 1h-6l-2-2v-4h-6l1 4h-5v-6l-1 2h-4l-1 3h-6l3-8h2v-2l-3 1-1 2h-2l1-5 4-2-1-4h2v-2h-2l3-16-3-3 1-5 2-2h4l2-4 4-5 7-7 2-8h2l-2-5-4-2 2-5 5-5h2l2-5 5-5 1-10v-18l1-16-5 2-4-1-2-12-9-10-5-5-10-5-10-4-10-5-13-2 4 7 8 2-4 1h-8l-11 6-4 3-5 1 1-4 5-12 3-4 6-1 5-4 3-4 3-7 10-22 2-6h-1l1-13 6-27v-17l-3-10v-5h-2z" fill="#F39346"/>
<path transform="translate(1037,893)" d="m0 0 14 8 14 7 19 6 15 5 9 6 9 8 6 8 17 12 12 9 9 9 9 15 4 10 15 5 22 9 23 12 10 7 3 3 11-3 23-2 3-1 6 1 9 3 6 8v2l-7-2-4-2h-11l-9 3-2 4h-6l-7-2-5 1 1 6 7 13 2 4v7l-4 6-5-2-5-5-5-4-7 6-7 2-5-2-7-5-2-4-7-3-4-1-3-1-2-3v-4h3l-1-4-8-1-1-5h-5l-2 4-5-2-1-6-7-1-2 4-7 2-4-4v-2l2-1-1-4-5-1-3 1-4-3-9-2h-2l-1 3-10 1-3 2-2 3-2-1-5 1-3 4h-2v2l-5 3h-5v2h-4l-1 7 3 1-4 4-1-2-6 2-1 8-4 7-3 1-2 7-1 9-2 1v26l3 14 7 20 4 6 1 3-4-2-8-3-4-4h-1l-5-36-6-48-3-22-1-11-1-27-3-46-2-13-6-27-5-17-4-10z" fill="#F8C591"/>
<path transform="translate(1141,1026)" d="m0 0 9 2 4 3 7-1 3 3-1 4h-2l1 4 4 1 6-2 4-4 5 2 2 5 4 2 4-4 3 1 1 5h8l1 5h-3l3 7h5l4 3 5 2 3 5 6 4 5 1 9-4 4-4 3 1 5 7 5 3 3-1 2-4v-7l-6-11-4-8 1-5 5-1 7 2h6l2-4 9-3h11l12 6 1 3v10l-4-2v-2l-3-1v-2h-2l-1-3-4-1-2 1-10-1-9 4 2 4v3l-3 1-2-1v2l-5 1 2 4 3 2v9l1 4h-2l1 9-3 5-3 8-3 5-4 14v5l-4 2-3 9-13 1-3-5-3-4v-9l-12-6-2-6 3-2 3 1v-2h-3v-2l-3-1-2-7-6 1-1-5h-3l-1 2h-3l-1-4 2-3-3-1 1-5h-2v2l-4-2-1-5-7 1-2 4-4-2-1-2 1-2h-2l-1 3-5-1-5 1v4l6 1-1 5h-3v-3l-2 1 2 3h5v3l4-1 1 2-3 9 4-3h5 3l2 4-1 2 5-2 5 3v2h7l5-2 1 7 4 3 6 3-1 4-10-2 1 4h6l5 5 4 5 1 3 5 1v6l-3 4-2 7-3 3 3-1 1 4-1 5-2 2-3-1v3l-15-2-6-3-5-1-5-2v-2l-5-1-7-3-6-1-4-2v-3h-7v-6l-4 1 1-5h-3v6l-4-1v4h-9l-5-3-1 2h-2v-9h-3v8h-3l-7-5-5 8h-3l-1 5 2 2v3l-4 2h-5l-4-4v2l-5 1-3 5-8-6-6-15-5-17-1-6v-26l1-10h2l3-8h3l5-15 6-3 2 1 2-2h-3l2-8h4v-2l7-2 3-1v-2l5-5 6-1 1 1 5-5 10-1z" fill="#E6AA74"/>
<path transform="translate(691,828)" d="m0 0h1v20h2l10 38 3 9 5 12v3l3 1 1 2-1 3h2l9 20 6 12 3 5-1 3-6 5-2-4-4-4-5-10-3-7-5-12-6-12-8-20-5-20-4-20-3-9-7 1-15 5-5 8-16 14-7 11-4 5-3 10-4 6 1 14 3 27-1 36-4 22h-2v9l-6 36-6 31-6 28-4 17-5 15-6 3-2 2-5-1-4-8-1-4-1-14v-12l1-19 3-27v-17l-5-30-5-24-6-31-7-26-5-12-9-16-8-12 4-4 16-6 21-5 36-14 47-16 24-10z" fill="#FDFCFC"/>
<path transform="translate(509,1081)" d="m0 0h3l5 8v2h2v8l5 12 6 10 4 12 5 7 3 10 2 7 3 3 5 4 5-1v-5l-6-9-6-8-8-14-3-13-4-10-3-15v-7h2l13 22 6 9 5 9 8 11 7 12 2 14 1 17v12l-6 6h-2v2l-7 5-3 3-10 8-4 4-9 7-12 9-14 10-5 3h-40l-21 5-17 5-19 8-11 7-15 11-5 4-4 8-1 6-3-1-2-4v-8l6-14 3-9h2v-3h12l16-4 8-4v-2l-3-1-16 3h-13l-2-2 1-6 8-6 11-5 21-8 21-5 17-6 6-5 5-5 8-9 2-1 3-6 4-2 2-4-2-1 9-4 5-3-1-5-10-6-7-7-11-4-5-4 2-8 3-4 6-1 6 1 15-3 1-2 1-10 1-8-2-6 3-2h5l2-9 2-10 1-2h2z" fill="#DE6A28"/>
<path transform="translate(524,897)" d="m0 0h2l12 21 6 12 6 19 4 24v4h2l11 60 2 14v9l-8 10-1 6 1 11 6 17 1 8-2 3-4-1-15-20-5-9-5-8-7-9-6-8-7-22-8-35-1-13-6-11-7-12-13-13-4-3v-2l-8-1h-7l-2-2 7-8 38-28 14-10z" fill="#FDFCFC"/>
<path transform="translate(1146,1149)" d="m0 0 7 2 10 4 17 6 15 4 9 4 3 6-1 4-9-1-2-1h-14l-7-2-6 4-7 9-1 4h-2l-1 7v26l1 12 5 8 11 11 11 8 8 4 12 5 3 3-2 4-6 4-8 7-10 8-6 7-8 14-3 8-6 11-7 1-3-3-4-7-11-4-9-2-7-3-4-8-4-11-2-17-4-8-1-3-6-4-6-6v-2l-3-1-3-5 1-4 5-3 10 1 7 1h6l5-3 5-1 1-2 8-4 2-5 1-10-1-9-1-5 4-8 2-6v-10l-5-16-3-3-11-5-7-3v-4l7-3 5-1 17-3z" fill="#FDFCFC"/>
<path transform="translate(1037,893)" d="m0 0 14 8 14 7 19 6 15 5 9 6 3 5 8 20 3 12v21l-2 20-3 8-11 8-5 4-10 14-8 16-6 16-3 16-2 5v20l1 2v6h2l3 14 7 20 4 6 1 3-4-2-8-3-4-4h-1l-5-36-6-48-3-22-1-11-1-27-3-46-2-13-6-27-5-17-4-10z" fill="#FDFCFC"/>
<path transform="translate(1118,1073)" d="m0 0 2 3-3 1v6l4 1 3-5h3v3h3v-7h3v7l-1 2h2v-2h3v4l3 1v2l7-3 4-5h3l1 3h4l2-3 6 1 1 2h5v3l4-1 1 2-3 9 4-3h5 3l2 4-1 2 5-2 5 3v2h7l5-2 1 7 4 3 6 3-1 4-10-2 1 4h6l5 5 4 5 1 3 5 1v6l-3 4-2 7-3 3 3-1 1 4-1 5-2 2-3-1v3l-15-2-6-3-5-1-5-2v-2l-5-1-7-3-6-1-4-2v-3h-7v-6l-4 1 1-5h-3v6l-4-1v4h-9l-5-3-1 2h-2v-9h-3v8h-3l-7-5-5 8h-3l-1 5 2 2v3l-4 2h-5l-4-4v2l-5 1-3 5-8-6-6-15-4-12v-5l2 4 1 6 3 1 2 4-2-6-1-4-1-2 1-3h2l1-4v-3l-1 2h-2v-5l3-3v-2h-2l1-7-1-4 2-8 1-2 6-1v5l7-3 1 2-1 2h-2l-1 5h2v-2l3-2v-8l1-2h2l1 3h2l-1-5 3-1v-2h2v2l2-1 1-3 3-1z" fill="#D28553"/>
<path transform="translate(735,796)" d="m0 0h5v6l-6 10h-2l2 16 8 22 7 10 6 8 7 9 9 11 5 5 3 5 9 8 3 5 13 12 8 4 13 10 5 4 5 2-6 7-5 1-1-6h-2v-2l5-1 1-2-4-1h-9l-3 1-18 1-20 2-11 3-9 4-16 5h-3l-2-6-5-8-10-22v-3h-2l-1-5-2-1-4-9-2-6-6-21-6-22v-4h-2v-20l10-7 9-5 4-6 8-7z" fill="#F49345"/>
<path transform="translate(1113,1158)" d="m0 0 1 3 10 3 9 5 4 5 4 14v10l-5 13-3 1-1 3-3-1 1-4h-2v2l-5-1-2-2 2-6 3-2 4-8-1-3h-11l-9 2v2l-5 2-6 1-4 3h-2l-2 6-3 2-5-3v2l2 1-1 2h-7l-1 9 1 11-2 2-1 10 1 5-1 5 2 6 1 8-3 1-2 5 1 1 3-6 2 1v3l4-1v4h2v5l5 2v2h-2l2 4v4l4-1 3 6 8 7 6 11 2 18-2 2h-2v-2h-5v2h-2v-2l-2 1h-6l-5-5-2-3v-4l-7-2-4 3-1 5h-2l-2 4h-2l1-5 3-3-2-1-3 1-3-1 1 6-4 3-2-5 1-2-3 2-1 5-8 1-2 4-2 1-1-4v2l-6 1-4 2h-3l5 2 4 2-2 3h-2l-1-2-4 1-1-2h-4l-1-3-3-2-1-1-1 2h-2l-2-11v-10l3-19 3-7 3-9 7-10h2l2-5 9-7 1-2 4-2 6-12 5-7 3-16 4-10 4-13 5-10 6-8 12-11 19-9z" fill="#E6AA74"/>
<path transform="translate(1221,1287)" d="m0 0 7 2 1-1h16l8 5 4 5 3 1 2 8 3 27 1 38v17l-2 11-5 10-1 1h-33v-1h15l-2-9v-4l7-18 4-1 4 2 5 2-6-7-4-4h-2l-3 9-4 9-4 8-4 2-4-6-6-2h-5l1-3 14 3 5-2 3-8 3-6 1-19 1-4-2 4-6 9-9 6-5-1-5-2v2l-5-2-1 4-4-2-1-3h-5l-1 4-3-2-2-7 3 1v-7l-5-1-1-2h-2l-5 7-5 5v2l-5 2-7 1-4-7-1-8v-14l4-11 3-8 5 1 16-8 3-1h8v-2h2v-2h2v-2l7-2 3-2h6l3 3 2-4 2-7h-7l-4-4 1-3h2z" fill="#E6AA75"/>
<path transform="translate(1118,1189)" d="m0 0h11l2 4-5 9-3 5v3l5 2v-2h2l1 5 1-2 2-1 2 5 1 11-2 11-5 5-5 1-1 3-9 3-4 1h-8l-10-2-7 2 1 6 9 10 5 4 3 2 4 9 2 20 5 24-1 11-5 13-7 11-5 6-3-1-1-4-4-1v-3-1l-4-4-3-1-2-5v-3l-7 5h-3v-6l3-1-1-3-4 2v5l-8 4-6 1-2 1-3 7-4 1 1 6h-2v2h-2l1 5-1 5 2 4-8-6-8-9-5-7-5-15-1-8 3-3 3 3 2 1-1 3 4-1 1 3h3l1-2 1 3 2-2-3-3h-4v-2l9-4 4 1v-2l2 1 1 1 2-3 8-2 1-5 3-1 1 6 3-2v-6l7-1 2 2-2 3h-2l-1 5 4-4h2v-5l5-4 8 2v5l4 6 2 1h8v2h2v-2h5 3l-2-18-7-12-8-7-1-4-2 1-2-1-2-8h2v-2l-5-2v-2l-2-1h2v-2h-2l-1-3h-3l-1-3-4 6-2 1v-5h2l1-4 2-2-2-8-1-8 1-4-1-7 2-6 1-1-1-17 4-4 5 1-1-5 6 2 4-7 8-5h5l4-1v-2z" fill="#D5905B"/>
<path transform="translate(942,822)" d="m0 0 4 1 10 10 7 8 4 7 6 12 5 6 4 6 3 11 3 10 2 4 2 14v15l-4 22-5 29-2 2-10-11-5-5-10-5-10-4-10-5-13-2 4 7 8 2-4 1h-8l-11 6-4 3-5 1 1-4 5-12 3-4 6-1 5-4 3-4 3-7 10-22 2-6h-1l1-13 6-27v-17l-3-10v-5h-2z" fill="#F49245"/>
<path transform="translate(1178,1199)" d="m0 0 4 2 2 4 4 1 4-2 5 3 4 1 1 5-1 4 4 2 6 2 2 8v2l2 1v-2h4l3 6 5 1 9 3 2 5v3h-3l2 5 8 4 2-6 4-1 4 4 2 3 2 8 2 5v33l-1-4-4-1-5-6-6-3h-16l-3 1-4-2-3 2 2 4 1 1 7 1-1 7-1 5-4-1-1-3-7 2-3 2h-6v2h-2v2h-2v2l-11 2-16 8-4-2 1-5 7-11 8-8 16-12 18-6-1-6-2-6-17-3-10-5-11-8-5-5-9-10-6-9-2-4v-5h1l1-14 4-5 3 1 2 4h2v-4z" fill="#CF956C"/>
<path transform="translate(867,915)" d="m0 0h9l5 5v4h-4l-1 3h-4v2h-7l-1 2-5-1-13 8-6 8-1 2h-2l-2 5-9 11-2 3h-2l-1 2-2 1v2h-7v2l-2 1-4 7h-2l-1 5h-2l-2 4-5 6h-2l-2 8-5 5-7 6-4 2-3 7-6 4-11 5-9 4-5 5-6 5h-2l-1 3-3 2-14 3-9 4-3 3-9 6-1 5 1 5-7 13-6 11-4 5-7 8-9 8-4 1v2l-8 6-3 3h-2v2l-7 3-9 2-9 4-13 10-3 1v2h-2v2l-8 7-5 4 2-4 27-27 8-7 8-8 12-9 7-8 5-9 4-10h2v-9l-1-4 5 1 5-12 4-10 1-11 2-2h3l2-6 9-8 4-2h3v-2h11l8 3 8 1v2l9-1 7-5 7-4h2l2-4 9-7h2v-2h3l1-3 13-9 17-17 8-11 12-11 11-9 10-10 7-8 10-10 8-5z" fill="#E5D4C8"/>
<path transform="translate(706,922)" d="m0 0 2 4 10 23 2 1 1 4 6 2 2 4 3-4 13-5 14-4 5-3 9-2 20-2 18-1 3-1h9l4 2-1 3h-5v2h2l2 5h2v2l-11 9-11 10-8 11-17 17-12 8-4-1-7-4-7-1-9-7-4-1v-2h-6v2l-6 5-3-4-4-20v-2h-2l-3-11-3-9-1-6-3-6-2-7v-6z" fill="#DD6A28"/>
<path transform="translate(531,890)" d="m0 0 3 1 11 18 8 16 6 19 6 26 7 38 4 20 2 13v17l-3 27-1 19v12l1 14 4 10 1 2 5-1 5-3h2l2-9 5-17 2-10h1l-1 11-7 25-9 21-11 24-1 4-2 1-3-39-4-13-3-7-4-8-10-14-6-8-10-15-4-7-2 1-7-26-11-48-3-15-10-16-6-4-3-1-3-10-6-5-5 2-3 4-5-2-1-3-5-1 3-6h14l4 2v2l4 2 3 3v2l4 2 8 8 11 19 1 3 2 18 9 37 6 17 11 13 5 9 5 7 3 5 12 17 4 1 1-4-3-12-4-11-1-11 1-6 8-10v-9l-6-37-6-32v-5h-2l-5-28-8-24-10-18-6-10z" fill="#B49885"/>
<path transform="translate(626,1041)" d="m0 0 5 1 4 5 2 3v3h2v6l4 1 3 5v6l7 5v2h2l4 7v2h2l-1 6-6 14-8 10-8 7-9 7-11 11-8 7-22 22-7 8-4 4h-2v2h-2l2-6 15-33 7-21 4-18 2-15 6-28h2l1-6 4 2 3-4 2-6 1-4 2-1z" fill="#DD6A28"/>
<path transform="translate(1146,1149)" d="m0 0 7 2 10 4 17 6 15 4 9 4 3 6-1 4-9-1-2-1h-14l-7-2-6 4-7 9-1 4h-2l-1 7v26l1 12 5 8 11 11 11 8 8 4 12 5 3 3-2 4-6 4-8 7-10 8-6 7-8 14-3 8-6 11-7 1-3-3-4-7-11-4-9-2-7-3-4-8-4-11v-9l3 2 4 15 3 5 7 4v2l5 1 6 2h6l6 5h6l5-3 6-12 6-10 9-10 9-7 3-3h2l1-8-10-3-7-3-11-8-5-5-4-6-5-5-3-4h-6l-3 5-7 4-5 5-8-1-10 2-6 1-8-3-5 1-1 3 2 7h2l4 5h-3l-7-7v-2l-3-1-3-5 1-4 5-3 10 1 7 1h6l5-3 5-1 1-2 8-4 2-5 1-10-1-9-1-5 4-8 2-6v-10l-5-16-3-3-11-5-7-3v-4l7-3 5-1 17-3z" fill="#D5D2CF"/>
<path transform="translate(818,1154)" d="m0 0h4l-1 3-22 14-15 9-16 8-12 5-16 4-21 3-16 7-12 8-9 8-9 11-12 19-10 13-9 13-11 16-13 18-18 24-10 14-9 12-10 13-3 4-1 10-2 2-1-7-7 5-18 18-4 3h-34l-18-1 5-5 10-6 18-6 10-6 7-5 10-3 16-12h2l2-4 6-5 8-10 9-11h2l2-5 5-5 5-6 6-8 7-9 2-2 6-9 5-10 10-14 4-9 4-10 1-6 5-5 10-9 8-4 8-3 11-7 9-8 23-11 10-3 16-1 14-4 15-7 8-4 11-7h2l2-6 4-4 7-4z" fill="#855B44"/>
<path transform="translate(1047,1080)" d="m0 0h2l3 5 2 1v-2l3-1 1 3h2l3 12 3 4 2 13 1 1 3 23 2 25 1 8-2 10-3-3 1-2h-2l-2-6-1-5-4-7-4-2h-3v7l-4 6 1 8 2 8-1 7-6-1v-4l-2 1-1 4-1 2-7-1-3-5-1-7-4-2-1-7 4-11 3-1-1-4-2 1 1-5 4 1 1-5 2-7h-5v-9l-2-1v-2l-5 1-1 6v2h4v-3h2l-1 4h-7v-3l-3 2h-6l-2-1v-9h-3l-2 8h-5l4-9h-3l-1 5-4 2v2l-18-1-5-2v-1l8-2 1 3 7 1-1-2-4-1 1-7v-2l-1-3h14l1-9h6l4 2h11l3-1 1 2 5-1 2 3 17 3v-11h-3l-5-10v-11l2-6z" fill="#DC6B2B"/>
<path transform="translate(990,989)" d="m0 0h1v37l-1 8-5 4-3 5-4 3h-2l-2 7h3l2 3v4h-2l-1 8-6 7-5 5-3 4-5 2-1 5 3 3-3 14-1 2h2l-1 6 2 1-7-1-2 1-11-2v-7l2-7-9-3-9-6-4-8-1-5-3-9 1-3 4-1v-8l6-7 1-4-1-10 1-3h2l2-5 4-3 4 1 1 9-1 3v8l2 1v2l2 1 2 10h5v-7l5-8 4-9 2-8 4-3v3l6 1 2-2 3-7 2-3-1-5 5-5 6-4 2-9z" fill="#ED7B2D"/>
<path transform="translate(1208,1172)" d="m0 0h1v9l5 6v3l5 2 4 2 3 3 13 9 5 4 6-1 1-3 7 16 2 9 1 9 1 33-2-3-3-7-2-7-2-5h-6v7l-4-1-7-4-2-3 1-3 3 1-3-8-8-2-6-2-2-6h-4v2l-3-1-1-10-6-1-4-3v-9l-6-1-4-2-5 2-4-4-2-3-9 1v4l-4-1-1-3-4 2-1 2-1 15-4-1v-22l2-5h2l1-5 7-9 6-4 8 2h13l5 2 8 1z" fill="#E7AB75"/>
<path transform="translate(1162,1344)" d="m0 0 2 1v10l2 10 3 4 9-2 4-6 5-5 3-4 3 1 2 2 4 1-1 7-2 1 3 6 2-4 5 1 5 5 1-4 5 2v-2l10 2 2-2 6-3 6-9 2-5 2 1-1 4-1 19-5 10-2 5-5 2-9-2-5-1 4 1 7 3 4 5 4-4 5-13 2-3 2-7h4l6 6v2l4 2-1 4v-3l-7-1-4-2-2 2-6 16v4l1 9-15 1h-34l-7-1-3-3v-4l-7-7-4-1-2 2-2-5-2-8-1-7 4 2-4-6-3-14v-8z" fill="#D0946B"/>
<path transform="translate(509,1081)" d="m0 0h3l5 8v2h2v8l5 12 6 10 4 12 5 7 3 10 2 7 3 3 5 4 5-1v-5l-6-9-6-8 1-2 8 9 2 1v2h2l2 5-1 9-6 3h-2l-2 4-4-2-6-7-2-6h-2l-3-9-5-2-12 1-10 1 1 5 3 8-1 5-2 2h-4l-2 5-5 4-4 2-4-1 8-4-1-5-10-6-7-7-11-4-5-4 2-8 3-4 6-1 6 1 15-3 1-2 1-10 1-8-2-6 3-2h5l2-9 2-10 1-2h2z" fill="#EE7B2D"/>
<path transform="translate(502,1189)" d="m0 0 6 2h7l6 4 2 4v2l4 2 1 3 7-2 9 1 3 2-2 4-10 8-14 11-11 8-11 7h-11l-4-1-21-1h-11v-2l-16-1-8 1-1 1-30 5h-14l-3-3 5-5 24-8 40-10h13l18 4 17 1 17-1 8-1 2-5 5-1 4-1-2-6 1-3-5 4-6-1-3-1-7 1-9-3-9 1-3-3-5-2 1-5 3-3 9-6z" fill="#C4501C"/>
<path transform="translate(966,846)" d="m0 0 8 6 12 11 19 10 23 13 9 7 7 18 7 28 3 14 2 27 2 28v13h-1l-3-21-3-47-2-10-2-1-3-5-2-4h-2v7l-2 3-3-1-10-25-5-11-7-19-1-3-4-2-6-4v-2l-4-2-6-4h-2l3 9 9 14 2 7v25l-5 17-7 15 1 15-3 17-4 2-4-1-1-11 3-13 3-18 4-22v-15l-3-17-3-8-5-15-6-9-5-7z" fill="#FCB875"/>
<path transform="translate(691,828)" d="m0 0h1v20h2l10 38 3 9 5 12v3l3 1 1 2-1 3h2l9 20 6 12 3 5-1 3-6 5-2-4-4-4-5-10-3-7-5-12-6-12-8-20-5-20-4-20-3-9-7 1-15 5-5 8-16 14-7 11-4 5-3 10-4 6 1 14 3 27-1 36-4 22h-1l1-12 1-10v-43l-3-27-5-28-4-21 19-7 35-12 20-9z" fill="#FDB874"/>
<path transform="translate(794,1189)" d="m0 0 2 4 1 3-1 7v6l2 7 4 26 4 12 4 9 1 10v8l2 6-1 10-1 5 3 12 1 12-4 10-5 4-7 4-5 1-3-1-2-5-2-10v-12-3l-1-11-2-6-1-21 2-10 6-12-1-9-1-2v-18l1-4-1-17v-6l3-2z" fill="#DE6A28"/>
<path transform="translate(1028,1280)" d="m0 0 2 2-3 8 1 4h7v-3h2v-2h2l-1 9 2 1h-4l-1 7 7 2 7-1 8-1v-2h5l4 1 4-4 4-3 5-1 2 2 1 7 5 1 4 2 12 1v-5l4 5 2 4 2 18-2 2h-2v-2h-5v2h-2v-2l-2 1h-6l-5-5-2-3v-4l-7-2-4 3-1 5h-2l-2 4h-2l1-5 3-3-2-1-3 1-3-1 1 6-4 3-2-5 1-2-3 2-1 5-8 1-2 4-2 1-1-4v2l-6 1-4 2h-3l5 2 4 2-2 3h-2l-1-2-4 1-1-2h-4l-1-3-3-2-1-1-1 2h-2l-2-11v-10l3-19 3-7 2-6 3-1z" fill="#E6AA74"/>
<path transform="translate(1050,1255)" d="m0 0 5 1-1 5 4 1 1-3h9l2 7 1 5v3l3-4 2-3 1 4 4-1v4h2v5l5 2v2h-2l2 4v4l4-1 3 6 8 7 1 8-13-1-5-3-4-1-2-5-1-3-6 2-5 2-2 4-9-2v2l-11 2-6 1-6-3 2-7 2-1v-7l1-2h-2v2h-2v3l-7 1h-2l1-8 2-6-6 5 1-6 6-8h2l2-5 9-7 1-2z" fill="#FCB774"/>
<path transform="translate(615,1317)" d="m0 0 1 2-6 13 2 9v11l-1 1-3 14-1 8v33l-2 2-39 1-1-2 2-29 26-34 7-10 12-16z" fill="#962F0C"/>
<path transform="translate(814,938)" d="m0 0h9l4 2-1 3h-5v2h2l2 5h2v2l-11 9-11 10-7 10h-2l-1-3-2-1-3-5-3-1-6 1-2 2-4-6-2-1v-2l-7 2-3 1-3 3-10 1-12-3-2-4h-5l-3-1v-2h2l1-5 11-5 17-5 5-3 9-2 20-2 18-1z" fill="#C5501C"/>
<path transform="translate(1118,1189)" d="m0 0h11l2 4-5 9-3 5v3l5 2v-2h2l1 5 1-2-1 6-6 9-11 13-7 5-3 1h-7l-10-3-3 1 1-8h-2l-2 7h-2l-1-5v-3l-5 1v-5l2-2-1-17 4-4 5 1-1-5 6 2 4-7 8-5h5l4-1v-2z" fill="#D3905C"/>
<path transform="translate(460,1248)" d="m0 0 10 1 10 2 2 1-1 5-18 5-7 1v2l-8 2-24 13-14 8-13 8-5 5-11 9-10 11-2 3-2-20 6-12 9-10 13-10 10-7 14-7 28-8z" fill="#FDFCFC"/>
<path transform="translate(806,721)" d="m0 0h14l17 2h32l3-1 13-1 9 3-2 6-8 6-6 10-12 11-6 2-14 1-8-2-7-4v-2l-5-2-4-8-10-10-7-6z" fill="#865C45"/>
<path transform="translate(1170,1105)" d="m0 0 4 1-1 5h2l-1-3 1-2 8-1 2 1v4l2-2 4 1 1 4-1 2 6 2v-6l4-1 1 3-1 10h3v2l4-1 2 7 1 6-1 2 3-1 1 2 5 1v3h4l-1 6h2v4l3-1 1 4-1 5-2 2-3-3-3 3-7-2-3 1-2-2-1-7h-3l-5-3v2l-5 1-1-3h-4l-1 3-2-5v-2h-3v2h-7v-3l4-1 1-5 2-3h-10l-1 2v-2l-6 5h-2l-3-6v-2l-5-1v-3l-4-1-1-4 4-4 6-2 2-4h7z" fill="#C27342"/>
<path transform="translate(923,947)" d="m0 0h10l12 5 8 4 12 5 6 5 9 11 1 1v12h-2l-1 4-1 2-9 3-9-1-6-3-3-3-6-2h-5l-6 5-4 6-3 1-3 9-5 5-4 1-4-8-4 7-3 9-2 2-3 7-2 2-1-4 6-13 6-16 5-5 14-11 15-11 2-8-1-6h-2l-2-3-3-1v-2l-8-1-4-5z" fill="#C5511D"/>
<path transform="translate(1132,1135)" d="m0 0h3l1 4-1 5h2l1-3 5 3 9 1 1-3 1 2 3 1 1-3 2 6h4l2 4 8 1 6 2 2 2 8 1 4 3 11 4 7 3 1 6h4l4 2 3 1v2l5-4h7l11 23 3 6v5l-6 2-12-9-9-6v-2l-6-2-3-2-2-6-3-1-1-4h-2l-1-7-2-3-15-5-8-2-19-7-8-3-7-2-6 2-18 2-2 2-6 2-2 3-19 9-14 13-2 2-4-21-1-8v-9l3 4v2l3 1v2l7 1 5 4 1-2 3 2 2-5h6v-2l4 2v2l9-2-1-3-2-2 2-6h3l4-7 2-1 4 4 4 2z" fill="#D4905C"/>
<path transform="translate(1167,1213)" d="m0 0 6 4v2h2l6 6 1-2h3l1 6 5 2v3l4-1 2 1 4-1 2 1 1-2 7 4v9l-2 6 8-1 7 8 6 1 8 4 12 7 1 10 1 5h-6l-3-2-16-1-3-1-6-11v-2l-17-3-10-5-8-6-2-3v-3l-4-2-11-11v-13l-3-5v-3z" fill="#C17241"/>
<path transform="translate(1147,1152)" d="m0 0 16 5 21 8v2h6l2 1v3l-4 1h-14l-6 4-8 11-3 12-1 21-3 5-5 3-6-1-2-2-2-10-1-4 4-12v-13l-4-17-5-2-9-5-5-2 1-3 5-2z" fill="#FEFDFD"/>
<path transform="translate(868,1103)" d="m0 0 4 1 2 1 1 3 10 4 8 10 2 4 8 10 6 5 4 2 5 5 3 6h3v-3h5l1 3-2 4 6 2 7 4 1 4-3 6-10 7-3 1h-7l-6-2v-2l-3-1-1-9h-2l-3-7-5-10-4-5-5-9-2-4-4-2-3-2v-2h-2l-2-5-2-1v2l-5-1-11-6-6 1-3-1-3-5 1-5 4-2 9 1z" fill="#ED7A2D"/>
<path transform="translate(1072,1339)" d="m0 0 2 1-1 3-2 1-1 6 7-4 3-1 2 4v4l4 1v2l6 2-3 1 1 3 3 1 2 4 2 1 2-4 4-4h2v7l1 3-1 3h-4l1 10-3-3-4-6-2-2-8 5-14 4-10-2 1 7 5 6v2l3 1-1 2-6 1-6-4-2-2-2 1v-3l-5-2-4-3-2-5-1-5 1-2v-4h2l1-8 4-2 3-7 7-2 9-3v-5z" fill="#835038"/>
<path transform="translate(979,1087)" d="m0 0 8 1-1 7 4-2 7 1 2 1-1 6-7-1 5 3-1 5-1 3 4 1-1 5h2l1-15 4-2 5 2 2 5v3l2 1-1-6 1-3h2l1 10-4 2-4-2-6-1v9l-1 1h-13v2l2 1-2 5v3h4v3h-7l-2-3-1 1h-6l-2-2v-4h-6l1 4h-5v-6l-1 2h-4l-1 3h-6l3-8h2v-2l-3 1-1 2h-2l1-5 4-2-1-4h2v-2h-2l3-14h2l2-4 3-2h8l1 2z" fill="#E7904E"/>
<path transform="translate(1264,1335)" d="m0 0h1l1 37v17l-2 11-5 10-1 1h-33v-1h15l-2-9v-4l7-18 4-1 4 2 5 2-6-7-4-4h-2l-3 9-4 9-4 8-4 2-4-6-6-2h-5l1-3 14 3 5-2 3-8 3-6 1-19 4-10 5-2h7l5 2z" fill="#B29886"/>
<path transform="translate(1246,1370)" d="m0 0 4 2 5 5v2l4 2-1 4v-3l-7-1-4-2-2 2-6 16v4l1 9-15 1h-34l-7-1-3-3v-4l-7-7-4-1-2 2-2-5-2-8-1-7 5 5 2 5 8 4 5-7 3-5 8 2 3 3 5 2 5 7 4 1v2l4-1 2-5 5 1 6 2 4 5 4-4 5-13 2-3 2-7z" fill="#835038"/>
<path transform="translate(1122,941)" d="m0 0 7 4 18 13 10 9 6 7 2 3 2 12 1 7-1 1-19 1-15 4-6 1 1-10 1-8v-16l-3-15-4-10z" fill="#FDFCFC"/>
<path transform="translate(1076,1330)" d="m0 0 2 1 3 1 4 5 6 2 1-2 7 2 1 4-1 6h8l3-2-2 5-6 10-5 6-3-1-1-4-4-1v-3-1l-4-4-3-1-2-5v-3l-7 5h-3v-6l3-1-1-3-4 2v5l-8 4-6 1-2 1-3 7-4 1 1 6h-2v2h-2l1 5-1 5 2 4-8-6-8-9-5-7-3-8 1-7 5 1 2 6 4 2 1 1 1-2-3-2 4-1 1-2 4 1-1 1 6-1h4l3-3 3-5 3-3h2l2-5 3 1-1 3h2l1-5 5-1 2 2-1 2h2v-5z" fill="#C27443"/>
<path transform="translate(1208,1172)" d="m0 0h1v9l5 6v3l5 2 4 2 3 3 13 9 5 4 6-1 1-3 6 13v2h-3v-2h-5l1 11-2 4-5-2v-2l-4-2-10 2-1-5 1-1v-11h-2l-4-4-5-2-4-6v-2h-2l-2-4-14-7v-2l-3-1h-8l-6 2-5-1-7 3h-3l-2 6-2 5-1 6h-1l-1 13h-1v-22l2-5h2l1-5 7-9 6-4 8 2h13l5 2 8 1z" fill="#F8C692"/>
<path transform="translate(385,1237)" d="m0 0m-2 1h2l-1 3h-2l-1 4 2 1h14l30-5 1-1 15-1 9 2v2l17-1 15 1v1l-25 1-21 5-17 5-19 8-11 7-15 11-5 4-4 8-1 6-3-1-2-4v-8l6-14 3-9h2v-3h12l16-4 8-4v-2l-3-1-16 3h-13l-2-2 1-6z" fill="#DC6B2A"/>
<path transform="translate(862,403)" d="m0 0h10l6 4 4 10 10 3 1 4-5 5-6 4-5 3-15 2-9-1-10-4-2-3 1-11 5-7 7-5z" fill="#E4D4CA"/>
<path transform="translate(1177,1070)" d="m0 0h2l1 4h4l1-2 7-1 2 5 3 2v-2h2v5l2 1-1 7h3l1-3 4 1v4h6l3 7 2 1v2h3v2h-3l-2 3 1 4 5 2 7 3 1 3v7l3 4v7l1 5-4 4v2l-4 1 1-6h3v-8l-5-1-3-5-4-6-6-1-3-1v-4l4-1 6 3 1-4-4-1-5-3-3-5v-3l-6 2-5-1v-2l-6-2-4 1-1-5h-3l-7 1-3 2 3-11h-4v-3l-5 1-1-3-2-1 3-1 2 3 2-5-3 1-3-2v-4l6-2 4 1z" fill="#D5905C"/>
<path transform="translate(691,828)" d="m0 0h1v20h2l10 38 3 9 5 12v3l3 1 1 2-1 3h2l9 20 6 12 3 5-1 3-6 5-2-4-4-4-5-10-3-7-5-12-6-12-8-20-5-20-4-20-2-15 1-5z" fill="#FBF8F7"/>
<path transform="translate(528,1083)" d="m0 0 4 4 10 17 6 9 5 9 8 11 7 12 2 14 1 17v12l-6 6h-2v2l-4 3-6-2-2-3v-9l2-7 7-11 2-11-1-5-7-6v-2h-2l-1-4h-2l-5-8v-8l-4-9-8-13-4-13z" fill="#C4511D"/>
<path transform="translate(547,1035)" d="m0 0 5 1 7 7 2 5 4-1 1-10h1l2 14v9l-8 10-1 6 1 11 6 17 1 8-2 3-4-1-15-20-5-9-5-8-7-9-6-8-5-15 1-4 3 5 5 4 9 20 6 8 5 9 9 13h3l-1-7-4-11-12-26v-6l2-7v-6z" fill="#D5D2CF"/>
<path transform="translate(1113,1158)" d="m0 0 1 3 10 3 9 5 4 5 4 14v10h-2l-5-16-2-4-11 1-5 2-1-3h-8v3l1 3-5 2-1 4-4 3-1-3 1-3-7-1-2 3-1-2-2 4h-2v4l-5 2-3 4-5 14-4-1-1 3-1-4 5-15 5-10 6-8 12-11 19-9z" fill="#F8C590"/>
<path transform="translate(851,970)" d="m0 0h2l3 21v9l-8 7-10 9-15 11h-3v2l-7 2-3-4v-9l7-9 10-9 3-2 3-5 3-1 2-4 8-12z" fill="#DB6929"/>
<path transform="translate(1178,1199)" d="m0 0 4 2 2 4 4 1 4-2 5 3 4 1 1 5-1 4 4 2 5 3 1 4-1 3-6-1v2l-8-1-4 2-6-2-1-6h-3l-1 3-6-5v-2h-2l-5-5h-5l4 8-1 13 4 2 7 8 4 3 2 6-18-18-6-10-1-7h1l1-14 4-5 3 1 2 4h2v-4z" fill="#D28654"/>
<path transform="translate(618,1310)" d="m0 0v3l-18 24-10 14-9 12-10 13-3 4-1 10-2 2-1-7-7 5-18 18-4 3h-34v-2l11-5 12-5 4-1v-2l23-11 6-3 4-5h2l1-4 5-4 5-7 5-5 4-7 5-4h2v-2h2v-2h2v-2l2-1 2-7 5-3 6-9z" fill="#84523A"/>
<path transform="translate(1102,1202)" d="m0 0h2l3 3h3l1 3h4l-1 5-3-1 4 6 5 1 1-4 3 3-3 6-4 1v3l-3 3 7-3 4-3-1 4-9 11-8 6h-8l-1-2h2l-2-2-2 1-2-3 1-4 8-5-1-6h-2l-2-4-3 5-2-4h-4l-1 4-7 2-3-5v-6h2v-3l3-1 5 1v-2l4-1v-5l4-1z" fill="#C17342"/>
<path transform="translate(923,956)" d="m0 0h8l8 3 1 3h2v4h-2v-2h-4l-1 3-10 3h-7l-1 3-11 2-7 1-4 7h-2v2h-2l-1 3-7 6-4 4-9 6-7 4-3-1v-5h2v-2l-7 3-17 16-3 3-1 6h-4v-2h-6l5-4 13-11 12-11 24-14 8-6 10-7 24-16z" fill="#E5D5CA"/>
<path transform="translate(818,725)" d="m0 0 9 1h56l1 3-3 3-7 4-1 2-5 3-12 3-3 5-5 3h-7l-4-2v-8l-1-3-7-2v-2h-4v-2l-5-1-4-3z" fill="#835038"/>
<path transform="translate(1118,1073)" d="m0 0 2 3-3 1v6l4 1 2-2 1 2-5 8-2 1-1 7-5 1-1 4-4 2-1-6h-2l-1 2h-3v2l-3 2-1 4-4 4-5 10v5l1 3-1 12v9l-2-2-8-23v-5l2 4 1 6 3 1 2 4-2-6-1-4-1-2 1-3h2l1-4v-3l-1 2h-2v-5l3-3v-2h-2l1-7-1-4 2-8 1-2 6-1v5l7-3 1 2-1 2h-2l-1 5h2v-2l3-2v-8l1-2h2l1 3h2l-1-5 3-1v-2h2v2l2-1 1-3 3-1z" fill="#D4905C"/>
<path transform="translate(854,538)" d="m0 0 3 1 6 12 3 9 2 3 2 18-4 1-7-1h-8l-2-1h-7l-2 2h-4l1-7 6-14 2-10 5-6h2l-1-3z" fill="#E5D5CA"/>
<path transform="translate(737,799)" d="m0 0h3l-1 5-5 8h-2l2 16 8 22 7 10 6 8 7 9 2 3 2 4v4l-3 2-10-2-8-4-5-7v-8l-5-6v-7l2-2-2-12-7-15-2-9v-10l3-5z" fill="#EE7B2D"/>
<path transform="translate(1204,1288)" d="m0 0 5 1v3h2l2 2 4-1 5 2 7 1-1 7-1 5-4-1-1-3-7 2-3 2h-6v2h-2v2h-2v2l-11 2-16 8-3-1 1-5 7-11 12-11z" fill="#D3905D"/>
<path transform="translate(1182,1160)" d="m0 0h10l13 5 7 3 1 6h4l4 2 3 1v2l5-4h7l11 23 3 6v5l-6 2-12-9-9-6v-2l-6-2-3-2-2-6-3-1-1-3v-8l-6-6-13-4-7-1z" fill="#E7AB75"/>
<path transform="translate(1242,1362)" d="m0 0h1v13l-5 10-2 5-5 2-9-2-5-1-2 6-4 1v-2l-5-1-4-5v-2l-6-2-4-3-6-1-7 11-2 1-7-5-2-3-2-6-4-8 1-4 4 8 5 6 3 1 3-3 5-3 3-4 3-5 4 2 1 4 5 3 4 4 4-1 5 5 4 1 4-4 8 1 2-1 2-5 4-2 5-7z" fill="#C07647"/>
<path transform="translate(1281,1042)" d="m0 0 11 1 2-1 4 2v3h2l2 11-3 1-2 6-3 2-1-1-3 6-3 1-2-1 1-4-6 1-1 2h-2l-2 6-1-2-2-1-3-5v-6l-4-2-2-2 1-3h5v-2h5l-3-5 1-3z" fill="#D48F5B"/>
<path transform="translate(1061,1289)" d="m0 0 2 1 13-1 14 5 4 3 5 2 4 4 1 8-13-1-5-3-4-1-2-5-1-3-6 2-5 2-2 4-9-2v2l-11 2-6 1-6-3 2-7 6-2 13-1 1-5z" fill="#F8C590"/>
<path transform="translate(502,1189)" d="m0 0 6 2h7l6 4 2 4v2l4 2 1 3 7-2 9 1 3 2-2 4-10 8-2-2-2-6 1-3-5 4-6-1-3-1-7 1-9-3-9 1-3-3-5-2 1-5 3-3 9-6z" fill="#C4501C"/>
<path transform="translate(551,929)" d="m0 0 2 1 6 23 5 25 5 27 4 17 4 20v14l-2 19h-1l-3-24-5-25-8-46-5-24-4-22v-4z" fill="#F49244"/>
<path transform="translate(976,855)" d="m0 0 4 2 7 7 2 11 6 10 5 8 2 7v24l-5 19-6 12v19l-2 13-5 1-1-10 2-5 3-23 2-6 3-22h2l-2-22-5-17-8-22z" fill="#FBF9F8"/>
<path transform="translate(818,939)" d="m0 0 5 1-4 2-16 4-8 4 6 4-3 1-9-2v2l-10 1-5 1-9-2-7 1-11 2-7-1-7 1 4-4 16-5 9-4 11-3 20-2z" fill="#9C340E"/>
<path transform="translate(458,1265)" d="m0 0h5l-4 4-4 2-4 4-16 9-10 5-10 6-16 13-19 19-8 15-4-2v-9l1-6h2l1-4 10-9 12-9 11-7h2v-2l20-12 21-12z" fill="#F59345"/>
<path transform="translate(460,1248)" d="m0 0 10 1 10 2 2 1-1 5-6 1v-2h-22l-5-1h-7l-19 5-12 6-10 9-7 6h-2v2l-4 3h-2l-2 4-7 9-4 11 7-1 2 1-10 11-2 3-2-20 6-12 9-10 13-10 10-7 14-7 28-8z" fill="#D6D4D2"/>
<path transform="translate(1050,1255)" d="m0 0 5 1-1 5 4 1-1 3 1 3-3 5-3 7-8 3-5 6h-2v2h-2v3l-7 1h-2l1-8 2-6-6 5 1-6 6-8h2l2-5 9-7 1-2z" fill="#F8C48F"/>
<path transform="translate(531,890)" d="m0 0 3 1 11 18 8 16 6 19 2 8v4h-2l-4-13-3-13h-3l6 31 2 12h-2l-1 4-5-28-8-24-10-18-6-10z" fill="#F4C99D"/>
<path transform="translate(1133,1212)" d="m0 0 2 3 1 6 1 7-2 11-5 5-5 1-1 3-9 3-4 1h-8l-10-2-7 2 1 6v3l-5-6v-9l6-3 9 3h7l6-3 7-6 12-16z" fill="#B39886"/>
<path transform="translate(925,948)" d="m0 0 10 2 16 7 15 8 9 10 1 5-9 2-10-3-3-2v-2l-5-1-2-1v2l-4 1v-8l-1-6h-2l-2-3-3-1v-2l-8-1-3-4z" fill="#97300D"/>
<path transform="translate(1103,1305)" d="m0 0 4 5 2 4 2 18-2 2h-2v-2h-5v2h-2v-2l-2 1h-6l-5-5-2-3v-4l-6-3-1-2-5-1-2-5h5v2l4-2h4 3l-2-4 6 3 12 1z" fill="#E7AA74"/>
<path transform="translate(1043,1384)" d="m0 0 7 4 3 2 3 9v11h-32l-1-4 4-11 6-3 2 4h3l3-9z" fill="#952F0C"/>
<path transform="translate(1057,1324)" d="m0 0h2l1 6h2l-2 9-6 5-3 6-5 2-2-1-6 1 1-2-3-1-2 8-6-4-2-6-4 1-2 2-3-8 1-6h3l2 2 2 1-1 3 4-1 1 3h3l1-2 1 3 2-2-3-3h-4v-2l9-4 4 1v-2l2 1 1 1 2-3 8-2 1-5z" fill="#D29160"/>
<path transform="translate(1146,1149)" d="m0 0 7 2 10 4 17 6 15 4 9 4 3 6-1 4-9-1-2-1h-14l-7-2-6 4-7 9-2 4v-5l10-13 5-3h18v-3l-8-1v-2l-10-3-23-8-4-1-23 3-5 2v2l10 4 8 5 4 13 1 4v13l-4 12h-2l3-10 1-3v-10l-5-16-3-3-11-5-7-3v-4l7-3 5-1 17-3z" fill="#E4D4CA"/>
<path transform="translate(1171,1045)" d="m0 0h3v2h2l-1 5-3 1-3 4h-4v2l-7 2-5 5-6 4-8 1-4 2-3-2v-4l-10-1-3-3-4-2v-2h-2l-2-2-2-1-1-8 3-1 1 5 8 5v3l9-2 3-1 3 4h4v2l7-3 3-4 6-2 3-3 5-1 1-3z" fill="#B98665"/>
<path transform="translate(626,1041)" d="m0 0 5 1 4 5 2 3v3h2v6l4 1 3 5v6l7 5v2h2l4 7v2h2l-1 6-2 2-3-3-4-6v-2l-3-1-4-8-3-2v-2h-2l-1-5h-7v-12l-2-4h-2v-2h-2l-2 9-3 7-3 5h-2v2l-4-1-2-1-1 3 1-8h2l1-6 4 2 3-4 2-6 1-4 2-1z" fill="#ED7B2E"/>
<path transform="translate(1e3 886)" d="m0 0 1 3h2v3h2l5 9 8 16 8 24 3 13 1 7 2 11-4 4-2-3-3-15-2-8-2-9-4-10v-3h-2l-5-14-1-3h-2l-6-20z" fill="#EE7B2D"/>
<path transform="translate(460,947)" d="m0 0h14l4 2v2l4 2 3 3v2l4 2 8 8 11 19 1 3 2 18 9 37 3 15 3 11v7l-2-3-8-32-9-39-3-15-10-16-6-4-3-1-3-10-6-5-5 2-3 4-5-2-1-3-5-1z" fill="#EFB176"/>
<path transform="translate(714,960)" d="m0 0 2 1 2 4v3h2v3h2l3 10h2v2l8 1 2 2 8 1v2h8l10 7 4 4 3 2v4l-5 1-5-3-5-2-6-2-8-6-4-1v-2h-6v2l-6 5-3-4-4-20v-2h-2l-3-11z" fill="#ED7B2D"/>
<path transform="translate(979,1087)" d="m0 0 8 1-1 7 4-2 7 1 2 1-1 6-4-1-2-1-9-1-1-1-7-1-1 10 4-4v-3l4 1-1 11-4 4-9-1-1-3 5-13-1-2h-8l-4 9h2l2-6 1-2h6l-1 6-5 8h-7l-2-1 3-14h2l2-4 3-2h8l1 2z" fill="#FCFAFA"/>
<path transform="translate(830,998)" d="m0 0 2 1 1 3 3 3v3h2l1 7-13 10-3 2h-3v2l-7 2-3-4v-9l7-9 10-9z" fill="#DB6A29"/>
<path transform="translate(780,524)" d="m0 0h7l-1 2-10 3v1l11-3 10-1 9 1-6-2v-1l9 1 9 6 6 7-1 2-4-1-4-4-10-4-1 6-1 1h-16l-16-1-7-1-4-2 9-6z" fill="#1F1E20"/>
<path transform="translate(682,834)" d="m0 0h2l1 3v8l-3-2v-3l-18 5-7 3-20 6-4 1v2l-8 4-9 2-1 1v9l2 7 4 27 2 10 3 27-1 36-4 22h-1l1-12 1-10v-43l-3-27-5-28-4-21 19-7 35-12z" fill="#F7C795"/>
<path transform="translate(1110,927)" d="m0 0 7 6 5 7 6 18 2 11v16l-3 16h-1v-6l-2 1v9l-4 2-1-4 2-20v-21l-4-15-7-17z" fill="#F4C99D"/>
<path transform="translate(835,598)" d="m0 0 6 1 5 5h10v2l4-4 1-2h3v-2h7l10 4 5 4-1 3-7 1-16-1-2 1h-13l-3-1h-22l-4-4 6-3 4-3z" fill="#835139"/>
<path transform="translate(894,1055)" d="m0 0 2 1 2 12v3h2l1 2v6l-8 13-4 1-5-5-5-7 1-9 1-3h3l1-3 2-1 2-5z" fill="#C5501C"/>
<path transform="translate(546,1114)" d="m0 0 5 5 10 14 7 12 2 14 1 17v12l-4 2-4-1-5 4-4-2 1-8 7-16 4-12-1-5-8-16-10-17z" fill="#962F0C"/>
<path transform="translate(1118,1189)" d="m0 0h11l2 4-5 9-3 5v3l5 2v-2h2l1 5 1-2-1 6-5 8h-3l-5 4h-4l1-3h2v-3l4-2 2-6-2-1-1 3-3 1-3-2v-3h2v-13l-1-3-3-1 3-3 4-1-4-1-4 2-3 3-12 6h-2v-4l4-4 7-1 4-1v-2z" fill="#D3905F"/>
<path transform="translate(455,1227)" d="m0 0h18l8 3 7 6 3 4v2l-5-2-16-4-15-1h-19l-26 6h-6l-1-3 12-4 16-3 19-3z" fill="#932E0C"/>
<path transform="translate(373,1246)" d="m0 0 2 4 5 1h9l16-3 5 2-5 5-11 4-10 2-12-1v3h-2l-1 6-5 13-2 5v3h-2v-13l5-15 6-15z" fill="#F49447"/>
<path transform="translate(575,1078)" d="m0 0h1l2 24 4 20 5 5 5-1 2-3h2l-2 10-2 5-6 3-2 2-5-1-4-8-1-4-1-14v-12l1-19z" fill="#D5D2D0"/>
<path transform="translate(469,1259)" d="m0 0 5 1-1 3-15 8-4 1 3-3 5-3-6 1-21 11-23 14-5 2v2l-16 10-11 9-8 7-1 3-2-1 3-5 9-10 12-10 7-6 16-9 21-12 13-7h6v-2z" fill="#EFCDAD"/>
<path transform="translate(943,827)" d="m0 0 3 2 5 9 4 6 2 11v7l-3 10-3 6h-2l-1 8-6 16-2 1 1-13 6-27v-17l-4-15z" fill="#DB6B2A"/>
<path transform="translate(762,1218)" d="m0 0 4 2 3 6-6 7-2 10v7l-2 4-2 2v1l-10 1-3-5v-6l5-8 3-3 3-9 1-5z" fill="#DE6A28"/>
<path transform="translate(1078,1297)" d="m0 0 3 2 1 7h3l3 4-1 2-5-1-4 1h-2v-2l-4 1 1 3 8 2-2 2-9-1-2 2-4-2h-5l-3 1-3-1-3-2-4-1-1-6 8-2h4v-2h5l4 1 4-4 4-3z" fill="#FCB773"/>
<path transform="translate(833,642)" d="m0 0h26l19 3 4 1h21l5-1-2 4-3 3-12 1-8-2-18-2-18-1-5-1h-17l-14 2h-13l-1-3h18l6-1 4-2z" fill="#724A36"/>
<path transform="translate(904,524)" d="m0 0h6l-4 2-3 2 13-1 15 3 10 4 8 3v1h-17l-7-1-1-3-2 4-14 1-6-1-2-4-10 5-4-1 7-8 5-4z" fill="#1C1C1E"/>
<path transform="translate(510,1102)" d="m0 0 4 2-2 1-1 5 4 2-4 3 6 4 5 3 4 5 3 6 5 5-1 5-7-1v-2l-5-2-9-7v-3l-5-2-4-2v-10l5-4 1-7z" fill="#DE6A28"/>
<path transform="translate(912,305)" d="m0 0h2v2l9 1 2 2 1 7-1-3-3-1-2 5-3 3h-3l-1 2-4 2-5 5h-2v2l-4-1 8-17-8 1-1-1-1 4 6-1-1 4-1 2h-2l-2-2-2 4-4 1-1-3 3-6h-3l-1-4 4 1 2-3 3 1 2-4 2-1 1 3 8-2z" fill="#AA9181"/>
<path transform="translate(861,311)" d="m0 0h1l1 5 4 1 1-2 3 1-1 3-4 1v5l-4 1-3-1-3 1-6-3h-12l2 2-1 3-7-2-3-1v2h-8l-2 1h7v3l-9 1-1-2-6-1 1-3 10-3v-2l6-2 1-2-8-1v-1h8l5-1v2h2l1-2v3l7 1 1-3 1 2h5v2h2l1-3 1 2 5-1z" fill="#B09685"/>
<path transform="translate(818,1154)" d="m0 0h4l-1 3-22 14-15 9-16 8-12 5-16 4-21 3-16 7-12 8-6 6h-2l1-3 11-9 19-10 15-5 16-1 14-4 15-7 8-4 11-7h2l2-6 4-4 7-4z" fill="#855942"/>
<path transform="translate(1200,1291)" d="m0 0 4 1 3 7-1 5-4 1v2l-6 2-2 4-9 3-8 4h-3l1-5 6-9 10-9z" fill="#D38654"/>
<path transform="translate(966,846)" d="m0 0 8 6 7 9 12 34 2 12v15h-2v8l-3 17-2 8-2 18-2 4h-1l1-11 3-18 4-22v-15l-3-17-3-8-5-15-6-9-5-7z" fill="#EECAA8"/>
<path transform="translate(1246,1370)" d="m0 0 4 2 5 5v2l4 2-1 4v-3l-7-1-4-2-2 2-1 3h-2l-3 9-3 6h-2l-2 4-3 3-5 1-4-2-2-3-9-3v-2h-2l-6-8-4-1-2-5 7 3 5 7 4 1v2l4-1 2-5 5 1 6 2 4 5 4-4 5-13 2-3 2-7z" fill="#865C45"/>
<path transform="translate(1174,1136)" d="m0 0h6l2 1-2 5-1 3-4 2 3 1 4 1v-2l4-1 1 7 3-3 3 1 1 2h4v-2l5 2h3l3 9 4-1 7 2 2-4 2 4h-2v3l-15-2-6-3-5-1-5-2v-2l-5-1-7-3-6-1-4-2v-3h-7v-5l4-1 3-3z" fill="#D38654"/>
<path transform="translate(992,1123)" d="m0 0 4 1v3h2v-3l24 3 17 1 4 1 1 3-3 9h-7v-8l-2-1v-2l-5 1-1 6v2h4v-3h2l-1 4h-7v-3l-3 2h-6l-2-1v-9h-3l-2 8h-5l4-9h-9v8h-5v-10z" fill="#EEE3DD"/>
<path transform="translate(1152,1142)" d="m0 0 5 3 1-3 2 6h4l2 4 8 1 6 2 2 2 8 1v1h-8v2h7l15 5 2 5h2v8h-2l-1-7-2-3-15-5-8-2-19-7-8-3-7-2-6 2h-12l2-5 3-2 3 1 3-2 6 2 7-1z" fill="#E8AD77"/>
<path transform="translate(1283,1050)" d="m0 0 6 2 3 6h-2l-1 5h4l-1 5-2 4-3 1-2-1 1-4-6 1-1 2h-2l-2 6-1-2-2-1-3-5v-8l-3-1v-2l3-2h7l5-3h2z" fill="#D28653"/>
<path transform="translate(1047,1080)" d="m0 0h2l3 5 2 1v-2l3-1 1 3h2l3 12 3 4-1 8-3-3-4-7h-3l-3 8h-4l-5-10v-11l2-6z" fill="#ED7B2D"/>
<path transform="translate(1178,1199)" d="m0 0 4 2 2 4 4 2v2h-2v2l-5-1-1-3 1-5-6 1 1 2v7l-3-1v3l-4 1-2-1h-4l4 8-1 13 4 2 7 8 4 3 2 6-18-18-6-10-1-7h1l1-14 4-5 3 1 2 4h2v-4z" fill="#D3905E"/>
<path transform="translate(471,1135)" d="m0 0 3 1 4 6 6 7v2l4 2 2 4 4 1 3 5v2l-4 1-7-3-3-4v-2l-5-2-5-3-11-3-1-3 3-8 2-2z" fill="#DE6A28"/>
<path transform="translate(715,810)" d="m0 0v3l-4 9-4 8-5 5-7 3v8l10 34 5 18 4 9-1 3-2-3-3-6-2-6-6-21-6-22v-4h-2v-20l10-7 9-5z" fill="#FAB776"/>
<path transform="translate(1078,1318)" d="m0 0 8 2v5l4 6 8 3 2 4-4 1-4-1-5 1-6-5v-2l-3 1-2-2-1 5h-2l-1-3-2 1-3-1-1 5h-2v-3h-3l2-10v-3l7-1 2 2-2 3h-2l-1 5 4-4h2v-5z" fill="#D38F5D"/>
<path transform="translate(1113,1192)" d="m0 0 4 1 2-1 1 3-6 2-1 1 2 1 1-2 1 10-1 8h-2l-1 2-2-5h2l2-4-4 1-1-4-4 1-2-4-8 4-3 1-1 4-4 1v2h-8v3h-2l2 9 5 1-1 2-5 1-5-9v-8l4-4 5 1-1-5 6 2 4-7 4 1-2 3 14-7z" fill="#D38D5B"/>
<path transform="translate(1117,1094)" d="m0 0h2l1 2 4-1 2 4-1 3-6 5-1 7-2 2-3 12-1 2h-2v-9l-1-4-5 3-4 5-1-4 6-5 2-6v-2h-2l-1 5h-3v-6l-3 1 1-5 6-2 1 6 4-3 1-3 5-1-1-3z" fill="#C27342"/>
<path transform="translate(435,1279)" d="m0 0 3 1-8 6-15 9-16 13-19 19-8 15-4-2v-6l4-9 6-4 3-3h2v-2l8-7 11-9 16-10 9-6z" fill="#C27342"/>
<path transform="translate(418,1254)" d="m0 0 3 1-19 8-11 7-15 11-5 4-4 8-1 6-3-1-2-4v-8l5-12 5-4 4-1 2 1h8l16-9 11-5z" fill="#C27342"/>
<path transform="translate(737,799)" d="m0 0h3l-1 5-5 8h-2l2 16 8 22 7 10 6 8 7 9 2 3h-3l-13-17-7-10-6-11-7-15-2-9v-10l3-5z" fill="#C47544"/>
<path transform="translate(1067,1094)" d="m0 0h1l4 32v2h2l-1-9 2-1 3 14 7 20 4 6 1 3-4-2-8-3-4-4h-1l-5-36-2-20z" fill="#D5D2CF"/>
<path transform="translate(1156,1136)" d="m0 0h3l-1 5 4-1 1 5 6 1v3l16 4 2 2 4 1 1 2 8 1 4 3 8 2h6l4 1 4 2-4 1-2 8-6-3-1 2-2-7-6-2-13-5-10-1-2-4-9-3h-5l-3-3 1-2-4 1-2-2v-4l-1 2-4-1-1-3 4 1z" fill="#D3905C"/>
<path transform="translate(1072,1147)" d="m0 0 3 4v2l3 1v2l7 1 5 4 1-2 1 1v5l-10 12-4 5h-2l-4-26z" fill="#B59885"/>
<path transform="translate(484,989)" d="m0 0h2l3 10 4 13-2 6-6 7h-9l-2-1v-7l3-4 6-3 1-11-1-8z" fill="#DE6A28"/>
<path transform="translate(1075,1267)" d="m0 0 2 1v3l4-1v4h2v5l5 2v2h-2l2 4v4l4-1 4 8-5-2-8-4-11-3-2-12h-2l1-5 2 2 3-4z" fill="#E7A971"/>
<path transform="translate(1135,1102)" d="m0 0 7 1 4 3-2 8-1 2 4 1-1 10-1 4 5-2-2 5-2 2-4-2-1 3-3-4v-5l-4-1v-8l2-9-2-7z" fill="#C27342"/>
<path transform="translate(1110,1308)" d="m0 0 2 3 3 18-2 12-3 6-4 3-7-1v-10h-2l1-2v-3l-3-1 5-1v2h2v-2h5 3l-1-18 1-2z" fill="#CF946B"/>
<path transform="translate(1212,1030)" d="m0 0 7 1 6 2v2h2l3 7-1 6-7 3-8-3-2-6h-2v-8z" fill="#E0A472"/>
<path transform="translate(460,1248)" d="m0 0 10 1 10 2 2 1-1 5-6 1v-2h-22l-5-1h-7l-19 5-4 2-3-1 4-3 28-8z" fill="#D5D2CF"/>
<path transform="translate(1037,1034)" d="m0 0 4 4 2 4v9l3 12v3l-6 1-4-6-4-5-1-8 1-7h2l1-6z" fill="#EE7B2D"/>
<path transform="translate(793,489)" d="m0 0h7l3 2 7 2 2 2v4l-7 1h-3l-2 1h-8l-2-1-7-1-5-3v-3l2 1 1-2 4 1v-2h5z" fill="#1C1C1E"/>
<path transform="translate(683,841)" d="m0 0 2 4 5 20 3 16 4 13 8 20 8 17 4 8 4 10 2 6-3-1v-4l-3-1-10-23-5-13-5-12v-2h-2l-5-15-5-23-2-13z" fill="#B39987"/>
<path transform="translate(1109,1047)" d="m0 0h2l1 5 8 5 1 3 14 3 1 2 7 2 6-5h3v-5l6 1v3l-5 5-6 4-8 1-4 2-3-2v-4l-10-1-3-3-4-2v-2h-2l-2-2-2-1-1-8z" fill="#927A6A"/>
<path transform="translate(728,1406)" d="m0 0 10 2h163l4-1v2l3-1 1 2h-226v-1l32-1z" fill="#DE6A28"/>
<path transform="translate(1029,888)" d="m0 0 5 2 4 5 6 16 7 28 3 14 2 27 2 28v13h-1l-3-21-3-47-5-25-4-15-5-11-5-10z" fill="#EBBD93"/>
<path transform="translate(535,902)" d="m0 0 5 2 8 14 6 11 3 9 4 14v4h-2l-4-13-3-13h-3l3 14v5l-2-4-5-17-10-20z" fill="#FBB673"/>
<path transform="translate(560,956)" d="m0 0h2l6 31 7 36 3 18v17l-2 18h-3l-4-28v-5l2 3 3 21 2-11v-14l-7-34-5-25-4-22z" fill="#CF956B"/>
<path transform="translate(820,1009)" d="m0 0h2l4 7v2l3-1 2 4-8 6h-3v2l-7 2-3-4v-6l4-6z" fill="#DE6B29"/>
<path transform="translate(989,872)" d="m0 0 2 2 4 8 7 11 2 7v25l-5 17-7 15 1 15-3 17-4 2-4-1-1-11 1-2 2 1v10l4-1 2-13v-19l6-12 5-19v-24l-4-11-7-10z" fill="#D5A47A"/>
<path transform="translate(1121,1350)" d="m0 0 3 1 8 17 5 11 1 6 9 19-1 3-14-25-4-5-7-20z" fill="#85553D"/>
<path transform="translate(1165,979)" d="m0 0 4 5 5 12 4 1v2l-5 3-22-1-12 1-9 4h-4v-5l1 2 16-5 5-1 19-1-1-7z" fill="#E5D5CA"/>
<path transform="translate(1141,1026)" d="m0 0 9 2 4 3h4l1 5-9-1-1-2-6 1v2l-7 1-3 3h-7l-4-2 2-1 1-5 5-2 8-1z" fill="#FDB874"/>
<path transform="translate(569,1018)" d="m0 0 4 4 4 20v14l-2 19h-1l-3-24-1-5-2-26z" fill="#DB6929"/>
<path transform="translate(452,1172)" d="m0 0 8 1 5 2 3 3-2 6-6 1h-10l-5-5 1-5 2-2z" fill="#DE6A28"/>
<path transform="translate(590,1147)" d="m0 0 1 4-2 9-1 5 4-1 4-8h5l-2 4-11 11-7 8-4 4h-2v2h-2l2-6 14-31z" fill="#C65622"/>
<path transform="translate(1e3 886)" d="m0 0 1 3h2v3h2l5 9 8 16 2 5v6l-4-2-5-9-6-10-2-2-4-14z" fill="#E06C28"/>
<path transform="translate(835,598)" d="m0 0 6 1 4 6 7 3v2l-15-1h-15l-4-4 6-3 4-3z" fill="#83533B"/>
<path transform="translate(526,1075)" d="m0 0 3 4 7 11 8 12 4 5 13 19 3 8 2 4-1 3-12-18-5-7-6-11-10-16-3-5v-2h-2z" fill="#CF8F64"/>
<path transform="translate(440,1273)" d="m0 0 2 1-27 16-6 4h-2v2l-16 10-11 9-8 7-1 3-2-1 3-5 9-10 12-10 6-3 11-6 26-15z" fill="#E4AA77"/>
<path transform="translate(1e3 1111)" d="m0 0h6v1h-5l2 8 1 3-8 1v3h-2l-1-3-3-1 2 3v9l4 1-1-5 1-3h6l-1 5-4 2v2l-18-1-5-2v-1l8-2 1 3 7 1-1-2-4-1 1-7v-2l-1-3h14z" fill="#D2804D"/>
<path transform="translate(948,847)" d="m0 0h1l2 11v15l-4 16-5 13-2 1 1-13 6-27z" fill="#835139"/>
<path transform="translate(1098,1219)" d="m0 0 2 3v3h2l1-2 1 8-5 4-4 2 1 4 4 1v2l-5 1-1-3h-3v-3l-2-1 4-3v-3l-4-1-1-4-3-1h3l1-5h4l2 4z" fill="#D28654"/>
<path transform="translate(1019,890)" d="m0 0h5l4 5 6 14 4 8 2 7h-4l-8-13-8-16z" fill="#F59345"/>
<path transform="translate(899,492)" d="m0 0 1 3 8-3h2v3l4-2h7l3-1 3 1-1 4-7 3h-5l-1 1-9 1v-3l-3 3-3-1v-2l-5 1 3-6z" fill="#1E1D1F"/>
<path transform="translate(965,1090)" d="m0 0h8l1 6h-11l-4 9h2l2-6 1-2h6l-1 6-5 8h-7l-2-1 3-14h2l2-4z" fill="#F9F3EF"/>
<path transform="translate(506,988)" d="m0 0 2 3 5 25 7 29 3 15 3 11v7l-2-3-8-32-9-39-2-10v-5z" fill="#D9AB82"/>
<path transform="translate(1009,564)" d="m0 0h5l2 3v21l-3 3-4-10-4-9v-5z" fill="#C17445"/>
<path transform="translate(1103,1360)" d="m0 0h2v7l1 3-1 3h-4l1 10-3-3-4-6-2-2-8 5-9 2 4-3 5-3v-2l6 1-1-7v-3l3 1 2 4 2 1 2-4z" fill="#855B44"/>
<path transform="translate(620,907)" d="m0 0 2 2 4 35-1 36-4 22h-1l1-12 1-10v-43l-2-19z" fill="#F0C59C"/>
<path transform="translate(567,1157)" d="m0 0h2l1 2 1 17v11l-2-2v-3l-7 1-2-3 2-9z" fill="#28211F"/>
<path transform="translate(1281,1042)" d="m0 0h6l1 3-1 5h2v2l-4-1-2-1v3l-8 4-6-1v-2h5l-3-5 1-3zm-18 14h6l-1 2h-2l3 3v2l-4-2-2-2z" fill="#D78852"/>
<path transform="translate(705,560)" d="m0 0 5 1 1 3-1 2 3-1v6l-3 7h-2v3l-2 1-1 3-3-4v-15z" fill="#BC7143"/>
<path transform="translate(814,1200)" d="m0 0 5 1 8-1 11 2h10l4-1 10 4v1h-17l-26-2-3-1v15l3 3-5-1-2-5 1-10z" fill="#962F0C"/>
<path transform="translate(562,1164)" d="m0 0 1 3-7 16-1 8h4l4-3 4 1v3l-4 2v2l-4 3-6-2-2-3v-9l2-7z" fill="#C5521E"/>
<path transform="translate(1e3 1100)" d="m0 0 7 2 2 5v3l2 1-1-6 1-3h2l1 10-4 2-4-2-6-1v7h-6l-2-2 1-5 3 1-1 5h2l1-15z" fill="#F6F1ED"/>
<path transform="translate(1177,1070)" d="m0 0h2l1 4 3 2v2l4 2-3 9-4-1-3-4v-4l-5 2v-4l-3 1-3-2v-4l6-2 4 1z" fill="#F59345"/>
<path transform="translate(1113,1192)" d="m0 0 4 1 2-1 1 3-6 2-1 1 2 1 1-2 1 10-1 8h-2l-1 2-2-5h2l2-4-4 1-1-4-4 1-2-4-3 2-3-1h2v-2l8-4z" fill="#D38654"/>
<path transform="translate(1019,1335)" d="m0 0 4 3 2 1-1 3 4-1 1 3h3l1-2 1 3 2 1-2 4 1 4-2 3-5-4-2-6-4 1-2 2-3-8 1-6z" fill="#D2966C"/>
<path transform="translate(848,1046)" d="m0 0 2 1-3 4v4l4 2-2 3-7 2h-4v2l-8 1 1-4 6-7z" fill="#D96A2B"/>
<path transform="translate(1188,1071)" d="m0 0h4l2 5 3 2v-2h2v5l2 1-1 7h-3l-2-1 3 5v2h-3v2l-6-2-1-3h6l-2-6h2l-2-5-2-2v-3h-7l2-4z" fill="#F49245"/>
<path transform="translate(1182,1326)" d="m0 0h3v2l3 1 1 5-5 4-5 5-5-1-1-1 1-7 6-7z" fill="#F9C691"/>
<path transform="translate(939,1329)" d="m0 0 4 1 4 3 7 6 5 6-1 5h-5l-1-3-4-2-8-12v-2l-2-1z" fill="#DE6A28"/>
<path transform="translate(974,1096)" d="m0 0h1l-1 10 4-4v-3l4 1-1 11-4 4-9-1-1-3 5-13z" fill="#F7F1ED"/>
<path transform="translate(1156,1136)" d="m0 0h3l-1 5 4-1 1 5 6 1v3l16 4 2 2 4 2h-10l-2-2-8-2h-5l-3-3 1-2-4 1-2-2v-4l-1 2-4-1-1-3 4 1z" fill="#D3905D"/>
<path transform="translate(872,645)" d="m0 0 10 1h21l5-1-2 4-3 3-12 1-8-2-11-1 1-2z" fill="#83533B"/>
<path transform="translate(1111,1159)" d="m0 0 2 1-17 9-5 3-12 11-2 2 1-4 13-16 2-4 6-1h4z" fill="#E5A974"/>
<path transform="translate(1146,1032)" d="m0 0 4 1v2l6 1-4 1 3 2-3 3-8 3h-4l-1-2h-2v-2h-3l1-4 1-1h7v-2z" fill="#F39347"/>
<path transform="translate(1143,1148)" d="m0 0 9 1 16 6 12 4 15 4 9 3 2 5h2v8h-2l-1-7-2-3-15-5-8-2-19-7-8-3-7-2-6 2h-6l1-2z" fill="#B39987"/>
<path transform="translate(1083,1257)" d="m0 0 8 5 7 8 6 4 4 9 2 25-2-3v-2l-2-1v-18l-9-10-1-2-5-3v-2l-5-1-2-6z" fill="#D59F74"/>
<path transform="translate(1064,1219)" d="m0 0h1v7 3l-1 5 1 5-3 2-1 6-2 3-6 2-2 1 1-6 7-10 3-16z" fill="#F7C48F"/>
<path transform="translate(555,973)" d="m0 0h2l3 14 8 44 1 12h-2l-11-61z" fill="#CEA17D"/>
<path transform="translate(1069,1321)" d="m0 0 3 2-2 3h-2l-1 5 4-4h6v2l5 1-1 4v-2l-3 1-2-2-1 5h-2l-1-3-2 1-3-1-1 5h-2v-3h-3l2-10v-3z" fill="#D18655"/>
<path transform="translate(1283,1050)" d="m0 0 6 2 3 6h-2l-1 5h4l-1 5-2 4-3 1-2-1 1-4 1-6-3 1-1-3-3-1-1-4 4-2z" fill="#C27342"/>
<path transform="translate(546,1114)" d="m0 0 5 5 10 14 7 12 1 4v8h-3l-1-7-8-16-10-17z" fill="#94300D"/>
<path transform="translate(820,942)" d="m0 0h6v1h-5v2h2l2 5h2v2l-7 5-5-1v-2h-2l-1-4 2-5 2-2z" fill="#DD6B2A"/>
<path transform="translate(932,1117)" d="m0 0 15 1 2 1 1 6-6 2 1 3h-5l1-7 2-3h-3l-1 2-5-3v3h3v2h-4v2h2v3l-6-1v-2l2-1z" fill="#FCF8F5"/>
<path transform="translate(991,904)" d="m0 0 2 1 1 5v12l-3 22-3 11-2 18-2 4h-1l1-11 3-18 4-22z" fill="#DEAF85"/>
<path transform="translate(607,1073)" d="m0 0h1l-1 9-2 14 3 3-1 4h2v4l-2 1-2 9v2h-2v-5l-3-1 3-21z" fill="#E98742"/>
<path transform="translate(923,947)" d="m0 0h10l12 5 8 4 12 5 6 5 7 8-1 2-12-11-16-8-14-6-10-2-2 1z" fill="#CE5920"/>
<path transform="translate(1024,1128)" d="m0 0h15l4 1 1 3-3 9h-7v-8l-2-1v-2l-7 1z" fill="#C7A792"/>
<path transform="translate(435,1279)" d="m0 0 3 1-8 6-15 9-9 7-8 4-8 8 1-5 11-9 16-10 9-6z" fill="#D96B2B"/>
<path transform="translate(1122,1210)" d="m0 0 6 2v-2h2l1 5 1-2-1 6-5 8h-3l-5 4h-4l1-3h2v-3l4-2 2-5h2v-2h2l-1-2-4-2z" fill="#D0946B"/>
<path transform="translate(985,1100)" d="m0 0 10 2 1 4-4 7h-9z" fill="#F3E5DB"/>
<path transform="translate(1193,1403)" d="m0 0h7l3 7-4 1h-8l-7-1-3-3 1-3h10z" fill="#1C1C1E"/>
<path transform="translate(1163,1377)" d="m0 0 5 5 2 5 8 4 4-5v11l-6-2-6-4-1 6-2-1-3-12z" fill="#865C45"/>
<path transform="translate(859,1039)" d="m0 0h3l-2 6-8 11-4 1-2-7 5-6z" fill="#C55420"/>
<path transform="translate(704,558)" d="m0 0h3v2l-3 3-1 3v15l2 3v-3h3v-3h2l-3 12-2 2-2-1-1 4-2-6v-19l2-9z" fill="#CE966F"/>
<path transform="translate(469,1259)" d="m0 0 5 1-1 3-15 8-4 1 3-3 5-3-6 1-12 6-2-1 5-2v-2l3-3h6v-2z" fill="#ECB581"/>
<path transform="translate(1213,1033)" d="m0 0 5 2v2l4 1 3 5-1 5-9-2-3-5v-7z" fill="#B09685"/>
<path transform="translate(734,806)" d="m0 0 1 4-1 2h-2l2 16 6 16-1 3-9-19-2-6v-9l3-5z" fill="#84543C"/>
<path transform="translate(1049,1359)" d="m0 0 1 2v9l-1 5 1 3-4-1v7h-2l-3-5 1-10h2l1-8z" fill="#875C44"/>
<path transform="translate(1171,1045)" d="m0 0h3v2h2l-1 5-3 1h-3l-5 4h-6v-6l5-1 1-3z" fill="#B97C55"/>
<path transform="translate(1094,1271)" d="m0 0 3 1 4 5v2l3 1 3 4v11l-4-5-3-4-1-5-2-1 1 3-2 4-1-5z" fill="#D38956"/>
<path transform="translate(1076,1225)" d="m0 0 4 4 5 1 2 7h-4l-2 7h-2l-1-5v-3l-5 1v-5l2-2z" fill="#D49261"/>
<path transform="translate(680,1223)" d="m0 0v3l-7 8-6 10-4-1-1-4 4-8 11-6z" fill="#835038"/>
<path transform="translate(1042,1106)" d="m0 0h6v2h3v11l-9-1-1-3v-8z" fill="#CFB29E"/>
<path transform="translate(1125,977)" d="m0 0 2 4v9l-1 5-2 1v9l-4 2-1-4 3-17z" fill="#F59345"/>
<path transform="translate(696,858)" d="m0 0 3 2 6 20 5 18 4 9-1 3-2-3-3-6-2-6-6-21z" fill="#F1C8A0"/>
<path transform="translate(1076,1124)" d="m0 0 2 4 1 6 3 1 2 4-2-6 1-6h3l1 9-1 9v9l-2-2-8-23z" fill="#C7936D"/>
<path transform="translate(856,999)" d="m0 0m-2 1 2 1-7 8-8 7-6 6-1 6h-4v-2h-6l5-4 13-11z" fill="#E8CFBB"/>
<path transform="translate(1123,957)" d="m0 0 3 1 2 9v21h-2v-7l-1-3-1 5h-1z" fill="#FCB774"/>
<path transform="translate(1160,1214)" d="m0 0h1l1 10 2 2 2-2v11l4 2 7 8 4 3 2 6-18-18-6-10-1-7h1z" fill="#D0956B"/>
<path transform="translate(1243,1375)" d="m0 0 1 3-4 8-4 10-5 3-4-6-6-2h-5l1-3 14 3 5-2 3-8z" fill="#B39987"/>
<path transform="translate(1128,1369)" d="m0 0h2l8 16 9 19-1 3-14-25-4-10z" fill="#1C1C1E"/>
<path transform="translate(1074,1236)" d="m0 0h4l1 8 2-1 1-7 3 1 1 5-4 7-2 3-5-1 3-1-3-7-3-1 1-5z" fill="#D38B58"/>
<path transform="translate(934,1119)" d="m0 0 5 2 4-1-3 10h5v-2l-2-1 6-2v-5l2 1v2h2l1-3h3v2h-2l-1 6h-5l-3 1v2h-7l-1-4-5-1v-2h4v-2h-3z" fill="#C97D50"/>
<path transform="translate(832,644)" d="m0 0h12l8 2v1h-27l-14 2h-13l-1-3h18z" fill="#1C1C1E"/>
<path transform="translate(1087,1142)" d="m0 0h2v2l3-1 2 4 6 1 1 1v7l-4 1-3-2v-2h-2l-1 3-1-6v-2l-3-3z" fill="#C27342"/>
<path transform="translate(1029,888)" d="m0 0 5 2 4 5 6 16 7 28v2h-2l-6-25-5-13-7-12z" fill="#F4C99E"/>
<path transform="translate(966,846)" d="m0 0 4 3 4 8 5 6 4 8 6 20-1 3-3-8-5-15-6-9-5-7z" fill="#F3B375"/>
<path transform="translate(737,846)" d="m0 0 4 5 7 11 5 6-1 2-11-7-4-9z" fill="#DE6A28"/>
<path transform="translate(832,994)" d="m0 0h2l2 6 4 2 5 5-2 4-4 3-1-6h-2l-1-5-3-1-1-7z" fill="#ED7C2F"/>
<path transform="translate(737,799)" d="m0 0h3l-1 5-4 4h-4l-2 5-1 6-2-1v-10l3-5z" fill="#BE5120"/>
<path transform="translate(863,408)" d="m0 0 5 1 1 4-1 4-2 2h-6l-3-3v-4z" fill="#FEFDFD"/>
<path transform="translate(1193,1206)" d="m0 0 8 2 1 5-1 4 4 2 5 3 1 4-1 3-6-1v2l-3-1 2-4 3-2-7-6v-5h-2l-1-3-3-1z" fill="#D3905D"/>
<path transform="translate(727,1196)" d="m0 0h13v1l-21 3-16 7-12 8-6 6h-2l1-3 11-9 19-10 5-2z" fill="#83523B"/>
<path transform="translate(673,1060)" d="m0 0 1 3-3 5-4 11-2 1v-2h-4v-9l2-3 5 2z" fill="#D8915C"/>
<path transform="translate(384,1318)" d="m0 0 2 1-5 6-9 17-3-1v-6l7-10z" fill="#C14E1B"/>
<path transform="translate(976,1121)" d="m0 0h6l1 1v10l-1 1h-6l-2-2 1-9z" fill="#F9F5F4"/>
<path transform="translate(1045,1131)" d="m0 0h9v6l-3 2v4l-7-1v-10z" fill="#BD805B"/>
<path transform="translate(1075,1076)" d="m0 0h1l-2 42h-1l-2-8v-21l2-6z" fill="#D8D2CE"/>
<path transform="translate(1130,1075)" d="m0 0h3v7l-1 2h2v-2h3v4l3 1v2l3 1h-7l-3-2v-3h-3l-3 4h-2l1-9-2-1h3v3h3z" fill="#D4905C"/>
<path transform="translate(683,841)" d="m0 0 2 4 5 20 1 7v12h-1l-5-23-2-13z" fill="#DEA879"/>
<path transform="translate(1246,1370)" d="m0 0 4 2 5 5v2l4 2-1 4v-3l-7-1-4-2-2 2-2 3-1-4 3-9z" fill="#855A43"/>
<path transform="translate(770,1184)" d="m0 0m-2 1h2v2l-11 5-13 4-24 1 3-2 24-3 10-3z" fill="#855A43"/>
<path transform="translate(797,1171)" d="m0 0h2l-1 10-1 6-6-3-2-2v-6z" fill="#DA6727"/>
<path transform="translate(824 1e3)" d="m0 0 1 2 3 1 5 5v3l3 1-3 3-4-1-3-1-5-10z" fill="#C5511D"/>
<path transform="translate(913,523)" d="m0 0h9l12 3 10 5 5 6-10-3v-2l-13-5-13-2z" fill="#84553D"/>
<path transform="translate(383,1311)" d="m0 0h5l-2 4-3 1v2l-9 7-2 1-3 8-1-3 1-6h2l1-4 10-9z" fill="#DA915B"/>
<path transform="translate(877,1197)" d="m0 0 2 3 4 12 2 12v6l-3-3 1-2h-2l-2-9-2-13z" fill="#EE7B2D"/>
<path transform="translate(818,1158)" d="m0 0h2l-1 21-2 13-2 3v-13l2-23z" fill="#962F0C"/>
<path transform="translate(975,1096)" d="m0 0h7l1 1 9 1-1 3-6-1-1 10-2-4-1-6-3-1 2 3-1 3-2-2-4 4z" fill="#E5A36F"/>
<path transform="translate(1067,1094)" d="m0 0h1l4 32v2l2 1-1 1v17h-1l-6-47z" fill="#E5D4C9"/>
<path transform="translate(901,1106)" d="m0 0 3 1v8h5l2 5-2 5-5-2-2-3v-7l-2-5z" fill="#C5501C"/>
<path transform="translate(1113,1095)" d="m0 0h3v5l-5 1-1 4-4 2-1-6h-2l-1 2-1-4 6-3 3 1z" fill="#D38654"/>
<path transform="translate(893,311)" d="m0 0 3 1 1 3-1 3 6-1-1 4-1 2h-2l-2-2-2 4-4 1-1-3 3-6h-3l-1-4 4 1z" fill="#B39987"/>
<path transform="translate(811,1219)" d="m0 0 5 3 12 2 2 2h-6l-1 4-5 1-5-5-2-4z" fill="#E06D2A"/>
<path transform="translate(1106,1145)" d="m0 0 2 1-1 2h3l1 3 4 2v3l-4 2h-5l-4-4v-3h3z" fill="#D08855"/>
<path transform="translate(1152,1057)" d="m0 0 6 1v3l-5 5-6 4h-8l-1-2 7-2 4-4h3z" fill="#B67850"/>
<path transform="translate(1222,1278)" d="m0 0 2 1v2l19 1 3 2-1 2h-11l-13-2z" fill="#D29161"/>
<path transform="translate(1e3 1100)" d="m0 0 6 1v2h-4l-1 2 4 1-5 1v2l5 1v1h-5v7h-6l-2-2 1-5 3 1-1 5h2l1-15z" fill="#FAF7F6"/>
<path transform="translate(1027,1130)" d="m0 0h5l1 2 2-1v7l-1 3-4 1-4-2 5-1 1-3h-2v3h-4l-1-6z" fill="#CA8257"/>
<path transform="translate(825,938)" d="m0 0 10 5-6 7-5 1-1-6h-2v-2l5-1z" fill="#F19952"/>
<path transform="translate(682,834)" d="m0 0h2l1 3v8l-3-2v-3l-18 5-2-1 4-3z" fill="#F4C99D"/>
<path transform="translate(1162,1205)" d="m0 0h2l2 6 2 2-5 1 4 8v2h-2l-1 3-3-3-1-12z" fill="#D38654"/>
<path transform="translate(1111,1191)" d="m0 0h2l-2 4-3 3-12 6h-2v-4l4-4 7-1 4-1v-2z" fill="#D29161"/>
<path transform="translate(1030,1009)" d="m0 0h4l4 7-1 7-3 1-3-4-1-4z" fill="#EE7B2D"/>
<path transform="translate(1186,1219)" d="m0 0 7 7-1-3h5l2 4-7 4-6-2-1-6z" fill="#D3905D"/>
<path transform="translate(998,1128)" d="m0 0h6l-1 5-4 2v2l-18-1-5-2v-1l8-2 1 3h9l4 2-1-5z" fill="#D4834F"/>
<path transform="translate(1148,1056)" d="m0 0 2 1v3l-4 4-9 1-9-2-7-2v-1l11-3 3 4h4v2l7-3z" fill="#CE9268"/>
<path transform="translate(1276,1062)" d="m0 0h2l-1 6-1 3v5l-2 1v-2l-2-1-3-5v-6l3 1 2 1v-2z" fill="#D38E5A"/>
<path transform="translate(1082,1205)" d="m0 0 6 2 2-1-3 6-8 1-2 11h-2l-1-5v-6l4-4 5 1z" fill="#D29263"/>
<path transform="translate(1178,1062)" d="m0 0h7l1 2-6 2-3 2h-5l-4 3-6-1v-3l9-2h5v-2z" fill="#FCB774"/>
<path transform="translate(1255,1040)" d="m0 0 9 1 1 3-2 1 1 2-2 2v-2l-3 2-5-1-1-6z" fill="#FCB774"/>
<path transform="translate(1202,1254)" d="m0 0 4 1 1 3 3 2 1-1h5l1 4-4 1-10-2-3-5v-2z" fill="#83533B"/>
<path transform="translate(952,1118)" d="m0 0h8v4l3 5h-4l-1 3h-6l3-8h2v-2l-3 1-1 2h-2z" fill="#E9B391"/>
<path transform="translate(989,1099)" d="m0 0h5l4 1h2v15l-1 2h-2v-5l-3-1 1-8-6-3z" fill="#D8844E"/>
<path transform="translate(707,924)" d="m0 0 3 3 1 3 2 1 4 8 4 10 2 6-3-1v-4l-3-1-10-23z" fill="#C07749"/>
<path transform="translate(1236,1400)" d="m0 0 3 1 1 9h-14l5-4z" fill="#1C1C1E"/>
<path transform="translate(570,1188)" d="m0 0h2l-2 4-14 12-6 5h-2l-2 4-3 3-2-1 10-11 4-1 1-3 5-4h2v-2z" fill="#E3C7B1"/>
<path transform="translate(1120,1112)" d="m0 0h3l-1 7h2l1-4 2 4-2 6v6l-3 3v-3l1-4-3 1 1-10-4 1z" fill="#C27342"/>
<path transform="translate(497,970)" d="m0 0 4 5 7 12 1 8-3-6-3-1-5-9-2-8z" fill="#ECC49D"/>
<path transform="translate(964,1118)" d="m0 0 9 2v6l-5 1 1 4h-5l2-11h-2z" fill="#EFE7E3"/>
<path transform="translate(460,947)" d="m0 0h14l4 3-6 2-7 1-7-2z" fill="#F2CAA2"/>
<path transform="translate(622,1137)" d="m0 0m-1 1m-1 1m-1 1m-1 1m-2 1 2 1-10 10-4 5h-2v2h-2v2l-8 7-5 4 2-4z" fill="#E8C7AB"/>
<path transform="translate(1275,1045)" d="m0 0 2 1-1 4 3 4-3 3-7-1v-2h5l-3-5 1-3zm-12 11h6l-1 2h-2l3 3v2l-4-2-2-2z" fill="#DA9057"/>
<path transform="translate(1089,1362)" d="m0 0 4 1 3 6-5 5-8 4-7 1 4-3 5-3v-2l6 1-1-7z" fill="#865C45"/>
<path transform="translate(1182,1157)" d="m0 0h9l5 2 5 1 9 5 1 2h-5l-9-4-5-2-10-1z" fill="#D0956C"/>
<path transform="translate(1017,1105)" d="m0 0h2v7h3v-6h2l1 5h2v-5l5 1 1 2-2 3v-4h-3v5h2v2l-4-1v-2l-3 2h-6z" fill="#FCF9F8"/>
<path transform="translate(666,1034)" d="m0 0h13l7 1-3 4-14-1-4-1z" fill="#C69978"/>
<path transform="translate(780,524)" d="m0 0h7l-1 2-10 3-1 2-8 2-7 2 4-4 10-5z" fill="#584035"/>
<path transform="translate(1185,1075)" d="m0 0 5 1 4 8v2h-10l2-6-3-2v-2z" fill="#D99660"/>
<path transform="translate(1187,1063)" d="m0 0 2 3-8 6-1-2 1-2-5 1v2h-8l4-4h5l4-3z" fill="#F59345"/>
<path transform="translate(569,1018)" d="m0 0 3 2v27l-2-1-2-26z" fill="#ED7B2D"/>
<path transform="translate(1165,979)" d="m0 0 4 5 5 12 1 2-6-1-3-8z" fill="#F6B77C"/>
<path transform="translate(972,1094)" d="m0 0 1 4-4 11-2-4 3-8h-6l-2 6-1 2h-2l2-8 2-2h8z" fill="#CD9067"/>
<path transform="translate(990,1093)" d="m0 0 7 1 2 1-1 6-4-1-9-2v-2z" fill="#F8F4F1"/>
<path transform="translate(506,988)" d="m0 0 2 3 4 21v5l-2-1-4-15-1-12z" fill="#DEAE82"/>
<path transform="translate(719,876)" d="m0 0h4l-2 5-7 5h-3l-1-7 8-2z" fill="#E8AB74"/>
<path transform="translate(947,863)" d="m0 0h1l-1 13-3 11v11l-3 5h-1l1-13z" fill="#865C45"/>
<path transform="translate(613,873)" d="m0 0h2l2 7 3 19v11h-1l-5-28z" fill="#F1CBA5"/>
<path transform="translate(708,818)" d="m0 0 2 1-4 3-9 5-3 10-1 11h-1v-20l10-7z" fill="#F3CAA0"/>
<path transform="translate(794,644)" d="m0 0 26 1v1l-9 1-14-1 1 2 5 1-3 2-5-1-3-3v-2z" fill="#8C624C"/>
<path transform="translate(864,598)" d="m0 0h7l8 3v2h-14l-3-1v-2h2z" fill="#2D2522"/>
<path transform="translate(1121,1350)" d="m0 0 3 1 8 17 5 11-1 2-4-6-9-21-2 3z" fill="#865C45"/>
<path transform="translate(1270,1084)" d="m0 0h7l3 2-10 10-1-3z" fill="#B39987"/>
<path transform="translate(517,1046)" d="m0 0h2l6 21 1 4v7l-2-3-7-28z" fill="#E7AC76"/>
<path transform="translate(1055,980)" d="m0 0h1l2 28v13h-1l-2-12z" fill="#EACBB0"/>
<path transform="translate(552,950)" d="m0 0h1l4 23h-2l-1 4-3-18z" fill="#DBB99A"/>
<path transform="translate(458,951)" d="m0 0 8 1 7-1 1 2-5 4-1 2-5-2-1-3-5-1z" fill="#FCB874"/>
<path transform="translate(458,1265)" d="m0 0h5l-4 4-14 7-2-1 5-5z" fill="#F18B3E"/>
<path transform="translate(1026,1129)" d="m0 0h12l3 2h-5v2l3 1-3 6 6-3-1 4h-7v-8l-2-1v-2l-6 1z" fill="#FAF9F8"/>
<path transform="translate(989,872)" d="m0 0 2 2 4 8 7 11 2 7v5l-2-3-5-13-7-10z" fill="#CE956C"/>
<path transform="translate(881,603)" d="m0 0 5 3-1 3-7 1-8-1 1-3 8-1h2z" fill="#855B44"/>
<path transform="translate(1101,1362)" d="m0 0h2v8l-4 2-1 3-4-2 2-5z" fill="#835139"/>
<path transform="translate(466,1260)" d="m0 0 1 2-5 3-8 3-10 5-2-1 5-2v-2l3-3h6v-2z" fill="#E3B78F"/>
<path transform="translate(988,589)" d="m0 0 4 1 1 5-2 6-1 2h-2l-1-2v-9z" fill="#84553D"/>
<path transform="translate(1167,1150)" d="m0 0 10 1 8 2 2 2 4 2h-10l-2-2-8-2h-5l-1-2z" fill="#D29160"/>
<path transform="translate(1118,1062)" d="m0 0 4 3 10 2-4 2v2l-1 4-4-2-2-5-3-3z" fill="#C98A5D"/>
<path transform="translate(552,928)" d="m0 0 3 2 6 22v4h-2l-4-13z" fill="#DEA97B"/>
<path transform="translate(970,850)" d="m0 0 5 3 6 8 3 10h-2l-5-10-6-7z" fill="#F3C99F"/>
<path transform="translate(1071,1310)" d="m0 0h5v2l4-2h4l3 2h-4v4h-8l-3-2z" fill="#F49345"/>
<path transform="translate(1063,1254)" d="m0 0 5 5-1 1h-8l-3 3-3-2 2-6 5 1z" fill="#F6A864"/>
<path transform="translate(791,1172)" d="m0 0h5l-5 4-20 11v-3l11-6z" fill="#84563F"/>
<path transform="translate(699,1027)" d="m0 0h9l3 2-10 2-12 3v-2z" fill="#FDFCFC"/>
<path transform="translate(403,1302)" d="m0 0 2 1-10 9-12 12-2-1 6-7 1-2 5-3 1-3z" fill="#C06F3E"/>
<path transform="translate(833,642)" d="m0 0h16l1 3h-29l4-2z" fill="#84553D"/>
<path transform="translate(878,308)" d="m0 0 2 4v5l1-1 5-4-1 6 4-1v2h-5-1l-2 5-4-5v-10z" fill="#B39987"/>
<path transform="translate(1e3 1111)" d="m0 0h6v1h-5l2 8 1 3-9 1v-2h-9l-1-2h14z" fill="#E48340"/>
<path transform="translate(902,523)" d="m0 0h9v1l-10 2-7 4-4 3v-2h-2l2-4 6-3z" fill="#855840"/>
<path transform="translate(661,843)" d="m0 0 2 1-2 3-21 6-5 1 3-3z" fill="#F8C693"/>
<path transform="translate(1017,1340)" d="m0 0h3v2h3v4h6l-1 3h3l-1 3-3-1-1-4-4 1-2 2-3-8z" fill="#D28956"/>
<path transform="translate(982,977)" d="m0 0 2 1v10l4-1 1-9 2-1-1 12-4 2-4-1-1-11z" fill="#C89571"/>
<path transform="translate(637,1283)" d="m0 0v3l-11 16-6 8v-3l12-18z" fill="#835038"/>
<path transform="translate(1118,1006)" d="m0 0h1v6l-11 8-6 5h-2l2-4 13-10 2-1z" fill="#E5D5CA"/>
<path transform="translate(946,837)" d="m0 0 4 5 2 11v13h-1l-3-19-2-4z" fill="#C5501C"/>
<path transform="translate(1293,1047)" d="m0 0 4 1 3 5-1 8-2-1v-2h-2l-2-9z" fill="#D38654"/>
<path transform="translate(566,991)" d="m0 0 3 2 3 15v9h-1l-3-12-2-10z" fill="#CE946B"/>
<path transform="translate(1122,986)" d="m0 0 1 4 1 15-4 2-1-4z" fill="#E89F63"/>
<path transform="translate(1049,1385)" d="m0 0 5 3 5 4 10 4v1l-6 1-6-4-2-2-2 1v-3l-5-2z" fill="#855A43"/>
<path transform="translate(985,1122)" d="m0 0 5 1-2 9h4v3h-7l-1-4z" fill="#F9F5F2"/>
<path transform="translate(1133,1065)" d="m0 0 9 1v2l-3 1-2 4-5-2v-4l-2-1z" fill="#865E44"/>
<path transform="translate(1083,1211)" d="m0 0h2l1 3h-6v3h-2l2 9 5 1-1 2-5 1-3-6 1-8v-3z" fill="#D38654"/>
<path transform="translate(1102,1154)" d="m0 0 4 2-1 4-5 2-5-1 1-5h6z" fill="#D38E5D"/>
<path transform="translate(1121,1150)" d="m0 0 7 1 5 1v1l-11 1-2 2h-4v-4z" fill="#C49777"/>
<path transform="translate(673,1060)" d="m0 0 1 3-3 5-4 11-2 1v-2l-2-1 3-1 1-5-2-1-2-4 5 2z" fill="#E4A772"/>
<path transform="translate(1130,1381)" d="m0 0 3 1 7 13-1 3-6-7z" fill="#926D57"/>
<path transform="translate(1071,1327)" d="m0 0h6v2l5 1-1 4v-2l-3 1-2-2-1 5h-2l-1-5-2-2z" fill="#D38654"/>
<path transform="translate(1099,1295)" d="m0 0 3 1 3 3 2 10h-2l-5-8-3-4z" fill="#D28755"/>
<path transform="translate(418,1254)" d="m0 0 3 1-19 8-8 5-2-1 5-4 15-7z" fill="#C27342"/>
<path transform="translate(1082,1236)" d="m0 0 3 1 1 5-4 7-2 3-5-1 5-4z" fill="#C27342"/>
<path transform="translate(1206,1221)" d="m0 0 4 1 1 4-1 3-6-1v2l-3-1 2-4 3-2z" fill="#D38F5B"/>
<path transform="translate(932,1117)" d="m0 0h6v3l-4-1v3h3v2h-4v2h2v3l-6-1v-2l2-1z" fill="#F7F3F1"/>
<path transform="translate(926,936)" d="m0 0 1 2-6 7-2 2-7 1-4 7-1-4 5-6 9-3z" fill="#DFA270"/>
<path transform="translate(400,1299)" d="m0 0m-1 1m-2 1h2l-2 4-8 7h-4l2-4z" fill="#F29146"/>
<path transform="translate(1092,1153)" d="m0 0h2l2 3-1 5h-3l-6-5 1-2z" fill="#C88255"/>
<path transform="translate(545,932)" d="m0 0h2l5 17-1 5h-1l-4-15z" fill="#EEC9A5"/>
<path transform="translate(1179,1199)" d="m0 0 7 7 2 1v2h-2v2l-5-1-1-3 1-5-4-1z" fill="#D4905C"/>
<path transform="translate(934,1119)" d="m0 0 5 2 4-1-2 7h-3l-5-1v-2h4v-2h-3z" fill="#C2784D"/>
<path transform="translate(1041,1107)" d="m0 0h2l1 2 3-2v8l-1 2-5-1z" fill="#F0E9E5"/>
<path transform="translate(737,799)" d="m0 0h3l-1 3-6 2-4 4-2 10h-1v-10l3-5z" fill="#D16D33"/>
<path transform="translate(930,311)" d="m0 0 6 2 5 2-3 2h-4v2h-2v-3l-4 1 1-4z" fill="#B39987"/>
<path transform="translate(1114,1145)" d="m0 0 3 1-1 6v5l-5 3h-6v-2l10-2-1-3-2-2z" fill="#D29161"/>
<path transform="translate(1045,1131)" d="m0 0h7l1 5-2-1v-2h-4v8l3-1-1 3-5-1v-10z" fill="#F9F8F8"/>
<path transform="translate(1070,1110)" d="m0 0h2l2 10v8h-2l-1-2z" fill="#FEFDFD"/>
<path transform="translate(880,649)" d="m0 0h22l-1 2-10 2-11-3z" fill="#1C1C1E"/>
<path transform="translate(1009,565)" d="m0 0h4l2 5-2 4h-2v-2h-2l-2-5z" fill="#84543C"/>
<path transform="translate(1088,1344)" d="m0 0h5l3 4h-2l-1 6h-2l-3-7z" fill="#D0956C"/>
<path transform="translate(384,1306)" d="m0 0 2 1-6 6-3 5-5 4-1 3-2-1 3-5 9-10z" fill="#C39B7D"/>
<path transform="translate(435,1279)" d="m0 0 3 1-8 6-9 5 1-4z" fill="#DB6E2D"/>
<path transform="translate(618,1310)" d="m0 0v3l-6 8-4 5h-2l2-5z" fill="#875036"/>
<path transform="translate(1086,1240)" d="m0 0h3l5 2 1 2 10 1-1 2h-7l-10-3-3 1z" fill="#D0946B"/>
<path transform="translate(797,968)" d="m0 0h7v5l-4 4-2-2z" fill="#DB6A2A"/>
<path transform="translate(1112,1056)" d="m0 0 5 2 4 4 9 3v1h-8l-3-3-4-2v-2h-2z" fill="#49342A"/>
<path transform="translate(832,644)" d="m0 0h12l8 2v1h-10l-12-1z" fill="#231F1F"/>
<path transform="translate(843,602)" d="m0 0 3 2h10v2l5-4v4l-3 2h-7l-7-3z" fill="#865C45"/>
<path transform="translate(1094,1271)" d="m0 0 3 1 2 8h-2l1 3-2 4-1-5z" fill="#D38654"/>
<path transform="translate(1128,1090)" d="m0 0 1 2 6-1v7l-2 2-1-2-4-1z" fill="#C27342"/>
<path transform="translate(862,917)" d="m0 0 2 1-6 7-5 3h-2l2-4z" fill="#F8F4F1"/>
<path transform="translate(402,1300)" d="m0 0h4v2l-8 4-8 8 1-5z" fill="#CC632B"/>
<path transform="translate(859,1186)" d="m0 0 6 2 2 5-7-1-3-5z" fill="#DE6A28"/>
<path transform="translate(1034,1107)" d="m0 0 5 1 1 1v6h-3l1-6h-2v7h-3z" fill="#F9F6F5"/>
<path transform="translate(1170,1048)" d="m0 0h3l-2 4-7 5h-6l3-3 6-3z" fill="#1C1C1E"/>
<path transform="translate(991,904)" d="m0 0 2 1 1 5v12l-2 4z" fill="#D9A97F"/>
<path transform="translate(706,887)" d="m0 0h1l4 13 3 9-2 1-4-9-2-6z" fill="#EABF96"/>
<path transform="translate(691,876)" d="m0 0h1l3 12 1 11-2-2-3-11z" fill="#C29677"/>
<path transform="translate(1186,1379)" d="m0 0 8 2 1 2-7 2h-3l-2-1z" fill="#865C45"/>
<path transform="translate(606,1326)" d="m0 0v3l-7 9h-2l1-6z" fill="#835038"/>
<path transform="translate(1069,1321)" d="m0 0 3 2-2 3h-2l-1 3-3-1-1-6z" fill="#D28D59"/>
<path transform="translate(1107,1284)" d="m0 0h1l2 19v5l-2-3v-2l-2-1z" fill="#D0956C"/>
<path transform="translate(410,1287)" d="m0 0 2 1-4 4-9 5-3-1z" fill="#E3C7AE"/>
<path transform="translate(451,1272)" d="m0 0 3 1-19 11-2-1 14-9z" fill="#DA9866"/>
<path transform="translate(1081,1230)" d="m0 0h4l2 7h-4v-3l-5 1v-3z" fill="#D3976B"/>
<path transform="translate(1150,1059)" d="m0 0 3 3-1 2h-4l-5 4-1-2h-6l-1-2h11l2-4z" fill="#B19785"/>
<path transform="translate(1131,1057)" d="m0 0 2 1 2 5h-7l-7-2v-1z" fill="#CF946A"/>
<path transform="translate(379,1325)" d="m0 0 1 2-8 15-2-1 3-9 3-1 2-5z" fill="#8B4529"/>
<path transform="translate(1182,1316)" d="m0 0m-1 1h5l-1 2-10 5-3-1 1-5 1 2z" fill="#D29160"/>
<path transform="translate(935,1126)" d="m0 0 4 1v5l-5 1-1-3-4-1 3-1 3 1z" fill="#E17B37"/>
<path transform="translate(814,1022)" d="m0 0 5 5-4 4h-2l-2-4z" fill="#EE7E30"/>
<path transform="translate(564,970)" d="m0 0h1l3 17v5l-2-1-2-8z" fill="#CA9874"/>
<path transform="translate(1076,1225)" d="m0 0 4 4 2 1-8 6-1-4 2-2z" fill="#D29263"/>
<path transform="translate(1175,1154)" d="m0 0 5 1 2 2 8 1v1l-10 1-5-2-1-3z" fill="#E4A874"/>
<path transform="translate(1041,1140)" d="m0 0 1 2-3 10-3 3 1-6 2-7h-5v-1z" fill="#C89976"/>
<path transform="translate(1026,1131)" d="m0 0h5l-1 8h-4l-1-6z" fill="#C45F2E"/>
<path transform="translate(965,963)" d="m0 0 4 1 9 10-1 2-12-11z" fill="#D46023"/>
<path transform="translate(887,648)" d="m0 0h18l-2 4-4-1 2-1h-14z" fill="#835139"/>
<path transform="translate(1132,1145)" d="m0 0 4 2-2 5h-6l2-5z" fill="#DA9E70"/>
<path transform="translate(1117,1146)" d="m0 0 8 1v3l-10 2z" fill="#D28553"/>
<path transform="translate(1069,1134)" d="m0 0 2 4 1 1v17h-1l-2-16z" fill="#C66939"/>
<path transform="translate(1095,1116)" d="m0 0h2v2l3-1-1 4-2 2v-2l-6 2 2-5z" fill="#D4905C"/>
<path transform="translate(907 1e3)" d="m0 0 2 1-5 5-11 8-2-1 7-6z" fill="#C27342"/>
<path transform="translate(555,973)" d="m0 0h2l3 14v5l-2-4-2-6z" fill="#D5A57B"/>
<path transform="translate(1e3 886)" d="m0 0 1 3h2v3h2l3 6-1 2-5-6-3-3z" fill="#ED7B2E"/>
<path transform="translate(1138,1144)" d="m0 0 9 3-4 2-8 1 2-5z" fill="#E6AB75"/>
<path transform="translate(486,958)" d="m0 0 7 6 4 4-1 2-3-1-5-6-3-3z" fill="#F1CBA6"/>
<path transform="translate(834,599)" d="m0 0 6 1v2l-5 1h-8l2-3z" fill="#1C1C1E"/>
<path transform="translate(1051,1334)" d="m0 0h3v2l-8 6h-2v2l-3 1 1-4 2-2 5-2z" fill="#D99E6F"/>
<path transform="translate(391,1264)" d="m0 0 4 1-10 6-3-1 5-5z" fill="#C5501C"/>
<path transform="translate(1161,1215)" d="m0 0 5 5 1 4h-2l-1 3-3-3z" fill="#D38E5B"/>
<path transform="translate(1289,1052)" d="m0 0h2v2l2 1 1 6-1 4v-2h-4l1-5v-2z" fill="#D38654"/>
<path transform="translate(905,645)" d="m0 0h3l-2 4-24-1v-1l21-1z" fill="#865C45"/>
<path transform="translate(1078,1345)" d="m0 0h2l3 9-4-2-5-4z" fill="#875C44"/>
<path transform="translate(1019,1335)" d="m0 0 4 3 2 1-1 7-1-4h-3v-2h-3z" fill="#D29162"/>
<path transform="translate(421,1281)" d="m0 0 4 1-13 8-2-1 4-4z" fill="#F1CBA5"/>
<path transform="translate(1138,1141)" d="m0 0 5 3 6 2-4 1-7-2-3 2-2-1 1-3 3 1z" fill="#D29365"/>
<path transform="translate(555,1124)" d="m0 0 5 5 6 9-1 3-10-15z" fill="#C36431"/>
<path transform="translate(947,1119)" d="m0 0h2l1 6-1 1h-5v-5z" fill="#DECFC6"/>
<path transform="translate(1293,1055)" d="m0 0 2 1v2h2l1 6-4 3z" fill="#D3905C"/>
<path transform="translate(856,999)" d="m0 0m-2 1 2 1-7 8-3 2-3-1z" fill="#EBCBAE"/>
<path transform="translate(808,524)" d="m0 0 9 3 3 2v2l2 1-1 3-8-7-5-3z" fill="#8F6751"/>
<path transform="translate(366,1288)" d="m0 0h1l-1 11-3-1v-7z" fill="#B85426"/>
<path transform="translate(696,1208)" d="m0 0h2l-1 3-8 6-4 4h-2l1-3 11-9z" fill="#84553D"/>
<path transform="translate(1118,1208)" d="m0 0 1 2h2v2l6 2v2h-2l-1 2-4-2-2-5z" fill="#D38A57"/>
<path transform="translate(1082,1205)" d="m0 0 6 2 2-1-3 6-7-1 3-1z" fill="#D19366"/>
<path transform="translate(1171,1071)" d="m0 0m-3 1 4 1-1 5h-3l-2-1v-4z" fill="#E6904E"/>
<path transform="translate(1152,1057)" d="m0 0 6 1v3l-1 2-5-1z" fill="#70594C"/>
<path transform="translate(613,873)" d="m0 0h2l2 7v9l-2-2-2-10z" fill="#F4C99F"/>
<path transform="translate(734,806)" d="m0 0 1 4-1 2h-2l-2 6h-1v-7z" fill="#612D1B"/>
<path transform="translate(1027,1269)" d="m0 0 4 1 1 2-5 5h-2l-1-4h2z" fill="#DD6B29"/>
<path transform="translate(1098,1219)" d="m0 0 2 3v3h2l1-2-1 5-2 2v-3l-3-1-1-4z" fill="#D09367"/>
<path transform="translate(1064,1219)" d="m0 0h1v7 3l-4 2 1-10z" fill="#F3BD88"/>
<path transform="translate(952,1118)" d="m0 0h8l1 3-4 1v-2l-3 1-1 2h-2z" fill="#F6EFEB"/>
<path transform="translate(1188,1092)" d="m0 0h5 2l3 1v2h-3v2l-6-2z" fill="#F3964B"/>
<path transform="translate(864,1081)" d="m0 0 3 1 2 6h-6v-6z" fill="#C4511D"/>
<path transform="translate(1171,1045)" d="m0 0h3v2h2l-1 5-3 1 1-5-4 1v-3z" fill="#AD704C"/>
<path transform="translate(923,956)" d="m0 0h8v1l-7 2-10 4 1-3z" fill="#F9F6F4"/>
<path transform="translate(1050,1332)" d="m0 0h6l-2 2h-3l-2 4-5 1z" fill="#D38F5C"/>
<path transform="translate(374,1324)" d="m0 0 1 3-5 8-1 5h-1v-6l4-9z" fill="#CB7F4D"/>
<path transform="translate(1105,1303)" d="m0 0h3l3 10-3 1-2-5z" fill="#D3905E"/>
<path transform="translate(362,1278)" d="m0 0h3l-2 5-1 7h-2v-10h2z" fill="#D58B58"/>
<path transform="translate(1216,1166)" d="m0 0 3 1 1 3-4 2-4-1 1-4z" fill="#D0956C"/>
<path transform="translate(483,1141)" d="m0 0 4 1 2 2v3l-3 1-3-2z" fill="#F59345"/>
<path transform="translate(1085,1120)" d="m0 0h3l-2 5-5 4-1-2 1-3h2z" fill="#D5925E"/>
<path transform="translate(1149,1110)" d="m0 0h3l-1 6-1 2h-2l-2-6z" fill="#D4905C"/>
<path transform="translate(834,1057)" d="m0 0 2 1-1 5 3 1-8 1 1-4z" fill="#E5803B"/>
<path transform="translate(714,936)" d="m0 0 3 3 4 10 2 6-3-1-6-16z" fill="#B5937D"/>
<path transform="translate(768,529)" d="m0 0 7 1-4 2-11 3 4-4z" fill="#855D48"/>
<path transform="translate(977,1123)" d="m0 0 4 1v6h-4z" fill="#BF673B"/>
<path transform="translate(868,1061)" d="m0 0h7l-5 5h-4z" fill="#C5501C"/>
<path transform="translate(819,1007)" d="m0 0 2 2-8 8-3 4 1-5z" fill="#D6824D"/>
<path transform="translate(502,983)" d="m0 0 4 1 3 6v5l-3-6-3-1z" fill="#E8C4A3"/>
<path transform="translate(1197,1155)" d="m0 0h3l3 5-1 2-3-2-7-1 4-1z" fill="#D4905C"/>
<path transform="translate(1027,1106)" d="m0 0 5 1 1 2-2 3v-4h-3v5h2v2l-4-1-1-3h2z" fill="#F7F4F2"/>
<path transform="translate(916,303)" d="m0 0 10 1 4 4-15-3z" fill="#B39987"/>
<path transform="translate(1130,1368)" d="m0 0 3 1 4 10-1 2-4-6-2-4z" fill="#8B614A"/>
<path transform="translate(1057,1350)" d="m0 0h6l-3 4-1 4h-2l-1-5z" fill="#865C45"/>
<path transform="translate(1059,1316)" d="m0 0 7 1 1 2-6 2v-2h-3z" fill="#F59345"/>
<path transform="translate(1211,1259)" d="m0 0h5l1 4-4 1-3-2z" fill="#835038"/>
<path transform="translate(1158,1142)" d="m0 0 4 1 2 5-4 1-2-2z" fill="#D29160"/>
<path transform="translate(1026,1129)" d="m0 0h12l3 2h-5l-1 2-3-1v-2l-6 1z" fill="#F8F5F3"/>
<path transform="translate(968,1126)" d="m0 0 3 1 1 4-2 2-6-1 4-2z" fill="#DB864C"/>
<path transform="translate(1e3 1102)" d="m0 0 4 1v6h-6v-2l4-1-3-1z" fill="#B17656"/>
<path transform="translate(962,1096)" d="m0 0h6l-4 1-2 6-1 2h-2l2-8z" fill="#E2985F"/>
<path transform="translate(1124,1061)" d="m0 0 11 2v2l-5 1-6-3z" fill="#AC8369"/>
<path transform="translate(852,1056)" d="m0 0 1 2-1 3 3 1-3 1-7-1v-2l5-2z" fill="#ECB688"/>
<path transform="translate(986,962)" d="m0 0 1 3-2 11-2 1 1-11z" fill="#E8C3A2"/>
<path transform="translate(1093,1333)" d="m0 0 5 1 2 4-4 1-5-2 3-1z" fill="#D29160"/>
<path transform="translate(1023,1310)" d="m0 0h2l-1 5-5 1v-4z" fill="#F9C691"/>
<path transform="translate(1099,1272)" d="m0 0 5 2 4 10-4-2-2-5v-3l-3-1z" fill="#BF997D"/>
<path transform="translate(961,1120)" d="m0 0h5v5l-4 1-3-5z" fill="#E49556"/>
<path transform="translate(1084,1111)" d="m0 0 4 1-4 5-1 2h-2v-5z" fill="#D38A57"/>
<path transform="translate(1117,1085)" d="m0 0h2l-1 3h-3l-1 5-3-1 1-5z" fill="#D38654"/>
<path transform="translate(931,957)" d="m0 0 7 1 2 4h2v4h-2l-3-5-6-3z" fill="#F5EEE9"/>
<path transform="translate(477,950)" d="m0 0 5 3 2 3-3 1-5-4-3-2z" fill="#D09C73"/>
<path transform="translate(696,858)" d="m0 0 3 2 3 11-3-1z" fill="#F1C59A"/>
<path transform="translate(683,841)" d="m0 0 2 4 2 10-3-1z" fill="#D1A37C"/>
<path transform="translate(946,837)" d="m0 0 4 5v6l-3-2z" fill="#C25522"/>
<path transform="translate(869,309)" d="m0 0 2 1-1 3-2-1z" fill="#B39987"/>
<path transform="translate(850,314)" d="m0 0" fill="#B39987"/>
<path transform="translate(838,313)" d="m0 0 1 2-2-1z" fill="#B39987"/>
<path transform="translate(933,309)" d="m0 0 3 1z" fill="#B39987"/>
<path transform="translate(907,304)" d="m0 0 1 2-2-1z" fill="#B39987"/>
<path transform="translate(973,332)" d="m0 0 2 1z" fill="#B39987"/>
<path transform="translate(971,331)" d="m0 0 2 1z" fill="#B39987"/>
<path transform="translate(841,313)" d="m0 0" fill="#B39987"/>
<path transform="translate(942,313)" d="m0 0 2 1z" fill="#B39987"/>
<path transform="translate(940,312)" d="m0 0 2 1z" fill="#B39987"/>
<path transform="translate(938,311)" d="m0 0 2 1z" fill="#B39987"/>
<path transform="translate(936,310)" d="m0 0 2 1z" fill="#B39987"/>
<path transform="translate(909,305)" d="m0 0 2 1z" fill="#675A52"/>
<path transform="translate(850,312)" d="m0 0" fill="#B39987"/>
<path transform="translate(857,311)" d="m0 0" fill="#B39987"/>
<path transform="translate(890,310)" d="m0 0" fill="#B39987"/>
<path transform="translate(882,310)" d="m0 0" fill="#B39987"/>
<path transform="translate(901,309)" d="m0 0" fill="#B39987"/>
<path transform="translate(896,309)" d="m0 0" fill="#B39987"/>
<path transform="translate(902,307)" d="m0 0" fill="#B39987"/>
<path transform="translate(897,307)" d="m0 0" fill="#B39987"/>
<path transform="translate(892,307)" d="m0 0" fill="#B39987"/>
<path transform="translate(903,306)" d="m0 0" fill="#B39987"/>
<path transform="translate(904,305)" d="m0 0" fill="#B39987"/>
</svg>
